<svg width="163" height="108" viewBox="0 0 163 108" fill="none" xmlns="http://www.w3.org/2000/svg">
<rect x="2" y="2" width="159" height="104" rx="14" fill="#ED5C3D" stroke="#572B1C" stroke-width="4"/>
<path d="M53 50C54.1046 50 55 49.1046 55 48V22C55 20.8954 54.1046 20 53 20H33V40.4762V50H53Z" fill="#FCB625"/>
<path d="M33 20H22C20.8954 20 20 20.8954 20 22V40.4762H33V20Z" fill="#FCB625"/>
<path d="M20 48C20 49.1046 20.8954 50 22 50H33V40.4762H20V48Z" fill="#FCB625"/>
<path d="M33 20H53C54.1046 20 55 20.8954 55 22V48C55 49.1046 54.1046 50 53 50H33M33 20H22C20.8954 20 20 20.8954 20 22V40.4762M33 20V40.4762M33 50H22C20.8954 50 20 49.1046 20 48V40.4762M33 50V40.4762M33 40.4762H20" stroke="#713427" stroke-width="4"/>
<path d="M20 30H33M55 30H46C44.8954 30 44 30.8954 44 32V38.5C44 39.6046 44.8954 40.5 46 40.5H55" stroke="#703327" stroke-width="4"/>
<path d="M20 74H57" stroke="#6B3525" stroke-width="4" stroke-linecap="round"/>
<path d="M64 74H101" stroke="#6B3525" stroke-width="4" stroke-linecap="round"/>
<line x1="2" y1="87" x2="160" y2="87" stroke="#683523" stroke-width="4"/>
<path d="M134.511 19C146.176 26.9053 145.661 40.8685 137.62 49.7187" stroke="#6B3525" stroke-width="2.82996" stroke-linecap="round"/>
<path d="M129.643 24.6599C137.086 29.7033 136.757 38.6115 131.627 44.2577" stroke="#6B3525" stroke-width="2.82996" stroke-linecap="round"/>
<path d="M125.781 30.3198C128.986 32.4918 128.844 36.3281 126.635 38.7597" stroke="#6B3525" stroke-width="2.82996" stroke-linecap="round"/>
</svg>

