<svg width="327" height="237" viewBox="0 0 327 237" fill="none" xmlns="http://www.w3.org/2000/svg">
<path d="M122.016 153.924C123.146 164.049 131.705 171.707 141.893 171.707H201.676C212.045 171.707 220.695 163.782 221.6 153.453L227.187 89.7067C227.187 89.7067 213 104.174 172.5 104.707C134.5 105.206 114.853 89.7067 114.853 89.7067L122.016 153.924Z" fill="#965C2B"/>
<path d="M169 75.2067C131 75.3559 114.853 89.7067 114.853 89.7067C114.853 89.7067 134.5 105.206 172.5 104.707C213 104.174 227.187 89.7067 227.187 89.7067C227.187 89.7067 207 75.0575 169 75.2067Z" fill="#996130"/>
<path d="M233.5 43.7073C233.5 43.7073 222 22.7066 166 25.2067C110 27.7069 110 43.7073 110 43.7073C110 43.7073 124 58.2067 164 58.2067C224 58.2067 233.5 43.7073 233.5 43.7073Z" fill="#D9D9D9"/>
<path d="M233.5 43.7073C233.5 43.7073 224 58.2067 164 58.2067C124 58.2067 110 43.7073 110 43.7073L114.853 89.7067C114.853 89.7067 131 75.3559 169 75.2067C207 75.0575 227.187 89.7067 227.187 89.7067L233.5 43.7073Z" fill="#D9D9D9"/>
<path d="M110 43.7073C110 43.7073 110 27.7069 166 25.2067C222 22.7066 233.5 43.7073 233.5 43.7073M110 43.7073L114.853 89.7067M110 43.7073C110 43.7073 124 58.2067 164 58.2067C224 58.2067 233.5 43.7073 233.5 43.7073M233.5 43.7073L227.187 89.7067M114.853 89.7067L122.016 153.924C123.146 164.049 131.705 171.707 141.893 171.707H201.676C212.045 171.707 220.695 163.782 221.6 153.453L227.187 89.7067M114.853 89.7067C114.853 89.7067 131 75.3559 169 75.2067C207 75.0575 227.187 89.7067 227.187 89.7067M114.853 89.7067C114.853 89.7067 134.5 105.206 172.5 104.707C213 104.174 227.187 89.7067 227.187 89.7067" stroke="#3F2613" stroke-width="8"/>
<path d="M209 140.5L221.631 189.493C223.908 198.327 231.875 204.5 240.998 204.5H288.075C296.928 204.5 304.728 198.68 307.248 190.192L322 140.5C322 140.5 311 156.5 269.5 156.5C221 156.5 209 140.5 209 140.5Z" fill="#FCE8BA"/>
<path d="M269.5 156.5C311 156.5 322 140.5 322 140.5C322 140.5 318 119 265.5 119C221.5 119 209 140.5 209 140.5C209 140.5 221 156.5 269.5 156.5Z" fill="#FCE8BA"/>
<path d="M209 140.5L221.631 189.493C223.908 198.327 231.875 204.5 240.998 204.5H288.075C296.928 204.5 304.728 198.68 307.248 190.192L322 140.5M209 140.5C209 140.5 221 156.5 269.5 156.5C311 156.5 322 140.5 322 140.5M209 140.5C209 140.5 221.5 119 265.5 119C318 119 322 140.5 322 140.5" stroke="#3F2613" stroke-width="8"/>
<path d="M111 142C141.224 142 168.395 147.471 187.859 156.151C197.597 160.494 205.23 165.561 210.375 170.985C215.5 176.389 218 181.962 218 187.5C218 193.038 215.5 198.611 210.375 204.015C205.23 209.439 197.597 214.506 187.859 218.849C168.395 227.529 141.224 233 111 233C80.7757 233 53.6052 227.529 34.1406 218.849C24.4034 214.506 16.7699 209.439 11.625 204.015C6.50003 198.611 4 193.038 4 187.5C4 181.962 6.50003 176.389 11.625 170.985C16.7699 165.561 24.4034 160.494 34.1406 156.151C53.6052 147.471 80.7757 142 111 142Z" fill="#FDEAC1" stroke="#3F2613" stroke-width="8"/>
<path d="M49.308 133.769C71.2487 121.093 94.6159 120.778 116.628 126.797C117.748 127.103 118.828 127.521 119.849 128.073C123.776 130.197 134.109 136.277 137.808 143.269C141.408 150.075 140.354 160.825 139.159 167.577C138.439 171.643 136.099 175.179 132.776 177.631C124.835 183.492 108.946 194.271 95.808 197.269C81.3402 200.572 71.3557 203.326 57.808 197.269C45.9595 191.972 38.0636 186.193 34.308 173.769C29.4805 157.8 26.8081 146.769 49.308 133.769Z" fill="#AF5D1A" stroke="#3F2613" stroke-width="8"/>
<path d="M105.874 176.032C113.705 169.569 121.72 176.032 131.874 176.032C135.989 176.032 139.861 174.156 142.844 171.32C147.325 167.061 154.46 161.527 160.874 162.032C166.369 162.465 169.091 164.791 173.874 167.532C182.034 172.21 190.044 174.307 191.874 183.532C193.352 190.982 191.588 197.029 185.874 202.032C181.343 205.999 172.889 205.072 167.077 203.78C162.982 202.869 159.693 200.069 156.733 197.097C154.028 194.381 150.362 191.632 146.874 192.032C143.111 192.465 145.862 195.838 149.89 199.328C154.334 203.18 153.672 210.619 148.267 212.935C147.348 213.329 146.358 213.532 145.358 213.532H131.874H123.874C123.874 213.532 111.197 212.687 105.874 207.532C97.0363 198.975 96.3868 183.863 105.874 176.032Z" fill="#879322" stroke="#3F2613" stroke-width="8"/>
<path d="M42.1223 172.333C52.9742 176.673 59.7834 177.921 66.7789 178.695C74.7046 179.571 81.8133 180.716 89.7309 181.792C92.6036 182.182 92.423 185.019 92.2693 186.589C92.1156 188.159 91.8082 189.081 88.1148 189.556C69.2994 191.976 64.8135 187.553 58.293 184.917C53.5637 183.005 49.5929 181.964 46.6354 178.867C45.7949 177.987 44.9354 177.009 45.0751 176.995C49.387 176.563 52.3501 181.946 56.0807 184.586C59.9665 187.337 63.528 188.168 68.0318 189.868C71.8994 191.328 74.7153 191.894 75.6514 191.894C78.4489 191.894 70.0764 192.825 68.2181 192.518C67.282 192.211 66.3598 191.596 65.5773 190.664C64.7949 189.733 64.1801 188.503 64.4782 185.373" stroke="#984E14" stroke-width="10" stroke-linecap="round"/>
<path d="M65.4097 158.36C79.8571 153.134 94.3046 147.909 102.362 144.909C110.419 141.91 111.649 141.295 112.916 140.662" stroke="#984E14" stroke-width="10" stroke-linecap="round"/>
<path d="M66.3412 138.798L110.121 156.497" stroke="#984E14" stroke-width="10" stroke-linecap="round"/>
<path d="M223.533 123C221.197 130.175 227.066 139.807 230.941 145.103C232.872 147.741 235.623 149.6 238.739 150.587C247.048 153.219 264.613 158.009 277.033 156C285.567 154.619 291.553 154.722 298.033 149C302.703 144.876 305.016 141.542 306.533 135.5C307.722 130.765 307.604 127.763 306.533 123C305.09 116.581 298.565 110.272 293.785 106.385C290.622 103.814 288.533 100.037 288.533 95.961C288.533 94.3372 288.209 92.7339 287.508 91.2696C285.232 86.5211 279.414 75.4433 272.533 70.4999C244 49.9999 250.533 66.0001 250.533 66.0001L253.057 73.3159C253.982 75.9997 253.829 78.9382 252.628 81.5108C251.297 84.3641 248.777 86.4626 245.893 87.7268C241.656 89.5841 236.172 92.8395 237.033 96.9999C238.822 105.641 233.247 114.068 226.306 119.516C224.957 120.575 223.943 121.742 223.533 123Z" fill="#FEDD74" stroke="#3F2613" stroke-width="8"/>
<path d="M284.17 104.42C281.129 104.554 272.741 105.677 264.59 106.858C252.195 107.633 250.657 107.214 249.13 107.005C248.018 106.934 246.22 106.934 244.368 106.934" stroke="#E9B351" stroke-width="10" stroke-linecap="round"/>
<path d="M247.72 142.127C249.811 142.546 251.482 142.822 253.16 143.382C254.838 143.941 256.787 144.498 258.676 144.779C262.523 145.35 267.822 146.032 275.829 146.247C279.31 146.341 281.229 144.926 282.907 144.502C284.726 144.044 286.257 143.107 287.935 142.548C289.613 141.989 291.284 141.155 293.31 140.453C293.794 140.286 294.217 140.174 294.223 140.242C294.378 141.892 291.435 142.537 290.042 143.729C288.581 144.979 286.274 145.194 284.596 146.312C283.76 146.87 276.419 147.154 265.669 147.085C260.271 147.051 258.622 146.04 256.944 145.55C255.321 145.076 253.594 144.783 251.151 144.502C248.981 143.803 247.309 143.526 245.562 143.036C245.072 142.965 244.519 142.965 243.949 142.965" stroke="#E9B351" stroke-width="10" stroke-linecap="round"/>
<line x1="162.673" y1="145.167" x2="179.389" y2="11.8386" stroke="#3F2613" stroke-width="8"/>
<path d="M231.317 7.90826C233.476 7.43783 234.844 5.30669 234.374 3.14822C233.903 0.989749 231.772 -0.378682 229.614 0.0917436L231.317 7.90826ZM175 16.0884L175.852 19.9966L231.317 7.90826L230.466 4L229.614 0.0917436L174.148 12.1801L175 16.0884Z" fill="#3F2613"/>
</svg>
