<svg width="204" height="144" viewBox="0 0 204 144" fill="none" xmlns="http://www.w3.org/2000/svg">
<path d="M4 106C4 114.837 11.1634 122 20 122H117.5V87.5H4V106Z" fill="#FCB012"/>
<path fill-rule="evenodd" clip-rule="evenodd" d="M117.5 14V14C117.5 8.47715 113.023 4 107.5 4H14C8.47715 4 4 8.47715 4 14V14V87.5H117.5V14ZM32.1996 26.5456C33.6216 24.0447 36.277 22.5 39.1539 22.5H93.5L85.7367 47.2456C85.5793 47.7473 85.3728 48.2323 85.1203 48.6934L74 69L31.2537 67.2373C27.8168 67.0955 24.8552 64.7727 23.8988 61.4685L20 48L32.1996 26.5456Z" fill="#FCE7AF"/>
<path d="M93.5 22.5L79.5 51L74 69L85.1203 48.6934C85.3728 48.2323 85.5793 47.7473 85.7367 47.2456L93.5 22.5Z" fill="#FCE7AF"/>
<path d="M93.5 22.5H39.1539C36.277 22.5 33.6216 24.0447 32.1996 26.5456L20 48L79.5 51L93.5 22.5Z" fill="#FCE8BA"/>
<path d="M79.5 51L20 48L23.8988 61.4685C24.8552 64.7727 27.8168 67.0955 31.2537 67.2373L74 69L79.5 51Z" fill="#FCE8BA"/>
<path d="M184 122C192.837 122 200 114.837 200 106V105V83.5V72.2159C200 70.7659 199.617 69.3526 198.851 68.1216C190.58 54.8336 171.456 28.2904 160.5 14H117.5V87.5V122H184Z" fill="#FCB012"/>
<path d="M160.5 14C171.456 28.2904 190.58 54.8336 198.851 68.1216C199.617 69.3526 200 70.7659 200 72.2159V83.5M160.5 14C143.707 14 117.5 14 117.5 14M160.5 14H117.5M117.5 14V14C117.5 8.47715 113.023 4 107.5 4H14C8.47715 4 4 8.47715 4 14V14V87.5M117.5 14V87.5M117.5 122H20C11.1634 122 4 114.837 4 106V87.5M117.5 122H184C192.837 122 200 114.837 200 106V105M117.5 122V87.5M117.5 87.5H4M93.5 22.5H39.1539C36.277 22.5 33.6216 24.0447 32.1996 26.5456L20 48M93.5 22.5L79.5 51M93.5 22.5L85.7367 47.2456C85.5793 47.7473 85.3728 48.2323 85.1203 48.6934L74 69M79.5 51L20 48M79.5 51L74 69M20 48L23.8988 61.4685C24.8552 64.7727 27.8168 67.0955 31.2537 67.2373L74 69M200 83.5C197.292 84.442 194.857 85.3162 192.667 86.1246C185.802 88.6586 185.892 99.1436 192.65 101.949L200 105M200 83.5V105" stroke="#4A2F0D" stroke-width="8" stroke-linejoin="round"/>
<circle cx="45.5" cy="121" r="22.5" fill="#683F11"/>
<circle cx="45.5" cy="121" r="18.5" fill="#967646"/>
<circle cx="45.5" cy="121" r="8.5" fill="#5C3909"/>
<circle cx="154.5" cy="121" r="22.5" fill="#683F11"/>
<circle cx="154.5" cy="121" r="18.5" fill="#967646"/>
<circle cx="154.5" cy="121" r="8.5" fill="#5C3909"/>
<path d="M141 34.5H171.457L193.465 63.5H141C137.962 63.5 135.5 61.0376 135.5 58V40C135.5 36.9624 137.962 34.5 141 34.5Z" fill="#D9D9D9" stroke="#4A2F0D" stroke-width="5"/>
</svg>
