<svg width="316" height="272" viewBox="0 0 316 272" fill="none" xmlns="http://www.w3.org/2000/svg">
<path d="M222 77V197C222 205.837 214.837 213 206 213H20C11.1634 213 4 205.837 4 197V77H222Z" fill="#FCEDCB" stroke="#3F2613" stroke-width="8"/>
<path d="M222 75V45C222 36.1634 214.837 29 206 29H20C11.1634 29 4 36.1634 4 45V75H222Z" fill="#E9714A" stroke="#3F2613" stroke-width="8"/>
<rect x="31" y="104" width="34" height="34" rx="6" stroke="#CCB989" stroke-width="8"/>
<rect x="31" y="153" width="34" height="32" rx="6" stroke="#CCB989" stroke-width="8"/>
<rect x="83" y="104" width="34" height="34" rx="6" stroke="#CCB989" stroke-width="8"/>
<rect x="164" y="6" width="23" height="43" rx="11.5" fill="#8E754C" stroke="#3F2613" stroke-width="6"/>
<rect x="37" y="3" width="23" height="43" rx="11.5" fill="#8E754C" stroke="#3F2613" stroke-width="6"/>
<path d="M211 134C239.481 134 265.131 141.756 283.574 154.14C302.036 166.536 313 183.337 313 201.5C313 219.663 302.036 236.464 283.574 248.86C265.131 261.244 239.481 269 211 269C182.519 269 156.869 261.244 138.426 248.86C119.964 236.464 109 219.663 109 201.5C109 183.337 119.964 166.536 138.426 154.14C156.869 141.756 182.519 134 211 134Z" fill="#F8ECCF" stroke="#3F2613" stroke-width="6"/>
<path d="M213.5 155.346C191.758 155.244 175.5 167.01 170.5 171.069C165.616 175.033 157.393 192.062 157.014 200.413C156.996 200.802 157.038 201.189 157.115 201.571C159.543 213.553 163.159 220.992 173.559 226.852C174.177 227.2 174.861 227.418 175.563 227.514C187.746 229.173 194.984 229.797 208.5 227.368C216.289 225.865 220.709 224.754 226.255 221.114C227.081 220.572 227.735 219.797 228.187 218.919C238.42 199.06 246.812 192.212 249.655 182.076C249.905 181.182 249.884 180.233 249.662 179.332C246.964 168.347 245.636 163.4 233.216 158.179C232.747 157.981 232.245 157.848 231.74 157.781L213.5 155.346Z" fill="#B65F1B" stroke="#3F2613" stroke-width="6"/>
<path d="M190.667 192C191.167 191.493 195.175 187.934 202.108 182.051C207.79 177.689 212.742 174.592 217.341 172.353C219.565 171.383 221.565 170.749 224.384 170.095" stroke="#3F2613" stroke-width="6" stroke-linecap="round"/>
<path d="M184.984 174.707C190.735 175.214 197.323 175.856 203.441 176.686C207.267 177.205 210.223 178.673 214.875 180.646C226.399 187.385 227.79 188.538 228.483 189.304C228.801 189.691 229.051 190.071 230.066 191.232" stroke="#3F2613" stroke-width="6" stroke-linecap="round"/>
<path d="M163.39 208.141C166.921 209.547 169.936 210.57 173.666 211.085C174.88 211.252 176.49 211.845 184.954 212.107C193.417 212.368 208.669 212.368 216.777 212.305C226.659 212.227 228.672 211.6 228.492 211.6C225.937 211.6 222.88 211.853 218.612 212.491C210.386 213.721 204.563 214.032 203.43 214.224C199.688 214.859 193.849 215.058 193.936 215.122C196.039 216.652 204.275 215.312 206.83 215.631C207.699 215.739 202.672 217.233 202.034 217.618C201.802 217.757 203.646 217.748 208.292 217.304C212.939 216.861 220.815 215.973 225.31 215.515C229.805 215.058 230.68 215.058 228.693 215.502C221.869 217.026 215.432 217.748 213.723 217.748C211.233 217.748 221.327 215.45 224.992 214.424C226.025 214.135 225.407 214.413 221.459 215.304C217.512 216.196 210.26 217.717 205.9 218.565C201.539 219.412 200.289 219.539 200.208 219.668C199.628 220.584 205.286 219.674 209.268 219.224C209.665 219.179 203.35 220.557 194.578 221.902C191.313 222.403 190.432 222.36 194.357 222.17C198.281 221.979 207.033 221.599 211.166 221.593C215.299 221.587 214.549 221.968 213.662 222.354C211.795 223.168 209.745 223.513 208.417 223.386C203.797 222.945 221.217 218.39 222.169 218.198C222.248 218.182 220.997 218.133 215.479 218.576C209.961 219.02 200.085 219.908 197.497 219.731C194.701 219.54 207.563 216.853 207.163 217.168C204.848 218.994 195.887 218.624 189.384 219.147C182.881 219.67 178.506 219.67 177.314 219.416C176.142 219.167 186.564 217.752 195.658 217.302C198.623 217.156 198.251 217.487 197.058 217.808C193.899 218.657 187.928 218.901 182.493 218.774C181.713 218.756 189.462 217.625 199.503 216.92C202.791 216.689 202.418 216.849 199.6 216.978C196.781 217.106 191.53 217.233 186.513 216.918C176.83 216.31 170.978 214.551 169.273 213.529C168.61 213.131 168.694 212.506 169.194 212.182C172.519 210.023 178.142 212.614 185.334 215.049C187.129 215.656 188.492 216.326 188.825 216.843C189.159 217.36 188.409 217.741 187.147 217.873C180.683 218.553 177.032 215.189 176.651 214.678C176.498 214.472 177.021 214.167 177.714 214.226C178.407 214.286 179.407 214.666 179.61 214.989C180.958 217.135 171.126 213.79 168.129 212.18C167.947 212.082 168.557 211.984 169.065 212.111C169.573 212.237 170.073 212.491 170.518 213.002C170.963 213.513 171.338 214.274 170.719 213.905C168.203 212.407 166.424 210.193 166.044 210.379C161.971 212.373 170.452 218.763 171.904 219.92C172.277 220.216 172.232 219.301 171.855 218.719C171.478 218.136 170.853 217.756 170.844 217.814C170.334 220.917 177.142 221.714 181.108 222.037C183.197 222.207 186.681 223.113 187.672 223.188C187.037 222.629 184.363 221.849 184.285 221.91C185.208 222.098 188.083 222.606 190.288 223.128" stroke="#9A4F18" stroke-width="6" stroke-linecap="round"/>
<path d="M163.95 234.957C165.571 235.845 172.133 238.408 180.897 240.074C183.381 240.546 185.748 241.221 187.785 241.674C189.821 242.128 191.446 242.381 199.972 242.449C208.498 242.516 223.875 242.389 232.234 242.26C240.593 242.132 241.469 242.005 242.169 241.876C242.87 241.747 243.37 241.62 244.264 241.106" stroke="#D0BC96" stroke-width="6" stroke-linecap="round"/>
<path d="M245.363 177.392C245.751 175.083 247.436 173.117 249.76 172.833C258.028 171.82 262.051 176.87 266 194.399L263.635 182.003C263.241 179.938 263.918 177.768 265.599 176.505C268.422 174.384 270.933 173.474 275.086 173.569C275.691 173.583 276.29 173.71 276.855 173.926C284.806 176.965 287.194 179.199 288 183.748V197.442C289.953 202.592 293 203.529 293 210.629C293 216.42 289.675 220.524 288.448 221.842C288.158 222.152 287.814 222.405 287.445 222.615C282.175 225.629 279.096 226.511 275.593 226.521C273.649 226.527 271.76 227.243 270.427 228.658C266.424 232.906 263.221 234.961 257.798 236.747C257.271 236.921 256.766 237.163 256.291 237.45C250.867 240.725 245.687 240.557 235.711 237.784C233.992 237.306 232.579 236.057 231.927 234.397C229.672 228.661 229.043 225.053 228.639 220.09C228.54 218.884 228.828 217.679 229.441 216.636L241.94 195.352C242.31 194.722 242.562 194.03 242.683 193.309L245.363 177.392Z" fill="#8B9927"/>
<path d="M288 183.748C287.194 179.199 284.806 176.965 276.855 173.926C276.29 173.71 275.691 173.583 275.086 173.569C270.933 173.474 268.422 174.384 265.599 176.505C263.918 177.768 263.241 179.938 263.635 182.003L266 194.399C262.051 176.87 258.028 171.82 249.76 172.833C247.436 173.117 245.751 175.083 245.363 177.392L242.683 193.309C242.562 194.03 242.31 194.722 241.94 195.352L229.441 216.636C228.828 217.679 228.54 218.884 228.639 220.09C229.043 225.053 229.672 228.661 231.927 234.397C232.579 236.057 233.992 237.306 235.711 237.784C245.687 240.557 250.867 240.725 256.291 237.45C256.766 237.163 257.271 236.921 257.798 236.747C263.221 234.961 266.424 232.906 270.427 228.658C271.76 227.243 273.649 226.527 275.593 226.521C279.096 226.511 282.175 225.629 287.445 222.615C287.814 222.405 288.158 222.152 288.448 221.842C289.675 220.524 293 216.42 293 210.629C293 203.529 289.953 202.592 288 197.442M288 183.748C288 189.096 288 192.094 288 197.442M288 183.748V197.442" stroke="#3F2613" stroke-width="6"/>
</svg>
