<svg width="363" height="181" viewBox="0 0 363 181" fill="none" xmlns="http://www.w3.org/2000/svg">
<path d="M181.636 56.0759C113.136 -43.4248 -13.8638 19.0777 8.63613 105.077C31.1361 191.076 142.636 183.576 182.636 128.077C182.636 128.077 198.917 149.545 213.136 158.576C242.773 177.399 270.541 181.308 302.636 167.076C334.089 153.129 351.37 131.151 356.136 97.0762C360.978 62.4591 351.087 40.3821 322.636 20.076C294.916 0.291555 267.409 1.81535 235.636 14.076C209.313 24.2338 181.636 56.0759 181.636 56.0759Z" fill="#FAEAC1" stroke="#3F2613" stroke-width="10"/>
<path d="M288.5 84.5047C296 82.5047 315 87.0047 315 87.0047L326.088 93.5047C326.088 93.5047 339.5 65.5046 312.5 42.5047C285.5 19.5048 257.75 35.2722 257.75 35.2722L258 42.5047L260 48.0047L263 53.0047C263 53.0047 265.5 58.5047 263 60.0047C260.5 61.5046 260 70.0047 260 70.0047V74.5047V80.5047V84.5047L263 90.0047L265.5 93.5047L268 95.5047L267.75 98.5046L272.5 93.5047C272.5 93.5047 281 86.5046 288.5 84.5047Z" fill="#E9714A"/>
<path d="M258 112.505L263 103.505L267.75 98.5046L268 95.5047L265.5 93.5047L263 90.0047L260 84.5047V80.5047V74.5047V70.0047C260 70.0047 260.5 61.5046 263 60.0047C265.5 58.5047 263 53.0047 263 53.0047L260 48.0047L258 42.5047L257.75 35.2722C244 35.2722 224.5 42.5047 215.5 62.2722L217.5 70.0047H215.5H210.106C210.106 70.0047 206.039 69.5468 203.5 70.0047C199.15 70.7891 195.591 75.1131 192.5 78.2722C202.712 93.0047 208 103.505 208 103.505C208 103.505 221.795 99.6124 224.5 100.005C228.413 100.572 234 103.505 234 103.505C234 103.505 236.792 103.089 238.5 103.505C242.256 104.418 245.5 110.505 245.5 110.505L254.75 117.255L258 112.505Z" fill="#8B9927"/>
<path d="M251.5 133.005C251.5 133.005 249.841 125.967 251.5 122.005C252.368 119.931 254.75 117.255 254.75 117.255L245.5 110.505C245.5 110.505 242.256 104.418 238.5 103.505C236.792 103.089 234 103.505 234 103.505C234 103.505 228.413 100.572 224.5 100.005C221.795 99.6124 208 103.505 208 103.505C208 103.505 231.519 137.073 251.5 145.772L250.5 137.772L251.5 133.005Z" fill="#FDAF32"/>
<path d="M315 87.0047C315 87.0047 296 82.5047 288.5 84.5047C281 86.5046 272.5 93.5047 272.5 93.5047L267.75 98.5046L263 103.505L258 112.505L254.75 117.255C254.75 117.255 252.368 119.931 251.5 122.005C249.841 125.967 251.5 133.005 251.5 133.005L250.5 137.772L251.5 145.772C273.604 155.395 297.49 147.843 315 131.272C327.137 119.786 329.707 96.4683 328.5 95.5047C327.293 94.541 326.088 93.5047 326.088 93.5047L315 87.0047Z" fill="#B65F1B"/>
<path d="M251.5 145.772L250.5 137.772L251.5 133.005C251.5 133.005 249.841 125.967 251.5 122.005C252.368 119.931 254.75 117.255 254.75 117.255M251.5 145.772C273.604 155.395 297.49 147.843 315 131.272C327.137 119.786 329.707 96.4683 328.5 95.5047C327.293 94.541 326.088 93.5047 326.088 93.5047M251.5 145.772C231.519 137.073 208 103.505 208 103.505M254.75 117.255L258 112.505L263 103.505L267.75 98.5046M254.75 117.255L245.5 110.505C245.5 110.505 242.256 104.418 238.5 103.505C236.792 103.089 234 103.505 234 103.505C234 103.505 228.413 100.572 224.5 100.005C221.795 99.6124 208 103.505 208 103.505M208 103.505C208 103.505 202.712 93.0047 192.5 78.2722M192.5 78.2722C195.591 75.1131 199.15 70.7891 203.5 70.0047C206.039 69.5468 210.106 70.0047 210.106 70.0047H215.5H217.5L215.5 62.2722C224.5 42.5047 244 35.2722 257.75 35.2722M192.5 78.2722C187.618 71.2301 175 48.0047 175 48.0047M257.75 35.2722L258 42.5047L260 48.0047L263 53.0047C263 53.0047 265.5 58.5047 263 60.0047C260.5 61.5046 260 70.0047 260 70.0047V74.5047V80.5047V84.5047L263 90.0047L265.5 93.5047L268 95.5047L267.75 98.5046M257.75 35.2722C257.75 35.2722 285.5 19.5048 312.5 42.5047C339.5 65.5046 326.088 93.5047 326.088 93.5047M267.75 98.5046L272.5 93.5047C272.5 93.5047 281 86.5046 288.5 84.5047C296 82.5047 315 87.0047 315 87.0047L326.088 93.5047M329.5 90.0047L326.088 93.5047" stroke="#3F2613" stroke-width="10"/>
<path d="M274.031 69.6675C273.854 69.6675 273.677 69.6675 273.233 70.1094C272.788 70.5513 272.081 71.4351 271.353 71.2744" stroke="#5F2D07" stroke-width="8" stroke-linecap="round"/>
<path d="M290.636 52.5269C290.459 52.5269 290.282 52.5269 290.014 52.8804C289.747 53.2339 289.393 53.9409 289.029 54.6694" stroke="#5F2D07" stroke-width="8" stroke-linecap="round"/>
<path d="M308.848 69.1318C308.848 69.3085 308.848 69.4853 308.936 69.3112C309.024 69.1371 309.201 68.6068 308.939 68.2453C308.676 67.8837 307.969 67.707 307.516 67.881C307.064 68.0551 306.887 68.5854 307.241 69.1318" stroke="#5F2D07" stroke-width="8" stroke-linecap="round"/>
<path d="M245.106 79.3088C245.637 80.3694 246.167 81.43 246.44 83.1253C246.713 84.8206 246.713 87.1185 246.713 89.486" stroke="#5F2D07" stroke-width="8" stroke-linecap="round"/>
<path d="M283.81 136.575C283.846 136.644 283.574 136.677 283.546 136.744C283.426 137.024 283.225 137.093 283.063 137.325C282.83 137.678 282.821 138.845 281.11 138.262C281.11 138.262 281.11 138.262 281.11 138.262C281.094 138.257 281.077 138.251 281.059 138.245C280.735 138.134 280.405 137.937 280.039 137.806C279.673 137.675 277.287 136.904 277.183 136.769C277.05 136.577 277.762 136.438 277.754 136.354C277.75 136.298 277.546 136.178 277.523 136.106C277.448 135.876 277.636 135.805 277.07 135.498C277.403 135.5 277.738 135.493 278.073 135.481C277.944 135.356 278.394 135.283 278.381 135.215C278.371 135.16 278.121 135.09 278.118 135.036C278.112 134.975 278.402 134.927 278.376 134.81C278.334 134.621 277.671 134.5 277.599 134.388C277.524 134.27 277.907 134.139 277.686 133.97C277.614 133.945 277.542 133.92 277.47 133.895C277.302 133.891 277.134 133.887 276.967 133.883C276.896 133.807 277.24 133.809 277.253 133.743C277.267 133.666 276.947 133.6 276.953 133.548C276.958 133.506 277.223 133.467 277.211 133.411C277.195 133.329 276.818 133.317 276.751 133.268C276.725 133.247 276.541 132.912 276.539 132.892C276.533 132.751 277.048 132.772 277.1 132.659C277.241 132.351 276.841 131.993 276.696 131.692C276.631 131.553 276.666 131.419 276.754 131.286C278.065 131.55 279.108 131.104 277.038 131.213C277.337 131.073 276.783 130.95 276.882 130.807C276.946 130.715 277.234 130.663 277.231 130.528C277.222 130.285 276.415 130.016 277.887 129.978C277.635 129.698 278.173 129.456 276.877 129.334C276.799 129.262 277.576 129.091 277.683 129.01C277.783 128.938 278.143 128.347 278.164 128.254C278.184 128.161 278.207 127.997 278.105 127.909C278.102 127.907 278.099 127.904 278.096 127.902C277.956 127.799 276.61 127.71 278.188 127.548C278.063 127.33 278.109 127.258 278.295 127.063C278.328 127.027 278.562 127.026 278.562 127.005C278.563 126.962 278.391 126.886 278.371 126.808C278.338 126.679 278.831 126.615 278.079 126.62C277.954 126.536 277.829 126.451 277.704 126.366C277.85 126.338 277.995 126.31 278.14 126.282C277.983 126.236 277.825 126.189 277.668 126.142C278.754 126.205 278.116 125.887 277.491 125.982C277.718 125.823 277.944 125.663 278.171 125.501C279.406 125.536 278.316 125.149 277.644 125.174C277.645 125.156 277.647 125.137 277.648 125.119C277.978 124.959 277.71 124.806 277.932 124.612C278.154 124.416 278.274 124.435 278.843 124.379C278.811 124.332 278.779 124.285 278.747 124.238C277.19 123.982 279.888 124.046 278.695 123.617C279.675 123.487 279.163 123.158 278.867 122.936C278.833 122.91 278.643 122.909 278.584 122.874C278.444 122.789 278.689 122.581 278.076 122.585C278.254 122.513 278.431 122.441 278.609 122.368C278.498 122.308 278.387 122.247 278.275 122.187C278.084 122.186 277.893 122.186 277.701 122.185C278.354 122.066 278.104 121.878 278.26 121.785C278.292 121.767 278.556 121.764 278.628 121.706C278.714 121.639 278.636 121.512 278.719 121.432C278.427 121.399 278.134 121.367 277.842 121.335C277.684 121.192 278.456 121.143 278.516 121.059C278.527 121.044 278.472 120.766 278.455 120.751C278.325 120.627 277.667 120.661 277.809 120.308C277.834 120.245 278.062 120.194 278.071 120.137C278.088 120.036 277.572 119.733 277.095 119.709C277.692 119.588 277.448 119.261 277.621 119.165C277.674 119.136 278.054 119.129 278.135 119.04C278.201 118.968 277.896 118.782 277.947 118.69C278.003 118.592 278.322 118.557 278.345 118.514C278.366 118.472 278.108 118.434 278.109 118.378C278.118 118.203 278.533 118.044 278.54 117.905C278.552 117.704 277.788 117.529 277.449 117.362C277.498 117.32 277.662 117.279 277.663 117.235C277.686 116.696 277.824 116.086 277.985 115.545C278.059 115.293 279.091 114.663 277.363 114.84C277.06 114.754 277.753 114.116 277.762 113.995C277.772 113.874 277.461 113.781 277.455 113.686C277.439 113.402 277.661 113.196 277.388 112.852C277.316 112.763 276.948 112.672 276.952 112.618C276.957 112.553 277.312 112.48 277.333 112.397C277.382 112.198 277.261 111.833 277.32 111.641C277.332 111.606 277.643 111.59 277.74 111.539C278.119 111.343 278.083 111.126 277.087 111.178C277.649 110.92 277.13 110.705 277.095 110.474C277.024 109.994 277.24 109.104 276.812 108.699C276.543 108.436 276.096 108.456 276.473 108.06C276.556 107.971 276.669 107.882 276.768 107.775C277.002 107.531 277.821 107.273 276.821 107.12C277.044 106.875 276.918 106.676 277.482 106.481L277.49 106.622C277.559 106.593 277.637 106.563 277.729 106.533C277.524 106.526 277.318 106.519 277.113 106.512C277.105 106.478 277.097 106.445 277.089 106.412C277.282 106.385 277.475 106.358 277.668 106.331C277.7 106.091 276.877 105.851 276.865 105.653C276.845 105.312 277.074 104.418 277.304 104.073C277.426 103.891 277.01 103.92 277.853 103.739C277.79 103.707 277.727 103.675 277.664 103.643C277.475 103.638 277.286 103.634 277.097 103.629C277.068 103.408 277.332 103.127 277.307 102.917C277.261 102.54 276.687 102.035 276.98 101.623C277.054 101.52 277.424 101.357 277.408 101.264C277.387 101.133 276.745 101.174 276.713 101.009C276.658 100.723 277.326 100.081 277.232 99.8122C277.204 99.7289 276.962 99.7239 276.929 99.6709C276.787 99.4413 276.779 99.244 276.378 99.0185C276.951 98.6327 277.745 98.5665 278.533 98.4032C279.126 98.2617 280.52 98.0302 281.051 98.0571C281.423 98.0583 281.901 98.0512 282.311 98.0474C282.634 97.9824 282.288 98.173 281.746 98.4577C281.824 98.8737 281.915 99.3468 281.997 99.8078C281.781 99.8775 281.564 99.9476 281.348 100.018C281.348 100.018 281.347 100.018 281.347 100.018C281.114 100.232 281.693 100.228 281.836 100.313C283.195 101.083 282.414 103.009 282.366 104.021C282.356 104.233 282.72 104.912 282.372 105.095C282.281 105.141 281.939 105.182 281.927 105.223C282.147 105.546 282.366 105.863 282.586 106.194L282.593 106.311C282.607 106.335 282.622 106.36 282.637 106.384C282.126 107.156 282.588 107.919 282.686 108.676C282.952 110.716 283.245 112.738 283.176 114.745C283.162 115.131 283.422 115.623 283.258 116.003C283.189 116.162 282.636 116.23 283.049 116.436C282.9 116.439 282.751 116.442 282.602 116.444C282.783 116.625 283.123 116.74 283.158 116.943C283.187 117.115 283.21 117.568 283.153 117.719C283.125 117.798 282.846 117.769 282.848 117.842C282.852 117.968 283.238 118.235 283.238 118.408C283.238 118.565 282.918 118.829 282.964 118.949C283.129 119.383 283.604 119.855 283.476 120.319C283.44 120.446 283.078 120.609 283.088 120.649C283.109 120.727 283.46 120.752 283.505 120.804C283.732 121.073 283.314 121.485 283.297 121.748C283.24 122.599 283.388 123.502 283.317 124.35C283.273 124.883 283.327 125.78 283.057 126.269C282.999 126.377 282.615 126.344 282.614 126.434C282.613 126.533 282.872 126.59 282.892 126.636C283.036 126.957 283.289 127.678 283.019 127.972C283.016 127.975 283.012 127.978 283.008 127.981C282.934 128.035 282.665 128.07 282.666 128.104C282.666 128.121 282.871 128.165 282.891 128.22C283.069 128.703 282.943 129.067 282.863 129.54C282.71 130.46 283.064 131.535 282.808 132.524C282.752 132.742 282.148 132.854 282.153 132.884C282.161 132.953 282.558 133.02 282.649 133.162C282.946 133.638 282.469 134.232 282.618 134.704C282.692 134.937 283.157 135.317 283.234 135.572C283.297 135.772 283.023 136.191 283.226 136.316C283.348 136.393 283.769 136.499 283.81 136.575ZM277.569 130.394C278.261 130.438 277.693 130.135 277.318 130.234C277.234 130.257 277.389 130.38 277.569 130.394ZM278.874 116.509C278.676 116.512 278.479 116.516 278.281 116.519C278.363 116.558 278.446 116.597 278.528 116.636C278.647 116.613 278.766 116.591 278.885 116.568C278.881 116.549 278.878 116.529 278.874 116.509Z" fill="#884718"/>
<path d="M312.858 108.936C312.834 108.894 312.996 109.097 313.015 109.1C313.092 109.115 313.243 109.222 313.409 109.199C313.649 109.194 313.986 108.221 315.433 109.284C315.433 109.284 315.433 109.284 315.433 109.284C315.447 109.295 315.462 109.305 315.476 109.316C315.748 109.526 315.988 109.829 316.288 110.076C316.588 110.324 318.592 111.832 318.603 112.049C318.608 112.35 317.737 112.398 317.672 112.511C317.629 112.591 317.722 112.829 317.668 112.947C317.484 113.334 317.227 113.358 317.299 114.113C316.951 113.981 316.611 113.832 316.289 113.662C316.201 113.915 315.709 113.715 315.635 113.786C315.569 113.848 315.654 114.097 315.585 114.15C315.581 114.153 315.577 114.156 315.572 114.158L315.525 114.183C315.421 114.225 315.161 114.078 315.013 114.19C314.753 114.382 314.961 115.021 314.808 115.175C314.657 115.33 314.247 115.09 314.115 115.385C314.112 115.465 314.107 115.544 314.103 115.624C314.177 115.776 314.251 115.928 314.325 116.079C314.232 116.193 314.08 115.882 313.977 115.909C313.856 115.941 313.892 116.271 313.815 116.294C313.751 116.313 313.585 116.091 313.503 116.134C313.395 116.191 313.53 116.543 313.486 116.63C313.466 116.666 313.054 117.005 313.025 117.016C312.822 117.091 312.671 116.597 312.497 116.6C312.028 116.606 311.689 117.131 311.332 117.39C311.176 117.506 310.968 117.53 310.779 117.495C310.714 116.147 309.844 115.315 310.6 117.251C310.328 117.019 310.324 117.597 310.12 117.553C309.985 117.524 309.83 117.269 309.655 117.322C309.362 117.414 309.228 118.289 308.77 116.887C308.491 117.227 308.04 116.791 308.231 118.082C308.162 118.182 307.74 117.491 307.611 117.415C307.482 117.346 306.663 117.192 306.531 117.204C306.401 117.217 306.182 117.25 306.111 117.385C306.018 117.554 306.255 118.883 305.642 117.412C305.398 117.605 305.298 117.583 305.009 117.466C304.957 117.445 304.895 117.219 304.869 117.226C304.815 117.239 304.765 117.429 304.673 117.474C304.52 117.547 304.308 117.093 304.507 117.818C304.426 117.968 304.361 118.113 304.287 118.261C304.216 118.13 304.145 117.998 304.074 117.866C304.057 118.033 304.039 118.2 304.021 118.367C303.827 117.295 303.585 118.016 303.863 118.59C303.603 118.422 303.341 118.255 303.092 118.085C302.826 116.877 302.617 118.055 302.815 118.698C302.792 118.702 302.768 118.707 302.745 118.712C302.462 118.443 302.329 118.752 302.039 118.596C301.743 118.442 301.736 118.32 301.526 117.786C301.476 117.832 301.426 117.877 301.375 117.923C301.441 119.511 300.834 116.882 300.612 118.167C300.216 117.255 299.927 117.855 299.716 118.212C299.692 118.254 299.736 118.439 299.706 118.506C299.636 118.668 299.322 118.493 299.475 119.087C299.343 118.937 299.21 118.786 299.077 118.636C299.029 118.763 298.981 118.889 298.932 119.016C298.977 119.202 299.023 119.387 299.068 119.573C298.763 118.976 298.581 119.278 298.424 119.156C298.393 119.131 298.327 118.875 298.239 118.823C298.137 118.759 298.001 118.873 297.882 118.817C297.913 119.11 297.943 119.404 297.973 119.698C297.832 119.895 297.586 119.16 297.466 119.128C297.445 119.122 297.107 119.261 297.091 119.282C296.964 119.447 297.164 120.075 296.696 120.044C296.612 120.038 296.495 119.832 296.423 119.84C296.294 119.854 296.034 120.448 296.115 120.919C295.818 120.377 295.467 120.713 295.311 120.573C295.262 120.53 295.165 120.162 295.036 120.11C294.931 120.068 294.771 120.42 294.644 120.398C294.509 120.373 294.39 120.074 294.329 120.065C294.272 120.057 294.285 120.319 294.213 120.335C294.112 120.355 293.995 120.295 293.881 120.226L293.49 120.283C293.37 120.173 293.256 120.051 293.157 120.051C292.897 120.053 292.707 120.827 292.509 121.176C292.454 121.129 292.393 120.968 292.337 120.969C291.638 120.98 290.859 120.877 290.144 120.747C289.814 120.687 288.971 119.688 289.262 121.406C289.16 121.714 288.308 121.054 288.156 121.05C288.003 121.046 287.891 121.362 287.767 121.372C287.396 121.401 287.126 121.189 286.694 121.478C286.579 121.553 286.469 121.925 286.399 121.924C286.315 121.921 286.211 121.57 286.103 121.552C285.844 121.512 285.38 121.647 285.126 121.596C285.081 121.586 285.052 121.275 284.984 121.18C284.719 120.809 284.443 120.853 284.531 121.846C284.197 121.293 283.91 121.82 283.616 121.863C283.002 121.95 281.844 121.759 281.309 122.195C280.974 122.471 281.003 122.917 280.476 122.548C280.36 122.466 280.244 122.355 280.105 122.257C279.785 122.027 279.455 121.212 279.243 122.213C278.883 121.966 278.603 122.157 278.313 121.315C278.288 121.52 278.263 121.724 278.237 121.929C278.194 121.935 278.151 121.942 278.108 121.948C278.089 121.754 278.07 121.56 278.051 121.366C277.748 121.322 277.356 122.132 277.098 122.133C276.655 122.136 275.497 121.854 275.079 121.601C274.848 121.467 274.846 121.883 274.699 121.03C274.651 121.091 274.602 121.151 274.554 121.212C274.528 121.4 274.501 121.588 274.474 121.776C274.192 121.79 273.834 121.506 273.572 121.514C273.061 121.53 272.342 122.059 271.824 121.727C271.697 121.644 271.544 121.259 271.414 121.266C271.233 121.274 271.198 121.916 270.978 121.931C270.576 121.956 269.844 121.219 269.48 121.279C269.367 121.296 269.315 121.535 269.24 121.561C268.931 121.673 268.654 121.655 268.358 122.025C268.025 121.412 268.047 120.618 267.948 119.817C267.875 119.213 267.627 117.812 267.607 117.283C267.586 116.911 267.662 116.432 267.633 116.023C268.028 115.696 268.172 116.055 268.491 116.63C269.069 116.604 269.652 116.576 270.228 116.547C270.283 116.77 270.344 116.993 270.397 117.215C270.397 117.216 270.397 117.216 270.397 117.217C270.616 117.472 270.706 116.896 270.828 116.763C271.953 115.5 274.238 116.436 275.507 116.546C275.791 116.569 276.663 116.246 276.862 116.604C276.912 116.697 276.935 117.041 276.986 117.055C277.441 116.837 277.898 116.62 278.355 116.401C279.315 116.909 280.295 116.436 281.241 116.321C283.825 116.01 286.367 115.636 288.922 115.602C289.413 115.596 290.023 115.31 290.516 115.453C290.718 115.512 290.827 116.061 291.071 115.636C291.081 115.785 291.091 115.934 291.101 116.083C291.323 115.892 291.454 115.546 291.713 115.498C291.931 115.459 292.498 115.409 292.695 115.456C292.797 115.479 292.774 115.759 292.867 115.753C292.957 115.746 293.098 115.616 293.245 115.501L292.759 115.572C292.857 115.462 292.958 115.362 293.053 115.339C293.251 115.291 293.655 115.524 293.791 115.443C294.274 115.157 294.772 114.547 295.364 114.535C295.529 114.532 295.812 114.835 295.859 114.813C295.953 114.769 295.9 114.421 295.956 114.361C296.24 114.058 296.851 114.338 297.169 114.278C298.256 114.07 299.311 113.656 300.386 113.459C301.044 113.34 302.134 113.009 302.816 113.113C302.96 113.136 303.017 113.517 303.126 113.491C303.247 113.461 303.245 113.194 303.3 113.158C303.676 112.914 304.478 112.444 304.914 112.609C304.996 112.641 305.12 112.921 305.161 112.909C305.181 112.904 305.18 112.692 305.245 112.654C305.805 112.323 306.269 112.329 306.861 112.251C308.018 112.095 309.211 111.392 310.401 111.277C310.672 111.248 310.987 111.778 311.027 111.761C311.103 111.727 311.045 111.327 311.166 111.189C311.578 110.732 312.375 110.935 312.717 110.596C312.89 110.429 312.932 109.863 312.985 109.711C313.005 109.667 313.049 109.649 313.099 109.633L313.018 109.678C313.175 109.607 313.254 109.594 313.188 109.464C313.127 109.343 312.885 108.983 312.858 108.936ZM309.391 117.045C309.253 116.365 309.027 117.018 309.259 117.342C309.312 117.415 309.427 117.221 309.391 117.045ZM291.346 119.803C291.359 120.001 291.373 120.198 291.386 120.396C291.432 120.311 291.478 120.226 291.525 120.142C291.49 120.024 291.456 119.907 291.422 119.789C291.397 119.794 291.372 119.798 291.346 119.803Z" fill="#884718"/>
<path d="M270.481 131.445C270.483 131.394 270.583 131.635 270.607 131.642C270.707 131.673 270.792 131.835 270.898 131.908C271.058 132.017 271.282 131.584 271.853 133.293C271.853 133.293 271.853 133.293 271.853 133.293C271.858 133.31 271.864 133.327 271.87 133.344C271.977 133.671 272.064 134.036 272.181 134.407C272.299 134.777 273.09 137.157 273.088 137.306C273.079 137.504 272.719 136.945 272.693 136.984C272.675 137.01 272.716 137.236 272.696 137.285C272.633 137.442 272.534 137.299 272.626 137.919C272.491 137.619 272.357 137.319 272.225 137.019C272.222 137.178 272.022 136.789 272.002 136.821C271.984 136.846 272.046 137.097 272.025 137.116C272.001 137.139 271.877 136.886 271.84 136.941C271.778 137.029 271.954 137.68 271.928 137.777C271.901 137.877 271.715 137.55 271.714 137.797C271.727 137.87 271.739 137.944 271.751 138.018C271.803 138.177 271.856 138.336 271.909 138.495C271.896 138.58 271.786 138.254 271.752 138.257C271.713 138.261 271.783 138.579 271.757 138.585C271.736 138.59 271.637 138.346 271.614 138.37C271.581 138.402 271.691 138.763 271.689 138.837C271.688 138.865 271.584 139.11 271.575 139.115C271.51 139.148 271.37 138.652 271.304 138.623C271.124 138.544 271.072 138.988 270.967 139.177C270.92 139.261 270.846 139.249 270.762 139.184C270.547 137.878 270.093 136.931 270.658 138.919C270.518 138.651 270.599 139.205 270.509 139.129C270.45 139.08 270.357 138.807 270.297 138.829C270.193 138.868 270.245 139.69 269.9 138.259C269.83 138.54 269.613 138.04 269.833 139.321C269.815 139.406 269.578 138.665 269.521 138.569C269.467 138.48 269.148 138.187 269.105 138.176C269.062 138.164 268.988 138.157 268.978 138.275C268.964 138.422 269.196 139.749 268.82 138.218C268.795 138.28 268.774 138.307 268.749 138.304C268.717 138.301 268.678 138.249 268.614 138.157C268.594 138.127 268.545 137.898 268.537 137.9C268.52 137.903 268.526 138.078 268.5 138.105C268.457 138.149 268.329 137.673 268.485 138.408C268.477 138.538 268.468 138.669 268.459 138.799C268.418 138.66 268.377 138.52 268.336 138.38C268.349 138.539 268.361 138.698 268.374 138.856C268.18 137.786 268.175 138.442 268.341 139.045C268.226 138.839 268.111 138.632 267.996 138.425C267.772 137.21 267.814 138.315 267.949 138.973C267.94 138.974 267.931 138.974 267.923 138.975C267.788 138.666 267.766 138.943 267.635 138.742C267.505 138.54 267.494 138.42 267.374 137.864C267.358 137.9 267.343 137.935 267.327 137.971C267.458 139.528 267.063 136.859 267.055 138.069C266.855 137.108 266.789 137.636 266.725 137.943C266.718 137.979 266.741 138.168 266.733 138.228C266.712 138.372 266.588 138.141 266.662 138.75C266.607 138.577 266.553 138.405 266.501 138.232C266.487 138.346 266.471 138.46 266.455 138.574C266.476 138.764 266.496 138.954 266.516 139.145C266.393 138.502 266.331 138.76 266.274 138.609C266.263 138.578 266.235 138.315 266.203 138.246C266.164 138.164 266.116 138.247 266.073 138.168C266.085 138.46 266.097 138.753 266.108 139.046C266.054 139.21 265.968 138.442 265.925 138.385C265.917 138.376 265.799 138.441 265.793 138.457C265.749 138.592 265.813 139.247 265.642 139.117C265.611 139.094 265.574 138.868 265.548 138.861C265.503 138.848 265.399 139.371 265.416 139.848C265.324 139.255 265.194 139.507 265.141 139.337C265.135 139.318 265.128 139.257 265.12 139.182L265.038 139.185C265.028 139.052 265.015 138.879 264.99 138.827C264.959 138.762 264.888 139.068 264.849 139.018C264.808 138.963 264.787 138.644 264.769 138.622C264.751 138.601 264.741 138.859 264.718 138.858C264.646 138.85 264.572 138.437 264.515 138.43C264.432 138.42 264.374 139.184 264.311 139.525C264.293 139.475 264.273 139.312 264.255 139.311C264.031 139.291 263.779 139.155 263.553 138.995C263.45 138.922 263.173 137.89 263.27 139.617C263.239 139.921 262.967 139.228 262.916 139.218C262.866 139.209 262.832 139.519 262.793 139.524C262.677 139.54 262.587 139.318 262.448 139.59C262.412 139.661 262.378 140.028 262.356 140.025C262.33 140.019 262.296 139.664 262.261 139.642C262.177 139.592 262.028 139.711 261.948 139.651C261.934 139.639 261.925 139.327 261.903 139.23C261.817 138.85 261.729 138.884 261.757 139.88C261.649 139.316 261.56 139.833 261.465 139.865C261.267 139.932 260.897 139.704 260.727 140.124C260.621 140.389 260.626 140.836 260.46 140.452C260.423 140.367 260.386 140.252 260.342 140.151C260.236 139.912 260.135 139.087 260.067 140.082C259.951 139.825 259.86 140.009 259.77 139.159C259.762 139.364 259.754 139.568 259.746 139.772C259.732 139.777 259.718 139.782 259.704 139.787C259.698 139.593 259.692 139.398 259.686 139.204C259.584 139.152 259.468 139.952 259.38 139.947C259.238 139.939 258.872 139.631 258.735 139.369C258.663 139.23 258.663 139.647 258.616 138.791C258.6 138.851 258.584 138.91 258.569 138.97C258.56 139.157 258.551 139.345 258.542 139.533C258.451 139.541 258.34 139.25 258.253 139.253C258.095 139.26 257.857 139.777 257.697 139.438C257.656 139.353 257.605 138.967 257.567 138.971C257.511 138.977 257.496 139.619 257.425 139.631C257.3 139.651 257.066 138.906 256.949 138.963C256.913 138.979 256.898 139.218 256.874 139.244C256.772 139.353 256.688 139.334 256.593 139.703C256.487 139.088 256.497 138.294 256.466 137.493C256.44 136.889 256.365 135.488 256.356 134.959C256.349 134.587 256.375 134.108 256.365 133.699C256.489 133.372 256.543 133.732 256.641 134.308C256.826 134.285 257.011 134.262 257.197 134.238C257.214 134.462 257.231 134.685 257.248 134.909C257.248 134.909 257.248 134.91 257.248 134.91C257.32 135.168 257.35 134.592 257.387 134.462C257.753 133.21 258.472 134.186 258.881 134.324C258.966 134.354 259.249 134.051 259.311 134.413C259.327 134.508 259.334 134.852 259.35 134.867C259.496 134.661 259.643 134.455 259.787 134.249C260.095 134.782 260.403 134.337 260.707 134.251C261.529 134.019 262.341 133.736 263.152 133.806C263.31 133.82 263.503 133.558 263.66 133.722C263.725 133.79 263.762 134.343 263.838 133.929C263.841 134.078 263.845 134.227 263.849 134.376C263.918 134.195 263.959 133.855 264.041 133.819C264.111 133.789 264.292 133.763 264.355 133.819C264.387 133.847 264.381 134.126 264.41 134.124C264.461 134.118 264.562 133.731 264.632 133.73C264.695 133.729 264.808 134.047 264.856 134C264.881 133.976 264.906 133.945 264.931 133.911L264.849 133.914C264.982 133.706 265.108 133.364 265.255 133.463C265.304 133.496 265.387 133.852 265.401 133.841C265.428 133.818 265.41 133.467 265.425 133.421C265.5 133.187 265.677 133.59 265.77 133.598C266.07 133.623 266.341 133.435 266.621 133.454C266.799 133.467 267.084 133.349 267.328 133.568C267.38 133.616 267.446 133.995 267.481 133.987C267.52 133.979 267.489 133.721 267.503 133.696C267.557 133.603 267.653 133.465 267.765 133.398C267.856 133.343 267.948 133.338 268.026 133.444C268.059 133.49 268.134 133.782 268.147 133.778C268.154 133.777 268.13 133.572 268.148 133.547C268.302 133.327 268.456 133.419 268.643 133.452C269.004 133.513 269.282 133.055 269.67 133.168C269.755 133.192 269.959 133.754 269.968 133.745C269.989 133.728 269.9 133.336 269.921 133.228C269.989 132.873 270.313 133.226 270.405 132.989C270.451 132.873 270.407 132.355 270.443 132.227C270.473 132.124 270.665 132.274 270.624 132.052C270.6 131.919 270.479 131.502 270.481 131.445ZM270.158 138.517C270.018 137.839 270.012 138.43 270.143 138.782C270.172 138.861 270.195 138.693 270.158 138.517ZM263.935 138.103C263.94 138.301 263.945 138.499 263.949 138.697C263.964 138.614 263.979 138.531 263.993 138.449C263.982 138.33 263.971 138.211 263.96 138.092C263.952 138.096 263.944 138.099 263.935 138.103Z" fill="#884718"/>
<path d="M275.003 129.233C274.999 129.183 275.098 129.423 275.116 129.432C275.19 129.47 275.268 129.634 275.349 129.714C275.47 129.833 275.566 129.441 276.135 131.151C276.135 131.152 276.135 131.152 276.135 131.152C276.141 131.168 276.147 131.185 276.152 131.202C276.26 131.528 276.362 131.89 276.482 132.259C276.602 132.628 277.397 135.007 277.418 135.148C277.442 135.336 277.156 134.754 277.146 134.787C277.14 134.81 277.197 135.031 277.194 135.075C277.185 135.215 277.106 135.066 277.26 135.668C277.137 135.365 277.015 135.062 276.892 134.759C276.917 134.91 276.743 134.515 276.736 134.542C276.731 134.565 276.808 134.811 276.8 134.827C276.791 134.845 276.68 134.589 276.669 134.637C276.651 134.715 276.866 135.353 276.872 135.442C276.878 135.533 276.718 135.201 276.768 135.435C276.789 135.506 276.81 135.578 276.831 135.649C276.891 135.805 276.949 135.962 277.008 136.119C277.02 136.197 276.898 135.877 276.883 135.876C276.864 135.874 276.967 136.183 276.956 136.185C276.947 136.187 276.847 135.946 276.841 135.965C276.833 135.992 276.966 136.345 276.982 136.414C276.987 136.441 276.999 136.659 276.997 136.663C276.976 136.686 276.793 136.204 276.756 136.17C276.654 136.077 276.743 136.489 276.751 136.655C276.754 136.73 276.72 136.711 276.666 136.643C276.215 135.402 275.746 134.484 276.548 136.387C276.412 136.125 276.603 136.65 276.544 136.572C276.505 136.521 276.385 136.261 276.365 136.277C276.33 136.308 276.606 137.075 276.019 135.726C276.038 135.821 276.017 135.818 276.006 135.835C275.987 135.864 275.998 135.952 276.316 136.714C276.336 136.792 275.992 136.098 275.934 136.008C275.881 135.923 275.623 135.655 275.595 135.647C275.567 135.638 275.523 135.634 275.553 135.746C275.589 135.884 276.121 137.122 275.442 135.7C275.449 135.836 275.414 135.802 275.297 135.654C275.276 135.627 275.18 135.414 275.176 135.416C275.167 135.42 275.22 135.585 275.212 135.612C275.198 135.656 274.984 135.212 275.289 135.899C275.322 136.022 275.353 136.146 275.385 136.27C275.32 136.14 275.255 136.01 275.191 135.879C275.244 136.029 275.297 136.178 275.349 136.327C274.928 135.325 275.112 135.944 275.383 136.507C275.256 136.317 275.129 136.127 275.004 135.936C274.524 134.797 274.867 135.839 275.135 136.455C275.13 136.456 275.125 136.457 275.12 136.458C274.954 136.172 275.023 136.434 274.89 136.251C274.759 136.066 274.717 135.953 274.487 135.433C274.489 135.468 274.49 135.502 274.492 135.537C275.022 137.003 274.019 134.499 274.369 135.647C273.975 134.749 274.093 135.256 274.149 135.553C274.155 135.587 274.224 135.764 274.237 135.822C274.268 135.962 274.131 135.752 274.351 136.325C274.27 136.166 274.189 136.007 274.109 135.847C274.134 135.957 274.159 136.067 274.184 136.176C274.251 136.356 274.319 136.535 274.386 136.714C274.127 136.114 274.169 136.366 274.092 136.228C274.077 136.2 273.985 135.953 273.946 135.89C273.901 135.816 273.897 135.9 273.85 135.83C273.943 136.107 274.034 136.385 274.126 136.663C274.144 136.825 273.87 136.103 273.83 136.054C273.823 136.045 273.775 136.121 273.777 136.138C273.79 136.272 274.016 136.889 273.881 136.787C273.856 136.769 273.77 136.558 273.753 136.554C273.724 136.546 273.812 137.061 273.957 137.516C273.737 136.96 273.73 137.219 273.653 137.063C273.629 137.015 273.51 136.654 273.463 136.584C273.425 136.527 273.472 136.832 273.433 136.79C273.392 136.745 273.287 136.443 273.27 136.425C273.254 136.408 273.322 136.657 273.307 136.66C273.261 136.665 273.1 136.281 273.064 136.284C273.058 136.284 273.055 136.297 273.055 136.32C273.058 136.472 273.199 137.074 273.247 137.368C273.222 137.323 273.165 137.169 273.154 137.171C273.012 137.188 272.825 137.096 272.652 136.975C272.57 136.92 272.151 135.96 272.645 137.617C272.703 137.915 272.368 137.284 272.338 137.281C272.307 137.278 272.364 137.584 272.342 137.594C272.276 137.626 272.173 137.422 272.158 137.705C272.155 137.778 272.224 138.14 272.21 138.139C272.193 138.137 272.088 137.797 272.063 137.781C272.003 137.743 271.945 137.879 271.885 137.83C271.874 137.821 271.795 137.519 271.76 137.427C271.622 137.069 271.58 137.114 271.83 138.078C271.635 137.544 271.706 138.057 271.66 138.101C271.561 138.192 271.301 138.016 271.3 138.446C271.3 138.718 271.404 139.152 271.224 138.799C271.184 138.72 271.137 138.613 271.089 138.519C270.977 138.299 270.737 137.508 270.92 138.486C270.798 138.25 270.789 138.44 270.55 137.622C270.591 137.822 270.631 138.022 270.672 138.222C270.665 138.229 270.659 138.236 270.652 138.242C270.606 138.053 270.56 137.864 270.513 137.675C270.447 137.637 270.557 138.432 270.508 138.437C270.428 138.447 270.158 138.19 270.027 137.95C269.957 137.823 270.047 138.23 269.836 137.4C269.84 137.46 269.844 137.52 269.849 137.58C269.885 137.764 269.921 137.948 269.957 138.132C269.908 138.151 269.785 137.88 269.738 137.894C269.653 137.919 269.636 138.452 269.476 138.14C269.435 138.062 269.324 137.69 269.304 137.699C269.274 137.712 269.406 138.34 269.37 138.361C269.306 138.395 269.019 137.695 268.968 137.765C268.952 137.785 268.995 138.02 268.988 138.048C268.957 138.167 268.908 138.158 268.936 138.53C268.746 137.942 268.579 137.166 268.388 136.388C268.244 135.801 267.899 134.442 267.779 133.927C267.694 133.565 267.605 133.094 267.511 132.696C267.507 132.362 267.613 132.707 267.793 133.257C267.888 133.212 267.984 133.168 268.079 133.123C268.136 133.339 268.194 133.555 268.252 133.771C268.252 133.772 268.252 133.772 268.252 133.773C268.347 134.016 268.238 133.45 268.23 133.318C268.156 132.053 268.756 132.922 269.004 133.01C269.058 133.029 269.141 132.701 269.254 133.047C269.283 133.137 269.363 133.473 269.375 133.485C269.408 133.267 269.44 133.05 269.471 132.832C269.753 133.316 269.818 132.847 269.958 132.729C270.337 132.408 270.686 132.041 271.101 132.013C271.182 132.008 271.207 131.733 271.325 131.873C271.374 131.93 271.54 132.459 271.466 132.051C271.508 132.194 271.549 132.337 271.591 132.48C271.577 132.297 271.503 131.965 271.532 131.92C271.556 131.884 271.634 131.837 271.678 131.883C271.698 131.904 271.759 132.116 271.783 132.161C271.786 132.167 271.788 132.17 271.789 132.169C271.812 132.157 271.746 131.774 271.777 131.765C271.805 131.756 271.95 132.047 271.958 131.995C271.987 131.813 271.918 131.334 272.037 131.428C272.071 131.454 272.218 131.786 272.222 131.774C272.229 131.749 272.117 131.417 272.111 131.371C272.079 131.14 272.29 131.508 272.341 131.506C272.507 131.503 272.605 131.3 272.775 131.3C272.884 131.3 273.015 131.177 273.213 131.378C273.256 131.422 273.404 131.776 273.421 131.769C273.44 131.761 273.346 131.518 273.347 131.495C273.348 131.334 273.38 131.033 273.552 131.247C273.584 131.288 273.715 131.56 273.722 131.555C273.726 131.554 273.65 131.362 273.653 131.338C273.68 131.123 273.807 131.197 273.946 131.214C273.972 131.216 273.995 131.215 274.018 131.21C274.237 131.161 274.361 130.791 274.641 130.884C274.709 130.907 274.954 131.451 274.959 131.443C274.969 131.426 274.838 131.047 274.835 130.943C274.827 130.598 275.115 130.949 275.144 130.725C275.159 130.615 275.058 130.111 275.069 129.988C275.078 129.89 275.232 130.048 275.177 129.831C275.143 129.7 275.008 129.288 275.003 129.233ZM276.213 135.979C275.951 135.337 276.121 135.89 276.284 136.225C276.321 136.3 276.281 136.145 276.213 135.979ZM272.638 136.058C272.694 136.248 272.75 136.438 272.805 136.628C272.792 136.546 272.778 136.464 272.764 136.382C272.726 136.27 272.687 136.157 272.649 136.044C272.645 136.049 272.642 136.053 272.638 136.058Z" fill="#884718"/>
<path d="M305.342 128.292C305.39 128.338 305.131 128.404 305.117 128.458C305.057 128.687 304.878 128.772 304.776 128.979C304.624 129.286 304.965 130.195 303.163 130.195C303.163 130.195 303.163 130.195 303.163 130.195C303.145 130.195 303.127 130.195 303.109 130.194C302.766 130.191 302.391 130.114 302.003 130.102C301.614 130.091 299.107 130.1 298.966 129.99C298.78 129.831 299.423 129.449 299.394 129.364C299.375 129.306 299.147 129.235 299.106 129.161C298.976 128.922 299.142 128.797 298.523 128.582C298.849 128.496 299.176 128.409 299.502 128.323C299.35 128.211 299.781 128.04 299.757 127.972C299.737 127.916 299.479 127.884 299.467 127.826C299.452 127.76 299.731 127.659 299.688 127.541C299.621 127.345 298.947 127.312 298.862 127.196C298.773 127.074 299.138 126.886 298.901 126.731C298.827 126.712 298.753 126.693 298.679 126.674C298.511 126.688 298.344 126.702 298.176 126.717C298.098 126.639 298.441 126.605 298.447 126.534C298.455 126.449 298.129 126.408 298.13 126.351C298.132 126.305 298.392 126.242 298.376 126.181C298.353 126.094 297.976 126.114 297.906 126.068C297.878 126.049 297.669 125.703 297.666 125.684C297.65 125.537 298.166 125.52 298.21 125.401C298.331 125.071 297.912 124.738 297.752 124.437C297.68 124.302 297.709 124.163 297.79 124.026C299.112 124.225 300.133 123.742 298.07 123.942C298.362 123.79 297.804 123.689 297.896 123.547C297.956 123.454 298.242 123.388 298.232 123.257C298.214 123.025 297.395 122.791 298.865 122.695C298.6 122.43 299.128 122.181 297.827 122.118C297.746 122.052 298.515 121.855 298.618 121.774C298.715 121.697 299.045 121.128 299.06 121.036C299.063 121.019 299.066 120.999 299.068 120.979C299.077 120.886 299.068 120.773 298.972 120.714C298.827 120.625 297.479 120.636 299.042 120.38C298.903 120.193 298.943 120.121 299.113 119.929C299.144 119.894 299.376 119.873 299.375 119.854C299.372 119.816 299.195 119.759 299.168 119.693C299.125 119.581 299.609 119.474 298.861 119.552C298.729 119.489 298.597 119.427 298.465 119.368C298.607 119.328 298.748 119.288 298.89 119.248C298.729 119.225 298.567 119.202 298.406 119.182C299.493 119.111 298.824 118.903 298.214 119.065C298.422 118.902 298.628 118.736 298.831 118.561C300.059 118.417 298.927 118.213 298.265 118.338C298.264 118.32 298.262 118.302 298.261 118.284C298.564 118.082 298.275 117.964 298.465 117.707C298.558 117.582 298.635 117.518 298.755 117.472L298.747 117.382C298.874 117.345 299.047 117.324 299.335 117.275C299.299 117.232 299.264 117.189 299.228 117.145C297.657 117.009 300.352 116.875 299.132 116.545C300.101 116.351 299.566 116.063 299.255 115.872C299.219 115.85 299.029 115.862 298.968 115.833C298.822 115.76 299.052 115.543 298.441 115.592C298.613 115.509 298.784 115.425 298.956 115.341C298.841 115.29 298.726 115.242 298.61 115.193C298.42 115.207 298.229 115.221 298.038 115.235C298.68 115.074 298.416 114.903 298.566 114.805C298.596 114.785 298.859 114.762 298.927 114.702C299.007 114.631 298.92 114.514 298.997 114.429C298.703 114.42 298.409 114.412 298.115 114.404C297.946 114.28 298.712 114.173 298.766 114.086C298.775 114.07 298.699 113.805 298.682 113.794C298.542 113.687 297.889 113.773 298.002 113.419C298.023 113.357 298.246 113.29 298.251 113.235C298.259 113.139 297.72 112.882 297.243 112.903C297.829 112.741 297.559 112.442 297.723 112.336C297.773 112.304 298.152 112.266 298.225 112.174C298.285 112.099 297.966 111.946 298.009 111.852C298.055 111.751 298.371 111.691 298.39 111.647C298.407 111.607 298.147 111.593 298.144 111.539C298.138 111.372 298.537 111.176 298.532 111.043C298.527 110.852 297.751 110.751 297.398 110.619C297.443 110.573 297.603 110.518 297.6 110.477C297.576 109.962 297.658 109.354 297.768 108.822C297.819 108.571 298.788 107.862 297.084 108.201C296.775 108.152 297.403 107.459 297.402 107.347C297.4 107.231 297.082 107.171 297.068 107.079C297.024 106.797 297.226 106.59 296.921 106.28C296.841 106.201 296.466 106.147 296.464 106.094C296.463 106.029 296.809 105.926 296.823 105.845C296.853 105.652 296.697 105.307 296.737 105.113C296.745 105.077 297.053 105.031 297.145 104.973C297.503 104.747 297.446 104.542 296.461 104.691C296.996 104.391 296.456 104.214 296.4 104.006C296.283 103.549 296.414 102.67 295.948 102.306C295.655 102.074 295.213 102.143 295.55 101.719C295.625 101.625 295.73 101.527 295.818 101.412C296.027 101.139 296.819 100.822 295.811 100.763C296.034 100.468 295.826 100.277 296.645 99.9724C296.44 99.9738 296.235 99.9751 296.03 99.9765C296.02 99.9435 296.011 99.9119 296.002 99.8808C296.194 99.8469 296.386 99.813 296.578 99.779C296.601 99.5434 295.771 99.3473 295.752 99.1473C295.718 98.8011 295.921 97.9323 296.139 97.5718C296.256 97.3822 295.842 97.4322 296.679 97.228C296.615 97.1988 296.552 97.1695 296.488 97.1402C296.299 97.1409 296.11 97.1417 295.921 97.1424C295.886 96.9315 296.142 96.6398 296.113 96.4335C296.057 96.0512 295.475 95.5804 295.761 95.1543C295.834 95.0487 296.201 94.8789 296.185 94.7865C296.162 94.6563 295.521 94.7084 295.487 94.5427C295.43 94.2586 296.096 93.6102 296.002 93.3395C295.975 93.2612 295.734 93.2551 295.701 93.2027C295.561 92.9832 295.554 92.7866 295.158 92.6074C295.735 92.28 296.524 92.1947 297.307 92.0113C297.899 91.8726 299.263 91.5059 299.784 91.4093C300.15 91.3416 300.633 91.3447 301.035 91.2648C301.4 91.5209 301.06 91.6936 300.521 92.0097C300.603 92.448 300.684 92.8779 300.766 93.3239C300.55 93.3937 300.334 93.4633 300.117 93.5328C300.117 93.5329 300.117 93.5329 300.116 93.533C299.883 93.7363 300.463 93.732 300.604 93.8056C301.96 94.5177 301.214 96.3679 301.196 97.3526C301.193 97.5672 301.576 98.1936 301.235 98.3896C301.145 98.4387 300.805 98.4919 300.795 98.5334C301.043 98.8651 301.288 99.171 301.536 99.5097C301.094 100.299 301.624 100.992 301.792 101.71C302.25 103.66 302.74 105.58 302.861 107.547C302.882 107.915 303.189 108.38 303.06 108.765C303.006 108.928 302.462 109.046 302.892 109.206C302.744 109.223 302.596 109.239 302.447 109.256C302.643 109.408 302.993 109.499 303.046 109.693C303.09 109.854 303.154 110.299 303.111 110.451C303.089 110.53 302.809 110.527 302.817 110.597C302.832 110.712 303.241 110.951 303.255 111.116C303.269 111.265 302.972 111.558 303.029 111.67C303.229 112.074 303.743 112.507 303.652 112.966C303.626 113.094 303.279 113.287 303.292 113.324C303.319 113.399 303.67 113.394 303.719 113.441C303.967 113.687 303.582 114.125 303.584 114.383C303.592 115.218 303.804 116.091 303.794 116.916C303.794 116.957 303.794 116.999 303.795 117.044L303.784 116.923C303.795 117.256 303.971 118.17 303.774 118.679C303.729 118.801 303.343 118.806 303.353 118.902C303.363 119.005 303.627 119.04 303.652 119.087C303.831 119.414 304.142 120.148 303.89 120.47C303.842 120.532 303.543 120.591 303.546 120.625C303.547 120.642 303.754 120.673 303.778 120.729C303.784 120.745 303.791 120.761 303.797 120.777C303.977 121.24 303.873 121.594 303.816 122.052C303.705 122.961 304.099 123.99 303.899 124.929C303.855 125.132 303.26 125.277 303.267 125.305C303.279 125.368 303.68 125.405 303.78 125.532C304.107 125.954 303.682 126.524 303.884 126.924C303.983 127.122 304.492 127.394 304.605 127.588C304.695 127.744 304.496 128.112 304.72 128.181C304.855 128.223 305.288 128.242 305.342 128.292ZM298.564 123.113C299.258 123.129 298.677 122.853 298.307 122.966C298.224 122.992 298.385 123.109 298.564 123.113ZM298.742 109.666C298.545 109.687 298.348 109.709 298.151 109.731C298.237 109.76 298.322 109.788 298.408 109.819C298.525 109.786 298.641 109.753 298.757 109.721C298.752 109.702 298.747 109.684 298.742 109.666Z" fill="#8E4510"/>
<path d="M287.386 133.31C287.426 133.365 287.16 133.398 287.138 133.452C287.044 133.68 286.853 133.739 286.718 133.931C286.522 134.217 286.686 135.185 284.917 134.832C284.917 134.832 284.917 134.832 284.917 134.832C284.899 134.828 284.882 134.825 284.864 134.821C284.528 134.751 284.175 134.606 283.795 134.521C283.416 134.437 280.954 133.962 280.833 133.845C280.676 133.677 281.368 133.471 281.352 133.393C281.341 133.339 281.127 133.24 281.097 133.172C281.002 132.95 281.184 132.869 280.598 132.6C280.932 132.577 281.265 132.554 281.598 132.525C281.462 132.411 281.907 132.323 281.891 132.262C281.878 132.212 281.625 132.151 281.619 132.101C281.611 132.046 281.898 131.991 281.867 131.887C281.818 131.712 281.151 131.618 281.075 131.516C280.996 131.412 281.374 131.289 281.146 131.148C281.074 131.127 281.001 131.106 280.928 131.086C280.76 131.085 280.592 131.084 280.424 131.083C280.351 131.018 280.695 131.017 280.705 130.961C280.716 130.896 280.393 130.847 280.397 130.805C280.4 130.77 280.663 130.737 280.648 130.69C280.629 130.623 280.251 130.623 280.182 130.587C280.156 130.57 279.954 130.322 279.95 130.31C279.936 130.209 280.452 130.201 280.497 130.115C280.618 129.876 280.191 129.658 280.018 129.473C280.001 129.455 279.989 129.436 279.981 129.417L280.018 129.707C279.978 129.609 279.993 129.499 280.04 129.388C281.375 129.374 282.316 128.765 280.305 129.264C280.572 129.074 280.005 129.061 280.076 128.908C280.123 128.809 280.396 128.703 280.369 128.577C280.319 128.355 279.477 128.215 280.924 127.942C280.629 127.709 281.128 127.408 279.827 127.473C279.739 127.411 280.484 127.134 280.579 127.043C280.668 126.956 280.953 126.348 280.965 126.254C280.975 126.159 280.982 125.995 280.861 125.926C280.713 125.842 279.364 125.877 280.92 125.577C280.777 125.383 280.817 125.306 280.987 125.106C281.018 125.07 281.251 125.051 281.25 125.031C281.248 124.99 281.071 124.933 281.046 124.86C281.004 124.742 281.492 124.648 280.742 124.702C280.729 124.694 280.717 124.687 280.704 124.68L280.714 124.802C280.594 124.752 280.474 124.7 280.354 124.646C280.496 124.605 280.637 124.563 280.778 124.521C280.617 124.498 280.455 124.473 280.294 124.448C281.379 124.373 280.712 124.176 280.102 124.33C280.31 124.169 280.517 123.987 280.725 123.823C281.956 123.71 280.833 123.496 280.168 123.596C280.167 123.58 280.166 123.563 280.165 123.546C280.474 123.356 280.194 123.265 280.393 123.063C280.593 122.862 280.714 122.864 281.273 122.745C281.236 122.706 281.198 122.667 281.162 122.631C279.589 122.592 282.275 122.333 281.044 122.085C282.004 121.855 281.461 121.627 281.143 121.46C281.106 121.441 280.917 121.462 280.855 121.438C280.706 121.374 280.928 121.167 280.32 121.241C280.489 121.157 280.658 121.072 280.827 120.987C280.71 120.946 280.593 120.906 280.476 120.864C280.286 120.886 280.096 120.908 279.905 120.93C280.541 120.747 280.273 120.605 280.418 120.507C280.448 120.487 280.71 120.454 280.775 120.394C280.854 120.325 280.763 120.223 280.837 120.141C280.543 120.146 280.249 120.152 279.955 120.157C279.783 120.046 280.545 119.91 280.595 119.828C280.604 119.814 280.521 119.577 280.503 119.565C280.361 119.471 279.711 119.579 279.814 119.244C279.833 119.185 280.054 119.111 280.057 119.06C280.063 118.971 279.52 118.762 279.043 118.795C279.624 118.619 279.347 118.351 279.508 118.247C279.558 118.215 279.935 118.165 280.006 118.077C280.064 118.006 279.743 117.876 279.784 117.788C279.829 117.695 280.142 117.627 280.16 117.585C280.177 117.546 279.917 117.541 279.912 117.491C279.903 117.33 280.299 117.145 280.292 117.02C280.283 116.841 279.506 116.772 279.152 116.661C279.197 116.618 279.355 116.562 279.352 116.522C279.32 116.044 279.395 115.48 279.5 114.981C279.548 114.746 280.511 114.069 278.811 114.421C278.502 114.381 279.126 113.73 279.124 113.622C279.121 113.514 278.803 113.465 278.788 113.382C278.744 113.129 278.945 112.921 278.639 112.644C278.559 112.572 278.184 112.53 278.183 112.482C278.182 112.424 278.527 112.32 278.541 112.243C278.57 112.061 278.414 111.746 278.455 111.569C278.463 111.537 278.771 111.488 278.862 111.432C279.22 111.214 279.163 111.025 278.179 111.179C278.713 110.891 278.176 110.748 278.12 110.548C278.003 110.124 278.137 109.307 277.675 108.984C277.384 108.778 276.941 108.839 277.28 108.443C277.356 108.355 277.46 108.264 277.55 108.158C277.76 107.907 278.554 107.601 277.546 107.557C277.771 107.281 277.566 107.111 278.386 106.821C278.181 106.825 277.976 106.829 277.771 106.833C277.762 106.804 277.753 106.774 277.744 106.745C277.936 106.711 278.128 106.677 278.32 106.643C278.344 106.421 277.517 106.254 277.5 106.068C277.47 105.762 277.677 104.936 277.9 104.617C278.018 104.447 277.604 104.493 278.442 104.293C278.378 104.266 278.314 104.239 278.251 104.212C278.062 104.215 277.873 104.218 277.685 104.22C277.651 104.023 277.91 103.757 277.882 103.57C277.83 103.222 277.252 102.788 277.541 102.397C277.614 102.301 277.983 102.143 277.967 102.062C277.945 101.94 277.305 101.995 277.271 101.841C277.216 101.582 277.884 100.975 277.793 100.739C277.767 100.67 277.525 100.668 277.492 100.618C277.352 100.411 277.347 100.241 276.952 100.089C277.527 99.7731 278.315 99.6777 279.097 99.4902C279.687 99.3488 281.048 98.9825 281.568 98.8807C281.933 98.8091 282.415 98.7963 282.817 98.7128C283.18 98.9294 282.843 99.1096 282.306 99.4161C282.387 99.8157 282.468 100.222 282.549 100.635C282.333 100.705 282.117 100.771 281.9 100.838C281.9 100.838 281.899 100.838 281.899 100.838C281.665 101.026 282.244 101.014 282.385 101.081C283.736 101.721 282.977 103.446 282.951 104.348C282.947 104.548 283.324 105.125 282.981 105.305C282.892 105.351 282.551 105.404 282.541 105.442C282.786 105.743 283.029 106.032 283.274 106.333C282.826 107.062 283.35 107.692 283.515 108.353C283.96 110.132 284.447 111.892 284.577 113.681C284.602 114.024 284.91 114.435 284.785 114.789C284.733 114.936 284.19 115.06 284.622 115.197C284.474 115.217 284.326 115.236 284.178 115.256C284.376 115.396 284.725 115.46 284.78 115.635C284.826 115.781 284.896 116.185 284.855 116.326C284.835 116.399 284.555 116.405 284.564 116.47C284.582 116.581 284.992 116.769 285.01 116.926C285.027 117.067 284.735 117.338 284.794 117.439C285.002 117.8 285.524 118.171 285.445 118.594C285.422 118.714 285.08 118.901 285.094 118.936C285.123 119.002 285.474 118.983 285.524 119.024C285.777 119.227 285.407 119.656 285.416 119.885C285.45 120.651 285.692 121.432 285.712 122.191C285.726 122.68 285.875 123.467 285.66 123.935C285.614 124.04 285.229 124.055 285.238 124.135C285.247 124.223 285.51 124.241 285.535 124.278C285.538 124.282 285.541 124.286 285.544 124.29L285.554 124.42C285.716 124.689 286.004 125.233 285.766 125.497C285.72 125.549 285.423 125.61 285.427 125.639C285.428 125.653 285.636 125.667 285.661 125.71C285.883 126.089 285.796 126.386 285.777 126.786C285.749 127.382 286.058 128.017 286.17 128.677L286.197 128.887C286.217 129.122 286.215 129.363 286.177 129.592C286.141 129.82 285.546 129.978 285.553 130.007C285.566 130.071 285.967 130.112 286.066 130.248C286.391 130.712 285.934 131.295 286.099 131.72C286.181 131.931 286.66 132.264 286.748 132.481C286.82 132.657 286.574 133.008 286.785 133.11C286.913 133.171 287.339 133.25 287.386 133.31ZM280.679 128.39C281.368 128.314 280.757 128.122 280.405 128.28C280.325 128.316 280.5 128.411 280.679 128.39ZM280.481 115.739C280.285 115.764 280.089 115.79 279.892 115.816C279.978 115.841 280.064 115.866 280.15 115.891C280.266 115.858 280.382 115.824 280.498 115.791C280.492 115.773 280.487 115.756 280.481 115.739Z" fill="#8E4510"/>
<path d="M32.186 70.518C29.5303 90.1649 56.1861 114.518 56.1861 114.518C56.1861 114.518 98.064 95.6359 101.186 73.0181C103.825 53.899 96.4181 38.8502 78.186 32.518C56.1749 24.8733 35.3074 47.4271 32.186 70.518Z" fill="#C3651E"/>
<path d="M56.1861 114.518C56.1861 114.518 41.5654 114.656 39.1861 121.018C36.793 127.417 43.2282 131.176 49.1861 134.518C55.8473 138.255 63.0006 138.907 67.1861 132.518C71.9954 125.177 56.1861 114.518 56.1861 114.518Z" fill="#F8E9CC"/>
<path d="M56.1861 114.518C56.1861 114.518 29.5303 90.1649 32.186 70.518C35.3074 47.4271 56.1749 24.8733 78.186 32.518C96.4181 38.8502 103.825 53.899 101.186 73.0181C98.064 95.6359 56.1861 114.518 56.1861 114.518ZM56.1861 114.518C56.1861 114.518 41.5654 114.656 39.1861 121.018C36.793 127.417 43.2282 131.176 49.1861 134.518C55.8473 138.255 63.0006 138.907 67.1861 132.518C71.9954 125.177 56.1861 114.518 56.1861 114.518Z" stroke="#3F2613" stroke-width="8"/>
<path d="M111.618 84.1428C111.618 84.1428 86.9628 100.186 86.1176 116.143C85.621 125.519 86.4707 132.512 93.1176 139.143C103.071 149.072 116.005 144.214 129.118 139.143C141.761 134.253 152.708 129.483 155.118 116.143C157.385 103.594 151.798 93.6098 141.118 86.6428C131.434 80.3261 111.618 84.1428 111.618 84.1428Z" fill="#FEB82D" stroke="#3F2613" stroke-width="8"/>
<path d="M120.74 111.262C120.718 111.218 120.897 111.406 120.916 111.408C120.998 111.417 121.129 111.542 121.234 111.587C121.389 111.654 121.34 111.25 122.501 112.628C122.501 112.629 122.501 112.629 122.501 112.629C122.512 112.642 122.524 112.656 122.535 112.67C122.756 112.933 122.983 113.232 123.231 113.531C123.479 113.829 125.096 115.746 125.166 115.871C125.256 116.039 124.77 115.607 124.772 115.642C124.774 115.667 124.908 115.852 124.92 115.895C124.959 116.033 124.828 115.925 125.186 116.433C124.96 116.197 124.734 115.961 124.507 115.725C124.583 115.858 124.274 115.556 124.277 115.585C124.279 115.609 124.439 115.811 124.436 115.83C124.433 115.852 124.234 115.654 124.239 115.705C124.246 115.788 124.673 116.308 124.706 116.392C124.74 116.479 124.469 116.229 124.592 116.435C124.636 116.495 124.681 116.554 124.725 116.614C124.835 116.74 124.946 116.866 125.056 116.992C125.092 117.064 124.864 116.807 124.847 116.813C124.826 116.821 125.028 117.077 125.016 117.084C125.006 117.091 124.826 116.901 124.825 116.923C124.823 116.954 125.07 117.239 125.106 117.301C125.12 117.325 125.189 117.539 125.187 117.544C125.168 117.579 124.834 117.187 124.782 117.171C124.641 117.13 124.845 117.502 124.889 117.671C124.909 117.747 124.862 117.747 124.784 117.705C123.974 116.662 123.223 115.951 124.587 117.503C124.369 117.302 124.708 117.745 124.62 117.696C124.563 117.664 124.366 117.455 124.346 117.482C124.311 117.531 124.787 118.194 123.827 117.08C123.942 117.322 123.553 116.952 124.371 117.961C124.409 118.033 123.876 117.47 123.793 117.402C123.715 117.339 123.381 117.163 123.35 117.164C123.32 117.164 123.275 117.174 123.333 117.274C123.405 117.397 124.26 118.439 123.212 117.263C123.255 117.393 123.212 117.37 123.057 117.261C123.03 117.241 122.878 117.063 122.874 117.066C122.866 117.073 122.964 117.216 122.963 117.244C122.962 117.29 122.632 116.925 123.119 117.498C123.185 117.607 123.25 117.716 123.316 117.826C123.217 117.719 123.119 117.613 123.02 117.506C123.113 117.634 123.207 117.762 123.301 117.89C122.61 117.05 122.965 117.589 123.386 118.051C123.211 117.904 123.037 117.757 122.862 117.61C122.07 116.661 122.705 117.556 123.144 118.065C123.14 118.067 123.136 118.069 123.131 118.071C122.89 117.845 123.036 118.074 122.857 117.936C122.679 117.798 122.605 117.703 122.228 117.277C122.24 117.309 122.253 117.341 122.265 117.373C123.224 118.603 121.494 116.533 122.187 117.512C121.532 116.783 121.803 117.228 121.954 117.489C121.971 117.519 122.094 117.664 122.125 117.715C122.201 117.835 122.005 117.681 122.401 118.149C122.273 118.024 122.146 117.9 122.018 117.776C122.079 117.87 122.14 117.965 122.2 118.059C122.324 118.206 122.447 118.352 122.57 118.498C122.128 118.018 122.255 118.239 122.137 118.134C122.114 118.113 121.943 117.911 121.886 117.865C121.818 117.81 121.846 117.889 121.778 117.839C121.96 118.067 122.143 118.296 122.326 118.524C122.401 118.668 121.895 118.085 121.841 118.052C121.831 118.047 121.816 118.132 121.824 118.147C121.886 118.266 122.316 118.764 122.16 118.711C122.132 118.701 121.976 118.535 121.96 118.536C121.931 118.539 122.208 118.981 122.51 119.349C122.103 118.912 122.201 119.149 122.072 119.032C122.032 118.996 121.786 118.706 121.718 118.658C121.662 118.618 121.824 118.88 121.774 118.855C121.721 118.828 121.509 118.589 121.486 118.578C121.465 118.569 121.624 118.772 121.613 118.779C121.575 118.8 121.278 118.507 121.248 118.522C121.204 118.544 121.663 119.155 121.85 119.44C121.811 119.409 121.698 119.29 121.689 119.296C121.574 119.361 121.372 119.347 121.167 119.306C121.073 119.287 120.291 118.591 121.435 119.888C121.614 120.133 121.048 119.698 121.02 119.709C120.991 119.719 121.173 119.971 121.158 119.989C121.114 120.044 120.934 119.904 121.043 120.165C121.072 120.233 121.291 120.528 121.279 120.533C121.263 120.539 121.022 120.278 120.992 120.273C120.923 120.265 120.93 120.411 120.855 120.394C120.841 120.39 120.638 120.153 120.566 120.086C120.285 119.825 120.267 119.884 120.915 120.64C120.506 120.245 120.796 120.675 120.774 120.735C120.726 120.86 120.414 120.819 120.606 121.204C120.727 121.447 121.016 121.788 120.695 121.554C120.624 121.502 120.534 121.427 120.449 121.365C120.249 121.22 119.676 120.624 120.281 121.414C120.065 121.259 120.142 121.433 119.557 120.814C119.684 120.974 119.811 121.134 119.938 121.294C119.935 121.303 119.932 121.312 119.929 121.321C119.802 121.174 119.675 121.026 119.547 120.879C119.469 120.877 119.928 121.536 119.887 121.563C119.818 121.609 119.455 121.508 119.227 121.358C119.105 121.278 119.372 121.598 118.802 120.958C118.833 121.01 118.864 121.061 118.896 121.113C119.012 121.26 119.128 121.407 119.245 121.554C119.209 121.594 118.973 121.412 118.936 121.447C118.869 121.511 119.096 121.995 118.806 121.796C118.734 121.745 118.462 121.468 118.448 121.486C118.426 121.512 118.833 122.008 118.809 122.045C118.766 122.106 118.182 121.623 118.167 121.711C118.162 121.736 118.308 121.925 118.314 121.954C118.339 122.075 118.29 122.092 118.484 122.41C118.042 121.979 117.535 121.369 117.004 120.768C116.604 120.315 115.668 119.272 115.323 118.871C115.08 118.589 114.784 118.213 114.516 117.903C114.361 117.606 114.616 117.862 115.032 118.265C115.101 118.177 115.169 118.089 115.238 118.001C115.389 118.166 115.541 118.33 115.692 118.495C115.693 118.495 115.693 118.496 115.693 118.496C115.891 118.666 115.534 118.215 115.467 118.1C114.827 117.004 115.783 117.479 116.056 117.433C116.114 117.423 116.048 117.086 116.309 117.341C116.377 117.407 116.601 117.669 116.618 117.674C116.552 117.462 116.486 117.249 116.42 117.037C116.901 117.331 116.757 116.875 116.842 116.696C117.069 116.212 117.262 115.695 117.68 115.451C117.761 115.404 117.684 115.131 117.861 115.2C117.934 115.228 118.302 115.642 118.075 115.294C118.171 115.408 118.268 115.522 118.364 115.635C118.281 115.47 118.084 115.193 118.099 115.135C118.111 115.087 118.18 115 118.244 115.021C118.277 115.03 118.451 115.248 118.463 115.236C118.483 115.213 118.284 114.877 118.315 114.851C118.344 114.827 118.599 115.032 118.591 114.978C118.564 114.785 118.343 114.349 118.51 114.375C118.556 114.383 118.819 114.634 118.82 114.62C118.82 114.592 118.598 114.32 118.579 114.278C118.481 114.063 118.825 114.318 118.883 114.29C119.073 114.201 119.139 113.946 119.335 113.865C119.458 113.814 119.581 113.63 119.841 113.756C119.897 113.783 120.139 114.081 120.156 114.068C120.174 114.052 120.016 113.846 120.011 113.822C119.975 113.661 119.935 113.351 120.161 113.508C120.205 113.538 120.406 113.762 120.412 113.756C120.415 113.753 120.29 113.59 120.286 113.565C120.255 113.348 120.397 113.386 120.529 113.367C120.781 113.329 120.726 112.875 121.034 112.887C121.101 112.889 121.511 113.323 121.512 113.314C121.516 113.295 121.265 112.982 121.225 112.886C121.095 112.571 121.476 112.808 121.422 112.592C121.395 112.485 121.119 112.053 121.083 111.936C121.054 111.842 121.251 111.937 121.12 111.755C121.041 111.646 120.766 111.311 120.74 111.262ZM124.104 117.248C123.663 116.714 123.979 117.2 124.239 117.468C124.298 117.528 124.218 117.387 124.104 117.248ZM120.775 118.479C120.903 118.63 121.031 118.781 121.159 118.932C121.113 118.863 121.067 118.794 121.021 118.725C120.94 118.637 120.86 118.55 120.779 118.462C120.778 118.468 120.776 118.473 120.775 118.479Z" fill="#FEB82D"/>
<path d="M127.098 116.214C127.114 116.169 127.032 116.415 127.028 116.428C127.006 116.484 126.948 116.654 126.894 116.746C126.862 116.815 126.76 116.749 126.684 116.905C126.603 117.061 126.733 117.429 126.733 118.329C126.733 118.329 126.733 118.329 126.733 118.329C126.733 118.347 126.733 118.365 126.733 118.383C126.731 118.726 126.694 119.101 126.688 119.489C126.679 119.878 126.687 122.386 126.6 122.526C126.473 122.715 126.099 122.042 126.032 122.055C125.975 122.066 125.866 122.28 125.784 122.305C125.516 122.384 125.462 122.196 125.094 122.732C125.112 122.396 125.147 122.064 125.194 121.735C125.063 121.85 125.102 121.405 125.052 121.411C125.012 121.417 124.897 121.649 124.855 121.645C124.805 121.641 124.856 121.36 124.769 121.369C124.634 121.384 124.335 121.987 124.232 122.034C124.12 122.081 124.17 121.7 123.981 121.872C123.938 121.933 123.895 121.994 123.851 122.056C123.786 122.21 123.72 122.365 123.655 122.519C123.576 122.567 123.708 122.25 123.67 122.224C123.624 122.193 123.457 122.473 123.425 122.455C123.4 122.441 123.482 122.19 123.441 122.188C123.383 122.183 123.222 122.524 123.164 122.573C123.142 122.593 122.852 122.676 122.842 122.673C122.754 122.644 122.987 122.184 122.95 122.112C122.838 121.912 122.464 122.181 122.235 122.232C122.13 122.253 122.076 122.188 122.05 122.078C122.811 120.993 123.098 119.973 122.15 121.81C122.221 121.512 121.894 121.967 121.871 121.844C121.857 121.764 121.969 121.498 121.904 121.469C121.839 121.44 121.641 121.622 121.604 121.564C121.577 121.52 121.651 121.326 121.971 120.761C121.709 120.907 121.877 120.384 121.157 121.467C121.083 121.515 121.399 120.801 121.419 120.69C121.437 120.586 121.356 120.126 121.326 120.084C121.294 120.041 121.23 119.977 121.134 120.051C121.015 120.143 120.271 121.267 121.025 119.881C120.864 119.931 120.854 119.871 120.867 119.663C120.869 119.625 120.992 119.426 120.983 119.42C120.964 119.409 120.841 119.535 120.796 119.532C120.722 119.526 120.953 119.09 120.558 119.73C120.455 119.814 120.352 119.897 120.249 119.981C120.314 119.85 120.379 119.72 120.444 119.589C120.34 119.711 120.236 119.832 120.132 119.953C120.737 119.049 120.257 119.504 119.966 120.059C120.017 119.825 120.069 119.591 120.12 119.357C120.795 118.322 120.044 119.139 119.695 119.713C119.688 119.707 119.68 119.701 119.673 119.696C119.781 119.375 119.572 119.559 119.606 119.319C119.641 119.079 119.714 118.983 119.997 118.489C119.96 118.504 119.922 118.519 119.885 118.533C118.934 119.774 120.418 117.521 119.592 118.409C120.069 117.552 119.649 117.892 119.395 118.08C119.365 118.102 119.261 118.261 119.214 118.301C119.102 118.396 119.147 118.133 118.813 118.647C118.879 118.479 118.946 118.31 119.012 118.142C118.926 118.218 118.84 118.295 118.753 118.371C118.648 118.531 118.543 118.691 118.438 118.851C118.745 118.273 118.527 118.429 118.574 118.273C118.583 118.241 118.727 118.02 118.742 117.944C118.761 117.854 118.665 117.884 118.677 117.793C118.502 118.028 118.327 118.263 118.153 118.498C118.004 118.59 118.409 117.932 118.407 117.859C118.406 117.845 118.259 117.814 118.243 117.824C118.12 117.898 117.77 118.455 117.698 118.238C117.685 118.199 117.79 117.996 117.771 117.972C117.738 117.93 117.323 118.273 117.047 118.662C117.328 118.132 117.054 118.242 117.11 118.071C117.127 118.019 117.337 117.702 117.345 117.61C117.351 117.534 117.103 117.734 117.092 117.665C117.083 117.592 117.247 117.317 117.241 117.286C117.236 117.257 117.075 117.46 117.053 117.443C116.984 117.385 117.151 116.997 117.097 116.951C117.02 116.884 116.516 117.464 116.254 117.696C116.264 117.643 116.34 117.496 116.322 117.482C116.108 117.307 115.933 117.015 115.8 116.724C115.737 116.589 116.07 115.558 115.149 117.024C114.939 117.246 115.073 116.488 115.028 116.444C114.984 116.4 114.765 116.625 114.723 116.601C114.594 116.527 114.64 116.285 114.337 116.401C114.258 116.431 114.004 116.701 113.984 116.682C113.96 116.657 114.138 116.348 114.117 116.305C114.064 116.204 113.839 116.186 113.796 116.079C113.789 116.059 113.967 115.803 114.003 115.709C114.145 115.341 114.036 115.303 113.465 116.119C113.696 115.587 113.293 115.932 113.178 115.886C112.933 115.786 112.703 115.324 112.266 115.516C112.175 115.557 112.084 115.624 112.007 115.679C111.849 115.788 111.742 115.849 111.787 115.559C111.803 115.463 111.835 115.342 111.852 115.226C111.892 114.952 112.309 114.231 111.61 114.945C111.656 114.652 111.441 114.714 111.893 113.986C111.755 114.136 111.615 114.285 111.476 114.435C111.458 114.427 111.44 114.419 111.423 114.411C111.541 114.257 111.66 114.102 111.779 113.948C111.712 113.827 111.069 114.331 110.985 114.253C110.84 114.121 110.662 113.554 110.7 113.232C110.72 113.062 110.433 113.364 110.972 112.696C110.915 112.725 110.859 112.754 110.803 112.783C110.666 112.911 110.527 113.039 110.389 113.166C110.287 113.082 110.375 112.764 110.285 112.679C110.121 112.529 109.497 112.628 109.579 112.215C109.602 112.113 109.837 111.797 109.796 111.758C109.736 111.699 109.24 112.107 109.156 112.028C109.008 111.888 109.364 111.143 109.22 111.046C109.176 111.016 108.971 111.142 108.93 111.129C108.753 111.077 108.699 110.97 108.322 111.079C108.738 110.605 109.392 110.155 110.02 109.655C110.493 109.278 111.581 108.391 112.004 108.072C112.301 107.849 112.71 107.598 113.036 107.35C113.389 107.281 113.127 107.533 112.725 107.961C112.861 108.109 112.987 108.236 113.114 108.356C112.951 108.509 112.789 108.664 112.627 108.819C112.627 108.82 112.627 108.82 112.626 108.82C112.474 109.041 112.936 108.695 113.058 108.637C114.208 108.068 113.963 109.202 114.227 109.62C114.278 109.706 114.707 109.678 114.524 109.998C114.477 110.082 114.258 110.348 114.263 110.372C114.522 110.322 114.782 110.271 115.04 110.216C114.98 110.763 115.396 110.748 115.721 110.828C115.771 110.84 115.819 110.854 115.864 110.874C116.766 111.278 117.709 111.619 118.455 112.242C118.6 112.363 118.942 112.286 118.998 112.527C119.021 112.628 118.734 113.101 119.051 112.819C118.967 112.943 118.883 113.066 118.8 113.189C118.975 113.091 119.213 112.843 119.314 112.871C119.399 112.894 119.592 113 119.621 113.088C119.636 113.133 119.468 113.356 119.498 113.375C119.551 113.405 119.875 113.16 119.944 113.207C120.007 113.249 119.934 113.587 120.009 113.581C120.276 113.563 120.731 113.295 120.846 113.525C120.877 113.59 120.743 113.935 120.765 113.937C120.808 113.941 121.012 113.655 121.058 113.631C121.292 113.513 121.229 113.972 121.326 114.055C121.641 114.328 122.09 114.439 122.399 114.715C122.595 114.89 122.989 115.07 123.049 115.42C123.062 115.496 122.845 115.813 122.882 115.836C122.922 115.862 123.083 115.656 123.113 115.65C123.324 115.61 123.751 115.568 123.732 115.869C123.729 115.927 123.587 116.193 123.602 116.201C123.609 116.206 123.734 116.041 123.768 116.037C124.061 116 124.142 116.19 124.299 116.368C124.375 116.455 124.48 116.518 124.587 116.563C124.899 116.697 125.285 116.726 125.483 117.01C125.538 117.092 125.313 117.648 125.327 117.648C125.358 117.652 125.563 117.307 125.661 117.247C125.977 117.048 125.997 117.538 126.225 117.423C126.337 117.366 126.633 116.941 126.722 116.857C126.796 116.791 126.797 117.005 126.88 116.797C126.931 116.672 127.078 116.265 127.098 116.214ZM122.008 121.142C122.375 120.554 121.945 120.968 121.806 121.318C121.774 121.397 121.913 121.295 122.008 121.142ZM116.707 116.275C116.596 116.438 116.485 116.602 116.374 116.766C116.437 116.709 116.499 116.653 116.562 116.596C116.621 116.492 116.679 116.387 116.737 116.283C116.727 116.28 116.717 116.277 116.707 116.275Z" fill="#FEB82D"/>
<path d="M111.554 125.332C111.599 125.353 111.344 125.303 111.328 125.31C111.258 125.341 111.08 125.314 110.971 125.33C110.808 125.354 111.094 125.616 109.346 125.179C109.346 125.179 109.346 125.179 109.346 125.179C109.329 125.175 109.311 125.17 109.294 125.166C108.961 125.082 108.601 124.976 108.225 124.88C107.849 124.783 105.415 124.177 105.284 124.121C105.112 124.044 105.754 124.125 105.731 124.101C105.715 124.085 105.497 124.015 105.462 123.991C105.347 123.912 105.515 123.928 104.925 123.735C105.245 123.797 105.566 123.859 105.887 123.921C105.746 123.862 106.172 123.933 106.152 123.914C106.136 123.898 105.887 123.829 105.879 123.814C105.867 123.798 106.143 123.845 106.108 123.812C106.052 123.757 105.401 123.586 105.323 123.542C105.244 123.497 105.608 123.548 105.386 123.46C105.315 123.438 105.244 123.417 105.173 123.395C105.01 123.357 104.847 123.319 104.684 123.281C104.612 123.247 104.946 123.323 104.956 123.311C104.968 123.296 104.654 123.208 104.658 123.198C104.662 123.189 104.918 123.24 104.905 123.224C104.888 123.201 104.521 123.113 104.455 123.087C104.43 123.076 104.245 122.957 104.243 122.952C104.236 122.919 104.737 123.041 104.787 123.029C104.923 122.993 104.535 122.825 104.398 122.726C104.336 122.682 104.372 122.661 104.459 122.654C105.729 123.016 106.749 123.171 104.736 122.706C105.029 122.747 104.493 122.59 104.592 122.585C104.656 122.581 104.937 122.638 104.937 122.61C104.934 122.559 104.157 122.311 105.587 122.654C105.349 122.537 105.879 122.619 104.624 122.284C104.55 122.251 105.31 122.402 105.416 122.412C105.516 122.421 105.883 122.39 105.907 122.376C105.931 122.362 105.959 122.334 105.853 122.291C105.721 122.237 104.418 121.896 105.954 122.243C105.841 122.171 105.888 122.167 106.076 122.173C106.109 122.174 106.336 122.23 106.338 122.226C106.34 122.218 106.176 122.162 106.159 122.142C106.132 122.109 106.612 122.214 105.883 122.034C105.764 121.988 105.646 121.941 105.528 121.894C105.67 121.924 105.812 121.953 105.954 121.983C105.803 121.936 105.652 121.889 105.501 121.842C106.553 122.116 105.946 121.899 105.336 121.768C105.562 121.791 105.788 121.814 106.014 121.838C107.212 122.142 106.169 121.803 105.516 121.647C105.518 121.643 105.52 121.64 105.522 121.636C105.848 121.685 105.595 121.591 105.818 121.606C106.042 121.621 106.157 121.654 106.712 121.78C106.682 121.763 106.653 121.746 106.624 121.73C105.124 121.304 107.739 121.967 106.6 121.596C107.556 121.808 107.073 121.62 106.796 121.505C106.763 121.492 106.579 121.446 106.524 121.425C106.391 121.375 106.638 121.393 106.043 121.246C106.219 121.275 106.394 121.304 106.57 121.333C106.465 121.294 106.359 121.256 106.254 121.217C106.068 121.171 105.883 121.124 105.697 121.078C106.336 121.213 106.102 121.115 106.257 121.135C106.289 121.139 106.545 121.203 106.618 121.209C106.704 121.217 106.634 121.173 106.718 121.178C106.436 121.101 106.154 121.024 105.872 120.947C105.725 120.881 106.476 121.058 106.538 121.056C106.549 121.056 106.509 120.989 106.494 120.982C106.373 120.927 105.733 120.774 105.887 120.74C105.914 120.734 106.138 120.779 106.149 120.77C106.17 120.755 105.684 120.571 105.223 120.451C105.808 120.572 105.587 120.45 105.759 120.473C105.811 120.48 106.181 120.571 106.263 120.574C106.331 120.576 106.045 120.466 106.098 120.461C106.157 120.455 106.469 120.526 106.493 120.523C106.515 120.52 106.267 120.45 106.271 120.44C106.288 120.408 106.698 120.478 106.712 120.453C106.734 120.417 106.002 120.198 105.681 120.083C105.731 120.087 105.892 120.119 105.895 120.111C105.945 120.013 106.111 119.929 106.295 119.864C106.38 119.834 107.416 119.965 105.73 119.577C105.441 119.487 106.148 119.534 106.164 119.513C106.18 119.492 105.884 119.398 105.884 119.379C105.884 119.32 106.111 119.335 105.866 119.203C105.802 119.168 105.45 119.06 105.457 119.051C105.466 119.04 105.814 119.113 105.84 119.102C105.899 119.076 105.803 118.977 105.872 118.955C105.885 118.951 106.188 119.024 106.285 119.038C106.664 119.093 106.643 119.043 105.675 118.809C106.235 118.898 105.746 118.729 105.726 118.677C105.687 118.567 105.956 118.453 105.57 118.27C105.327 118.154 104.893 118.047 105.286 118.064C105.373 118.068 105.489 118.08 105.593 118.084C105.838 118.094 106.65 118.25 105.694 117.973C105.958 117.982 105.791 117.895 106.626 118.062C106.429 118.008 106.232 117.954 106.036 117.9C106.032 117.892 106.029 117.884 106.026 117.876C106.215 117.921 106.404 117.967 106.593 118.012C106.656 117.978 105.895 117.724 105.911 117.686C105.936 117.622 106.28 117.527 106.55 117.527C106.694 117.528 106.29 117.425 107.126 117.614C107.07 117.592 107.014 117.57 106.958 117.548C106.777 117.498 106.597 117.447 106.416 117.397C106.419 117.353 106.714 117.372 106.722 117.331C106.735 117.255 106.262 117.018 106.609 117.026C106.697 117.028 107.078 117.098 107.078 117.079C107.079 117.051 106.458 116.888 106.455 116.852C106.451 116.789 107.201 116.861 107.16 116.792C107.148 116.771 106.918 116.706 106.896 116.688C106.802 116.614 106.83 116.58 106.484 116.445C107.093 116.545 107.861 116.742 108.642 116.921C109.232 117.056 110.599 117.361 111.114 117.484C111.476 117.571 111.937 117.7 112.335 117.794C112.638 117.932 112.282 117.869 111.712 117.777C111.712 117.871 111.712 117.964 111.713 118.057C111.494 118.011 111.275 117.965 111.056 117.919C111.056 117.919 111.055 117.918 111.055 117.918C110.796 117.89 111.351 118.043 111.473 118.093C112.643 118.571 111.608 118.676 111.423 118.833C111.384 118.867 111.642 119.075 111.283 119.015C111.19 118.999 110.855 118.918 110.838 118.922C111.02 119.041 111.201 119.161 111.382 119.28C110.827 119.294 111.219 119.549 111.263 119.714C111.382 120.159 111.549 120.612 111.373 120.976C111.338 121.046 111.565 121.203 111.385 121.236C111.311 121.249 110.771 121.128 111.161 121.268C111.016 121.232 110.871 121.196 110.727 121.16C110.893 121.239 111.216 121.343 111.24 121.391C111.259 121.43 111.259 121.523 111.196 121.538C111.165 121.546 110.896 121.473 110.894 121.487C110.892 121.512 111.253 121.657 111.245 121.69C111.237 121.72 110.913 121.693 110.953 121.728C111.092 121.851 111.531 122.057 111.385 122.115C111.344 122.13 110.986 122.074 110.993 122.084C111.01 122.104 111.349 122.194 111.391 122.215C111.599 122.321 111.174 122.3 111.146 122.346C111.053 122.496 111.158 122.706 111.055 122.853C110.99 122.946 111.007 123.132 110.727 123.163C110.667 123.169 110.295 123.071 110.291 123.088C110.286 123.107 110.536 123.18 110.554 123.194C110.681 123.291 110.902 123.491 110.63 123.485C110.577 123.483 110.283 123.418 110.283 123.425C110.282 123.429 110.479 123.486 110.497 123.502C110.654 123.64 110.521 123.679 110.43 123.753C110.257 123.895 110.577 124.19 110.33 124.323C110.277 124.352 109.692 124.235 109.696 124.242C109.705 124.257 110.092 124.363 110.182 124.411C110.476 124.573 110.034 124.582 110.209 124.709C110.295 124.772 110.775 124.949 110.875 125.015C110.954 125.067 110.743 125.091 110.956 125.159C111.085 125.2 111.504 125.309 111.554 125.332ZM105.268 122.663C105.939 122.836 105.395 122.639 105.028 122.571C104.946 122.555 105.094 122.618 105.268 122.663ZM107.107 120.266C106.915 120.218 106.723 120.171 106.531 120.124C106.609 120.151 106.687 120.179 106.765 120.206C106.882 120.231 106.998 120.255 107.114 120.28C107.112 120.275 107.11 120.271 107.107 120.266Z" fill="#CE831E"/>
<path d="M137.981 118.081C138.024 118.104 137.77 118.051 137.753 118.06C137.681 118.096 137.502 118.068 137.391 118.088C137.226 118.118 137.499 118.415 135.76 117.94C135.76 117.94 135.76 117.94 135.76 117.94C135.743 117.936 135.725 117.931 135.708 117.926C135.377 117.835 135.02 117.719 134.646 117.614C134.272 117.509 131.852 116.851 131.723 116.789C131.554 116.704 132.198 116.786 132.176 116.759C132.16 116.741 131.945 116.665 131.91 116.637C131.799 116.548 131.968 116.563 131.384 116.351C131.704 116.417 132.024 116.484 132.345 116.55C132.206 116.484 132.631 116.559 132.613 116.537C132.598 116.519 132.351 116.444 132.343 116.427C132.332 116.408 132.607 116.459 132.574 116.42C132.521 116.358 131.874 116.173 131.799 116.123C131.721 116.072 132.086 116.125 131.867 116.028C131.797 116.004 131.727 115.98 131.656 115.956C131.494 115.915 131.332 115.874 131.169 115.833C131.099 115.795 131.432 115.877 131.443 115.862C131.455 115.845 131.144 115.749 131.149 115.737C131.153 115.727 131.409 115.781 131.397 115.763C131.381 115.737 131.016 115.642 130.951 115.612C130.926 115.601 130.747 115.466 130.745 115.461C130.74 115.423 131.239 115.556 131.29 115.54C131.429 115.496 131.049 115.309 130.916 115.197C130.857 115.147 130.894 115.122 130.983 115.112C132.242 115.51 133.262 115.673 131.26 115.168C131.552 115.211 131.022 115.038 131.121 115.03C131.187 115.025 131.467 115.086 131.468 115.054C131.468 114.996 130.7 114.721 132.123 115.095C131.89 114.963 132.42 115.049 131.174 114.682C131.102 114.644 131.859 114.807 131.965 114.817C132.066 114.826 132.439 114.785 132.464 114.769C132.489 114.752 132.52 114.719 132.415 114.671C132.285 114.61 130.992 114.235 132.521 114.614C132.411 114.532 132.459 114.527 132.648 114.531C132.682 114.532 132.908 114.593 132.909 114.589C132.912 114.579 132.75 114.517 132.734 114.494C132.709 114.456 133.188 114.571 132.463 114.374C132.347 114.321 132.23 114.269 132.114 114.216C132.256 114.249 132.397 114.281 132.539 114.313C132.389 114.261 132.24 114.208 132.09 114.156C133.135 114.458 132.536 114.217 131.928 114.073C132.155 114.096 132.382 114.12 132.609 114.144C133.798 114.48 132.769 114.102 132.119 113.929C132.121 113.925 132.124 113.921 132.126 113.917C132.452 113.969 132.203 113.864 132.428 113.878C132.652 113.893 132.767 113.929 133.318 114.068C133.29 114.049 133.261 114.03 133.233 114.011C131.748 113.537 134.343 114.273 133.218 113.857C134.17 114.091 133.695 113.879 133.423 113.749C133.391 113.734 133.208 113.683 133.154 113.66C133.023 113.603 133.272 113.622 132.681 113.457C132.857 113.489 133.032 113.52 133.207 113.552C133.104 113.508 133 113.465 132.897 113.421C132.713 113.369 132.528 113.317 132.344 113.265C132.98 113.415 132.75 113.305 132.906 113.326C132.938 113.331 133.192 113.401 133.265 113.408C133.352 113.416 133.285 113.367 133.369 113.371C133.09 113.284 132.81 113.198 132.531 113.111C132.387 113.035 133.133 113.234 133.196 113.231C133.207 113.231 133.172 113.153 133.157 113.146C133.039 113.082 132.404 112.911 132.562 112.869C132.591 112.862 132.813 112.913 132.826 112.902C132.848 112.884 132.371 112.674 131.914 112.538C132.496 112.674 132.282 112.533 132.455 112.558C132.507 112.566 132.873 112.67 132.957 112.672C133.025 112.674 132.744 112.548 132.799 112.541C132.859 112.534 133.168 112.615 133.193 112.611C133.216 112.608 132.97 112.528 132.975 112.516C132.996 112.478 133.405 112.557 133.421 112.528C133.446 112.486 132.724 112.234 132.409 112.102C132.46 112.106 132.62 112.142 132.624 112.133C132.683 112.016 132.859 111.916 133.052 111.84C133.141 111.803 134.176 111.956 132.508 111.502C132.223 111.396 132.935 111.448 132.953 111.424C132.972 111.399 132.681 111.288 132.684 111.265C132.691 111.195 132.919 111.212 132.685 111.054C132.624 111.012 132.279 110.883 132.287 110.871C132.298 110.858 132.642 110.945 132.67 110.932C132.733 110.901 132.647 110.782 132.72 110.754C132.734 110.749 133.033 110.839 133.13 110.856C133.507 110.924 133.491 110.865 132.538 110.576C133.096 110.688 132.621 110.478 132.608 110.414C132.583 110.279 132.874 110.136 132.511 109.903C132.282 109.753 131.858 109.611 132.257 109.636C132.345 109.642 132.462 109.655 132.568 109.661C132.817 109.674 133.615 109.891 132.693 109.514C132.962 109.528 132.81 109.41 133.629 109.644C133.439 109.568 133.25 109.493 133.06 109.417C133.059 109.407 133.057 109.396 133.056 109.386C133.24 109.449 133.423 109.513 133.607 109.577C133.622 109.567 133.601 109.544 133.559 109.513C133.405 109.394 132.965 109.162 132.986 109.119C133.03 109.026 133.42 108.886 133.702 108.895C133.852 108.899 133.471 108.73 134.269 109.042C134.219 109.007 134.169 108.973 134.12 108.938C133.951 108.856 133.782 108.774 133.614 108.69C133.639 108.616 133.941 108.655 133.97 108.587C134.02 108.467 133.675 108.007 134.075 108.001C134.172 108.003 134.536 108.151 134.557 108.111C134.591 108.048 134.066 107.676 134.129 107.567C134.239 107.373 135.109 107.488 135.365 107.242C135.44 107.167 135.356 106.936 135.422 106.865C135.7 106.567 136.09 106.434 136.446 106.005C136.954 106.557 136.883 107.376 136.978 108.168C137.042 108.771 137.065 110.172 137.072 110.702C137.076 111.074 137.063 111.552 137.068 111.961C137.047 112.289 137.314 111.927 137.434 111.305C137.683 111.263 137.955 111.142 138.115 111.041C138.281 110.937 138.374 110.855 138.437 110.802C138.279 110.643 138.116 110.49 137.949 110.342C137.948 110.341 137.948 110.341 137.948 110.341C137.76 110.163 138.215 110.515 138.33 110.579C138.877 110.891 138.963 110.87 138.839 110.881C138.72 110.881 138.418 110.872 138.322 110.923C138.28 110.945 138.516 111.168 138.167 111.066C138.076 111.039 137.753 110.919 137.736 110.921C137.825 110.994 137.913 111.067 138.002 111.14C138.081 111.204 138.161 111.268 138.24 111.332C137.686 111.292 138.051 111.593 138.08 111.768C138.157 112.246 138.289 112.745 138.083 113.146C138.043 113.223 138.26 113.401 138.076 113.434C138 113.449 137.465 113.308 137.848 113.468C137.705 113.427 137.561 113.385 137.418 113.344C137.579 113.433 137.898 113.553 137.918 113.606C137.935 113.651 137.928 113.755 137.864 113.771C137.832 113.78 137.566 113.696 137.563 113.712C137.559 113.741 137.912 113.905 137.902 113.943C137.892 113.976 137.567 113.944 137.605 113.983C137.736 114.123 138.165 114.355 138.013 114.42C137.971 114.438 137.613 114.375 137.621 114.386C137.636 114.409 137.972 114.51 138.012 114.533C138.215 114.653 137.788 114.63 137.757 114.682C137.653 114.852 137.745 115.09 137.631 115.257C137.559 115.364 137.565 115.574 137.281 115.612C137.219 115.62 136.851 115.511 136.845 115.53C136.839 115.552 137.086 115.633 137.104 115.649C137.226 115.759 137.436 115.984 137.162 115.98C137.109 115.979 136.816 115.908 136.815 115.916C136.814 115.92 137.01 115.983 137.027 116.001C137.177 116.157 137.04 116.202 136.943 116.289C136.759 116.453 137.064 116.787 136.807 116.943C136.751 116.977 136.168 116.851 136.172 116.859C136.18 116.876 136.564 116.991 136.651 117.046C136.939 117.227 136.491 117.243 136.66 117.387C136.744 117.458 137.217 117.654 137.314 117.728C137.391 117.787 137.176 117.817 137.387 117.892C137.515 117.937 137.931 118.055 137.981 118.081ZM131.799 115.11C132.466 115.3 131.929 115.08 131.563 115.007C131.481 114.99 131.626 115.061 131.799 115.11ZM133.837 112.309C133.647 112.254 133.456 112.199 133.266 112.144C133.343 112.176 133.419 112.208 133.496 112.239C133.611 112.268 133.727 112.296 133.843 112.325C133.841 112.319 133.839 112.314 133.837 112.309Z" fill="#CE831E"/>
<path d="M115.015 77.2828C115.015 77.2828 114.146 52.164 125.515 48.7828C132.417 46.7301 137.425 48.9407 143.515 52.7828C149.267 56.4113 148.87 62.4906 154.515 66.2828C159.487 69.6228 164.699 67.1303 169.015 71.2828C173.512 75.6083 174.632 80.0447 174.515 86.2828C174.329 96.2011 159.515 106.783 159.515 106.783C159.515 106.783 154.396 98.8492 150.015 94.7828C145.689 90.7666 142.83 88.8528 137.515 86.2828C130.778 83.0247 119.015 81.2828 119.015 81.2828L115.015 77.2828Z" fill="#8B9927" stroke="#3F2613" stroke-width="8"/>
</svg>
