<svg width="285" height="235" viewBox="0 0 285 235" fill="none" xmlns="http://www.w3.org/2000/svg">
<path d="M108.131 96.4119C102.923 95.5076 97.5694 96.7014 93.2395 99.7324L36.8774 139.186C22.6783 149.125 26.9817 171.189 43.8752 175.064L47.5 175.896L182.188 206.79C189.448 208.456 197.032 205.948 201.869 200.283L250.778 143V143C257.941 134.61 253.254 121.613 242.385 119.726L108.131 96.4119Z" fill="#F3EEC1"/>
<path d="M250.778 143L201.869 200.283C197.032 205.948 189.448 208.456 182.188 206.79L47.5 175.896C47.5 175.896 51.8806 184.949 56.4357 192.18C58.0497 194.743 60.3817 196.754 63.0802 198.128C103.627 218.776 146.416 225.887 182.94 230.286C186.892 230.762 190.93 230.086 194.289 227.949C220.637 211.183 236.5 177.5 236.5 177.5L250.778 143Z" fill="#FAEBC9"/>
<path d="M250.778 143L201.869 200.283C197.032 205.948 189.448 208.456 182.188 206.79L47.5 175.896M250.778 143V143C257.941 134.61 253.254 121.613 242.385 119.726L108.131 96.4119C102.923 95.5076 97.5694 96.7014 93.2395 99.7324L36.8774 139.186C22.6783 149.125 26.9817 171.189 43.8752 175.064L47.5 175.896M250.778 143L236.5 177.5C236.5 177.5 220.637 211.183 194.289 227.949C190.93 230.086 186.892 230.762 182.94 230.286C146.416 225.887 103.627 218.776 63.0802 198.128C60.3817 196.754 58.0497 194.743 56.4357 192.18C51.8806 184.949 47.5 175.896 47.5 175.896" stroke="#3F2613" stroke-width="8"/>
<path d="M106.396 109.841C103.544 109.307 100.601 110.037 98.3305 111.843L56.9596 144.739C50.4097 149.947 52.772 160.417 60.9237 162.307L112.684 174.314L169.328 121.634L106.396 109.841Z" fill="black"/>
<path d="M178.938 189.683C182.448 190.497 186.124 189.36 188.561 186.708L224.551 147.542C229.864 141.761 226.747 132.393 219.03 130.947L169.328 121.634L112.684 174.314L178.938 189.683Z" fill="#AD6C27"/>
<path d="M169.328 121.634L219.03 130.947C226.747 132.393 229.864 141.761 224.551 147.542L188.561 186.708C186.124 189.36 182.448 190.497 178.938 189.683L112.684 174.314M169.328 121.634L106.396 109.841C103.544 109.307 100.601 110.037 98.3305 111.843L56.9596 144.739C50.4097 149.947 52.772 160.417 60.9237 162.307L112.684 174.314M169.328 121.634L112.684 174.314" stroke="#3F2613" stroke-width="8"/>
<path d="M148.173 164.533C148.2 164.492 148.116 164.737 148.121 164.754C148.142 164.827 148.091 165 148.092 165.111C148.094 165.275 148.393 165.027 147.724 166.701C147.724 166.701 147.724 166.701 147.724 166.701C147.718 166.717 147.711 166.734 147.704 166.75C147.576 167.069 147.422 167.411 147.276 167.771C147.129 168.131 146.199 170.46 146.126 170.582C146.027 170.742 146.193 170.116 146.166 170.136C146.147 170.15 146.049 170.356 146.02 170.388C145.925 170.491 145.963 170.326 145.692 170.885C145.796 170.575 145.901 170.266 146.006 169.956C145.928 170.088 146.056 169.675 146.034 169.692C146.016 169.706 145.913 169.943 145.898 169.949C145.879 169.958 145.964 169.692 145.925 169.722C145.863 169.769 145.605 170.391 145.55 170.461C145.494 170.534 145.594 170.18 145.475 170.387C145.444 170.455 145.413 170.522 145.381 170.589C145.321 170.746 145.262 170.902 145.202 171.058C145.157 171.125 145.279 170.804 145.267 170.792C145.254 170.779 145.124 171.077 145.113 171.071C145.105 171.066 145.19 170.819 145.172 170.83C145.147 170.844 145.009 171.194 144.974 171.256C144.96 171.28 144.814 171.445 144.808 171.446C144.773 171.448 144.964 170.969 144.958 170.918C144.939 170.778 144.716 171.137 144.595 171.258C144.542 171.312 144.525 171.273 144.529 171.185C145.07 169.981 145.365 168.992 144.619 170.918C144.7 170.633 144.467 171.141 144.474 171.042C144.479 170.977 144.575 170.707 144.546 170.703C144.493 170.698 144.131 171.429 144.679 170.063C144.525 170.281 144.682 169.768 144.164 170.959C144.119 171.026 144.379 170.297 144.404 170.193C144.427 170.096 144.445 169.725 144.435 169.699C144.423 169.673 144.399 169.639 144.338 169.738C144.263 169.859 143.723 171.093 144.302 169.628C144.211 169.728 144.213 169.68 144.246 169.495C144.252 169.461 144.343 169.246 144.339 169.244C144.331 169.241 144.248 169.393 144.225 169.406C144.187 169.427 144.367 168.969 144.073 169.661C144.007 169.769 143.94 169.878 143.873 169.986C143.925 169.85 143.976 169.715 144.028 169.579C143.956 169.72 143.885 169.861 143.813 170.002C144.256 169.01 143.938 169.571 143.709 170.152C143.767 169.931 143.824 169.711 143.882 169.491C144.384 168.362 143.87 169.329 143.603 169.946C143.6 169.944 143.596 169.941 143.593 169.938C143.694 169.624 143.553 169.855 143.603 169.636C143.653 169.417 143.706 169.309 143.928 168.785C143.905 168.811 143.883 168.837 143.86 168.862C143.165 170.258 144.293 167.807 143.713 168.856C144.097 167.954 143.818 168.392 143.647 168.64C143.627 168.669 143.546 168.84 143.514 168.89C143.436 169.009 143.497 168.768 143.234 169.321C143.295 169.154 143.357 168.987 143.419 168.82C143.358 168.914 143.297 169.008 143.235 169.102C143.151 169.274 143.068 169.446 142.984 169.619C143.242 169.019 143.092 169.224 143.14 169.074C143.15 169.044 143.267 168.807 143.287 168.737C143.312 168.653 143.249 168.709 143.269 168.627C143.13 168.884 142.991 169.142 142.851 169.399C142.745 169.523 143.086 168.83 143.095 168.767C143.097 168.756 143.008 168.773 142.997 168.785C142.907 168.886 142.61 169.473 142.584 169.299C142.58 169.267 142.677 169.061 142.667 169.045C142.653 169.019 142.315 169.42 142.067 169.828C142.332 169.291 142.106 169.441 142.165 169.274C142.183 169.223 142.382 168.899 142.398 168.814C142.411 168.744 142.186 168.961 142.182 168.897C142.179 168.828 142.345 168.555 142.343 168.526C142.341 168.499 142.18 168.701 142.159 168.684C142.098 168.629 142.28 168.247 142.231 168.195C142.156 168.117 141.543 168.598 141.121 168.636C141.113 168.551 141.195 168.395 141.15 168.334C141.058 168.207 140.917 167.995 140.799 167.698C140.647 167.326 140.512 166.744 140.644 166.084C140.771 165.417 141.16 164.9 141.437 164.657C142.032 164.15 142.347 164.155 142.586 164.119C142.906 164.078 143.401 165.046 142.974 163.367C142.999 163.049 143.455 163.688 143.488 163.699C143.541 163.704 143.559 163.391 143.6 163.384C143.728 163.361 143.814 163.581 143.946 163.309C143.979 163.238 144.019 162.871 144.041 162.875C144.068 162.881 144.092 163.237 144.123 163.26C144.198 163.312 144.341 163.2 144.409 163.266C144.421 163.279 144.407 163.591 144.418 163.689C144.459 164.073 144.528 164.046 144.603 163.053C144.646 163.624 144.777 163.12 144.875 163.1C145.079 163.059 145.388 163.351 145.718 163.008C145.926 162.792 146.058 162.361 146.201 162.816C146.234 162.918 146.251 163.046 146.293 163.172C146.369 163.399 146.278 163.931 146.495 163.817C146.566 163.783 146.67 163.687 146.831 163.506C146.953 163.869 147.33 163.923 146.952 164.73C147.111 164.599 147.274 164.472 147.441 164.35C147.479 164.381 147.518 164.413 147.559 164.448C147.429 164.594 147.298 164.738 147.164 164.88C147.319 165.108 148.287 165.123 148.443 165.546C148.571 165.858 148.638 166.499 148.504 166.992C148.381 167.495 148.128 167.824 147.947 167.952C147.756 168.078 148.13 168.256 147.308 168.001C147.349 168.056 147.389 168.112 147.427 168.168C147.587 168.269 147.744 168.374 147.9 168.481C147.798 168.699 147.416 168.752 147.295 168.908C147.217 169.011 147.165 169.169 147.058 169.363C146.94 169.556 146.819 169.787 146.329 170.052C146.093 170.17 145.787 170.291 145.304 170.322C144.839 170.355 144.219 170.224 143.787 169.948C143.428 169.731 143.191 169.375 143.086 169.095C142.98 168.816 142.969 168.606 142.901 168.489C142.737 168.185 142.121 168.34 142.027 168.059C141.889 167.577 142.638 167.264 142.573 167.173C142.555 167.143 142.316 167.137 142.29 167.117C142.178 167.034 142.197 166.975 141.827 166.914C142.442 166.845 143.236 166.853 144.037 166.834C144.641 166.82 146.042 166.784 146.571 166.779C146.943 166.775 147.422 166.789 147.831 166.784C148.158 166.843 147.798 166.858 147.222 166.898C147.245 166.957 147.274 167.005 147.289 166.923C147.066 166.94 146.843 166.961 146.621 166.985C146.621 166.985 146.62 166.985 146.62 166.985C146.361 167.002 146.925 166.882 147.039 166.792C147.197 166.643 147.396 166.482 147.07 165.82C146.911 165.506 146.36 164.911 145.533 164.735C144.715 164.563 144.179 164.773 143.902 164.886C143.357 165.144 143.293 165.293 143.186 165.439C143.101 165.583 143.074 165.713 143.063 165.844C143.044 166.104 143.095 166.363 143.101 166.604C143.103 166.678 143.011 166.844 143.002 167.061C142.989 167.273 143.074 167.505 143.269 167.508C143.371 167.512 143.696 167.397 143.72 167.418C143.626 167.741 143.66 168.114 143.709 168.415C143.932 168.381 144.044 168.362 144.119 168.382C144.273 168.415 144.215 168.625 144.217 168.686C144.196 168.891 143.828 169.18 144.123 169.065C144.196 169.018 144.434 169.307 144.972 168.773C145.087 168.65 145.083 168.453 145.143 168.259C145.197 168.058 145.301 167.929 145.691 167.598C145.559 167.526 145.427 167.457 145.294 167.389C145.739 166.847 146.002 166.064 145.804 165.499C145.799 165.482 145.793 165.465 145.786 165.448C145.744 165.339 145.678 165.206 145.608 165.094C145.547 164.994 145.486 164.911 145.431 164.847C145.333 164.732 145.263 164.684 145.222 164.684C145.178 164.683 145.004 164.901 144.987 164.885C144.963 164.858 145.156 164.522 145.139 164.51C145.121 164.497 144.938 164.761 144.967 164.725C145.064 164.591 145.325 164.193 145.299 164.324C145.291 164.361 145.138 164.688 145.147 164.681C145.165 164.667 145.331 164.358 145.357 164.321C145.489 164.133 145.344 164.527 145.372 164.559C145.457 164.662 145.655 164.586 145.76 164.704C145.825 164.778 145.995 164.785 145.972 165.063C145.967 165.123 145.809 165.474 145.825 165.48C145.842 165.488 145.954 165.253 145.97 165.237C146.082 165.126 146.305 164.935 146.254 165.202C146.244 165.253 146.134 165.533 146.141 165.535C146.144 165.536 146.23 165.35 146.248 165.334C146.404 165.198 146.419 165.335 146.476 165.434C146.585 165.624 146.918 165.347 147.013 165.609C147.033 165.666 146.835 166.229 146.843 166.225C146.859 166.219 147.017 165.85 147.078 165.768C147.278 165.498 147.224 165.938 147.374 165.781C147.448 165.704 147.689 165.253 147.767 165.163C147.83 165.091 147.825 165.304 147.921 165.102C147.979 164.98 148.144 164.579 148.173 164.533ZM144.645 170.382C144.914 169.744 144.637 170.252 144.517 170.605C144.49 170.685 144.575 170.548 144.645 170.382ZM141.83 166.023C141.639 165.968 141.448 165.917 141.256 165.869C141.282 166.058 141.332 166.245 141.404 166.402C141.528 166.327 141.658 166.26 141.789 166.214C141.799 166.149 141.813 166.085 141.83 166.023Z" fill="#854412"/>
<path d="M169.93 135.819C169.889 135.791 170.139 135.862 170.157 135.853C170.233 135.816 170.41 135.857 170.525 135.84C170.692 135.821 170.47 135.449 172.145 136.115C172.145 136.115 172.145 136.115 172.145 136.115C172.162 136.122 172.178 136.128 172.195 136.135C172.514 136.262 172.856 136.417 173.216 136.561C173.577 136.705 175.912 137.621 176.038 137.686C176.203 137.773 175.581 137.601 175.602 137.626C175.617 137.642 175.826 137.732 175.86 137.758C175.969 137.839 175.805 137.804 176.376 138.046C176.064 137.949 175.751 137.854 175.438 137.76C175.574 137.829 175.158 137.716 175.176 137.736C175.191 137.752 175.433 137.842 175.441 137.857C175.451 137.873 175.181 137.799 175.214 137.834C175.266 137.891 175.901 138.114 175.975 138.162C176.052 138.211 175.694 138.127 175.909 138.23C175.978 138.257 176.048 138.284 176.117 138.31C176.276 138.361 176.436 138.412 176.596 138.462C176.665 138.5 176.338 138.398 176.328 138.408C176.316 138.421 176.622 138.53 176.617 138.54C176.613 138.547 176.362 138.477 176.374 138.493C176.39 138.515 176.749 138.63 176.813 138.66C176.838 138.672 177.016 138.798 177.017 138.802C177.023 138.834 176.532 138.676 176.482 138.684C176.345 138.707 176.721 138.899 176.852 139.005C176.911 139.053 176.873 139.072 176.786 139.073C175.543 138.628 174.535 138.407 176.513 139.004C176.223 138.944 176.747 139.135 176.648 139.136C176.583 139.137 176.306 139.062 176.305 139.092C176.303 139.145 177.059 139.453 175.655 139.013C175.882 139.154 175.358 139.04 176.581 139.476C176.65 139.519 175.901 139.32 175.795 139.305C175.695 139.292 175.31 139.334 175.275 139.37C175.245 139.393 175.198 139.457 175.283 139.547C175.383 139.659 176.602 140.281 175.001 139.897C174.962 139.983 174.958 140.023 174.832 140.189C174.77 140.269 174.69 140.359 174.573 140.461C174.515 140.512 174.447 140.566 174.365 140.621C174.32 140.651 174.298 140.666 174.218 140.711C174.136 140.756 174.044 140.801 173.938 140.842C173.533 141.014 172.825 141.066 172.269 140.822C171.757 140.599 171.542 140.355 171.36 140.138C171.19 139.922 171.107 139.748 171.048 139.611C171.008 139.511 170.992 139.459 170.975 139.396C170.912 139.161 170.919 139.019 170.938 138.954C170.957 138.877 170.99 138.796 171.034 138.752C171.066 138.718 171.3 138.71 171.3 138.695C171.3 138.675 171.235 138.649 171.18 138.619C171.145 138.605 171.114 138.589 171.107 138.575C171.074 138.51 171.567 138.508 170.816 138.477C170.692 138.439 170.568 138.399 170.444 138.358C170.59 138.356 170.735 138.358 170.88 138.359C170.724 138.334 170.567 138.308 170.411 138.281C171.494 138.381 170.861 138.239 170.237 138.215C170.465 138.187 170.694 138.159 170.922 138.143C172.151 138.271 171.072 138.072 170.404 138.006C170.405 138.002 170.406 137.998 170.408 137.993C170.739 137.99 170.476 137.922 170.7 137.901C170.924 137.882 171.043 137.9 171.609 137.953C171.578 137.939 171.547 137.925 171.516 137.91C169.976 137.668 172.652 138.007 171.478 137.769C172.453 137.865 171.951 137.731 171.663 137.646C171.629 137.636 171.441 137.611 171.384 137.596C171.246 137.56 171.494 137.548 170.887 137.467C171.065 137.475 171.243 137.483 171.42 137.492C171.312 137.464 171.203 137.437 171.094 137.409C170.904 137.383 170.715 137.357 170.525 137.331C171.175 137.394 170.932 137.319 171.09 137.321C171.121 137.321 171.383 137.357 171.456 137.355C171.543 137.353 171.469 137.316 171.553 137.311C171.264 137.263 170.976 137.216 170.687 137.168C170.534 137.115 171.3 137.212 171.362 137.204C171.373 137.202 171.326 137.137 171.31 137.131C171.185 137.087 170.533 136.999 170.683 136.945C170.71 136.936 170.937 136.958 170.948 136.948C170.967 136.929 170.466 136.789 169.995 136.714C170.589 136.776 170.358 136.672 170.532 136.677C170.585 136.679 170.962 136.734 171.044 136.728C171.112 136.723 170.817 136.638 170.87 136.627C170.928 136.615 171.245 136.656 171.269 136.651C171.291 136.646 171.037 136.598 171.04 136.587C171.055 136.551 171.47 136.583 171.482 136.556C171.5 136.516 170.752 136.361 170.423 136.273C170.473 136.272 170.636 136.289 170.639 136.28C170.681 136.171 170.84 136.067 171.02 135.981C171.103 135.941 172.146 135.984 170.436 135.732C170.14 135.663 170.85 135.646 170.864 135.624C170.879 135.6 170.577 135.528 170.576 135.507C170.573 135.445 170.8 135.441 170.547 135.321C170.481 135.29 170.123 135.206 170.129 135.195C170.137 135.183 170.49 135.23 170.515 135.217C170.573 135.184 170.472 135.085 170.539 135.056C170.553 135.051 170.86 135.103 170.958 135.111C171.34 135.138 171.316 135.087 170.335 134.916C170.9 134.965 170.402 134.824 170.38 134.768C170.336 134.652 170.601 134.504 170.209 134.33C169.962 134.22 169.524 134.132 169.92 134.12C170.007 134.118 170.125 134.12 170.229 134.116C170.476 134.107 171.294 134.228 170.331 133.978C170.46 133.973 170.487 133.949 170.577 133.942C170.673 133.933 170.839 133.942 171.27 134.012C171.072 133.963 170.874 133.914 170.676 133.864C170.673 133.855 170.67 133.846 170.666 133.837C170.857 133.877 171.047 133.917 171.238 133.957C171.301 133.912 170.537 133.665 170.556 133.613C170.583 133.533 170.941 133.381 171.217 133.364C171.364 133.356 170.962 133.244 171.796 133.443C171.741 133.418 171.686 133.392 171.631 133.367C171.452 133.311 171.273 133.254 171.094 133.198C171.104 133.135 171.404 133.144 171.42 133.083C171.444 132.98 171.015 132.629 171.388 132.602C171.48 132.598 171.859 132.691 171.867 132.659C171.881 132.608 171.292 132.353 171.314 132.27C171.354 132.123 172.155 132.187 172.196 132.019C172.21 131.966 172.023 131.815 172.026 131.765C172.034 131.558 172.144 131.447 171.985 131.071C172.563 131.348 173.108 131.93 173.705 132.464C174.154 132.87 175.165 133.839 175.544 134.21C175.809 134.47 176.139 134.817 176.431 135.104C176.634 135.364 176.439 135.049 176.036 134.633C176.135 134.553 176.217 134.456 176.254 134.432C176.056 134.329 175.856 134.228 175.655 134.132C175.654 134.131 175.654 134.131 175.653 134.131C175.419 134.023 175.94 134.268 176.061 134.318C176.637 134.562 176.703 134.575 176.581 134.609C176.461 134.637 176.164 134.661 176.077 134.718C176.039 134.743 176.306 134.921 175.947 134.861C175.854 134.846 175.518 134.769 175.502 134.773C175.687 134.881 175.873 134.987 176.06 135.092C176.013 135.093 175.973 135.096 175.939 135.1C175.575 135.145 175.917 135.35 175.967 135.488C176.114 135.9 176.315 136.322 176.17 136.684C176.142 136.754 176.381 136.888 176.205 136.932C176.132 136.95 175.584 136.874 175.985 136.979C175.837 136.956 175.69 136.932 175.543 136.909C175.715 136.972 176.047 137.048 176.074 137.091C176.097 137.128 176.106 137.216 176.045 137.236C176.015 137.247 175.74 137.198 175.739 137.212C175.74 137.237 176.113 137.345 176.108 137.378C176.103 137.408 175.779 137.408 175.821 137.438C175.972 137.545 176.429 137.703 176.29 137.769C176.251 137.787 175.889 137.766 175.898 137.774C175.917 137.792 176.264 137.847 176.307 137.863C176.526 137.943 176.102 137.961 176.079 138.006C176.004 138.154 176.134 138.335 176.053 138.468C176.002 138.552 176.05 138.695 175.785 138.705C175.727 138.707 175.344 138.678 175.344 138.685C175.343 138.692 175.603 138.707 175.624 138.707C175.662 138.708 175.708 138.703 175.751 138.671C175.78 138.629 175.814 138.62 175.822 138.441C175.823 138.396 175.825 138.356 175.817 138.276C175.805 138.177 175.787 138.049 175.727 137.855C175.679 137.798 175.604 137.05 174.519 136.357C173.89 135.934 172.728 135.9 172.18 136.153C172.032 136.207 171.906 136.268 171.798 136.328C171.717 136.374 171.67 136.403 171.614 136.44C171.508 136.51 171.422 136.576 171.35 136.638C171.068 136.882 170.959 137.05 170.913 137.109C170.855 137.189 170.818 137.249 170.789 137.299C170.736 137.392 170.727 137.425 170.715 137.467C170.696 137.543 170.719 137.57 170.757 137.608C170.797 137.643 171.074 137.761 171.072 137.764C171.071 137.765 170.879 137.692 170.859 137.687C170.683 137.627 170.817 137.609 170.907 137.562C171.081 137.461 170.781 137.142 171.039 137.016C171.095 136.989 171.671 137.144 171.667 137.136C171.66 137.12 171.281 136.988 171.196 136.931C170.915 136.742 171.361 136.757 171.199 136.606C171.12 136.533 170.658 136.309 170.567 136.227C170.494 136.162 170.713 136.143 170.508 136.052C170.384 135.998 169.977 135.849 169.93 135.819ZM175.977 139.019C175.32 138.799 175.848 139.038 176.209 139.13C176.29 139.15 176.148 139.075 175.977 139.019ZM171.861 136.323C171.666 136.292 171.47 136.261 171.275 136.23C171.355 136.251 171.435 136.272 171.515 136.293C171.633 136.308 171.751 136.322 171.869 136.337C171.867 136.332 171.864 136.328 171.861 136.323Z" fill="#854412"/>
<path d="M201.792 144.272C201.836 144.292 201.587 144.218 201.572 144.22C201.507 144.227 201.333 144.18 201.229 144.17C201.074 144.156 201.367 144.354 199.657 143.784C199.657 143.784 199.657 143.784 199.657 143.784C199.64 143.778 199.624 143.773 199.606 143.767C199.281 143.658 198.928 143.532 198.56 143.408C198.192 143.284 195.812 142.492 195.682 142.437C195.511 142.362 196.133 142.529 196.109 142.512C196.092 142.501 195.878 142.422 195.842 142.402C195.725 142.339 195.887 142.38 195.306 142.166C195.618 142.261 195.931 142.356 196.243 142.45C196.103 142.392 196.517 142.511 196.496 142.498C196.479 142.487 196.235 142.403 196.225 142.395C196.213 142.384 196.481 142.462 196.444 142.438C196.386 142.4 195.746 142.191 195.667 142.155C195.586 142.119 195.94 142.215 195.717 142.132C195.647 142.108 195.577 142.084 195.507 142.06C195.347 142.011 195.187 141.961 195.027 141.912C194.954 141.883 195.282 141.984 195.29 141.981C195.299 141.977 194.989 141.877 194.992 141.874C194.994 141.872 195.244 141.945 195.23 141.937C195.21 141.924 194.85 141.814 194.783 141.791C194.758 141.781 194.564 141.704 194.561 141.703C194.549 141.692 195.043 141.84 195.088 141.847C195.21 141.867 194.813 141.74 194.66 141.702C194.592 141.685 194.62 141.696 194.698 141.722C195.976 142.051 196.973 142.298 194.971 141.794C195.255 141.87 194.712 141.743 194.8 141.779C194.858 141.802 195.136 141.869 195.126 141.883C195.107 141.894 194.289 141.847 195.74 142.093C195.473 142.13 195.992 142.265 194.693 142.369C194.611 142.466 195.394 142.752 195.558 142.966C195.596 143.009 195.664 143.184 195.863 143.488C195.978 143.666 196.153 143.909 196.441 144.146C196.741 144.408 197.229 144.635 197.61 144.685C198.015 144.749 198.335 144.691 198.519 144.636C198.721 144.578 198.859 144.505 198.931 144.457C199.092 144.354 199.161 144.281 199.183 144.264C199.304 144.174 199.385 144.083 199.49 144.145C199.611 144.229 200.556 145.192 199.537 143.99C199.622 144.031 199.637 144.023 199.601 143.967C199.584 143.942 199.557 143.908 199.519 143.866C199.497 143.841 199.328 143.68 199.328 143.68C199.329 143.678 199.458 143.794 199.476 143.806C199.505 143.825 199.138 143.497 199.698 143.998C199.793 144.081 199.889 144.162 199.986 144.243C199.877 144.147 199.768 144.052 199.658 143.957C199.777 144.061 199.897 144.163 200.018 144.266C199.192 143.558 199.676 143.98 200.154 144.38C199.983 144.235 199.808 144.094 199.629 143.956C198.674 143.173 199.507 143.881 200.033 144.299C200.032 144.299 200.03 144.299 200.029 144.299C199.769 144.098 199.974 144.272 199.795 144.143C199.615 144.016 199.52 143.941 199.069 143.595C199.093 143.618 199.116 143.641 199.14 143.664C200.363 144.63 198.227 142.981 199.155 143.735C198.369 143.151 198.761 143.486 198.987 143.679C199.014 143.701 199.166 143.815 199.211 143.852C199.32 143.942 199.114 143.81 199.606 144.175C199.46 144.074 199.314 143.973 199.168 143.872C199.255 143.943 199.341 144.013 199.428 144.083C199.582 144.197 199.736 144.311 199.89 144.424C199.359 144.045 199.552 144.206 199.422 144.12C199.395 144.103 199.182 143.947 199.121 143.908C199.049 143.863 199.105 143.918 199.034 143.875C199.269 144.05 199.504 144.224 199.739 144.398C199.86 144.501 199.233 144.051 199.18 144.022C199.171 144.017 199.201 144.069 199.214 144.08C199.313 144.165 199.849 144.547 199.717 144.489C199.693 144.479 199.505 144.35 199.495 144.349C199.476 144.346 199.881 144.668 200.268 144.946C199.776 144.609 199.958 144.773 199.813 144.68C199.768 144.652 199.458 144.432 199.387 144.392C199.329 144.359 199.568 144.549 199.521 144.526C199.471 144.501 199.208 144.32 199.188 144.31C199.168 144.301 199.377 144.453 199.373 144.456C199.356 144.464 199.008 144.237 198.994 144.244C198.973 144.253 199.59 144.704 199.859 144.91C199.816 144.885 199.68 144.794 199.676 144.797C199.628 144.824 199.48 144.79 199.317 144.739C199.242 144.715 198.354 144.178 199.787 145.145C200.032 145.323 199.424 144.977 199.408 144.981C199.393 144.985 199.644 145.168 199.642 145.178C199.638 145.208 199.443 145.098 199.647 145.278C199.7 145.324 199.999 145.539 199.992 145.541C199.984 145.542 199.687 145.348 199.664 145.341C199.611 145.328 199.687 145.424 199.626 145.404C199.614 145.4 199.356 145.226 199.272 145.175C198.947 144.977 198.962 145.013 199.788 145.569C199.307 145.271 199.721 145.579 199.735 145.615C199.762 145.69 199.522 145.631 199.845 145.899C200.05 146.069 200.421 146.317 200.08 146.134C200.004 146.093 199.904 146.036 199.813 145.987C199.601 145.874 198.903 145.432 199.718 146.002C199.489 145.88 199.629 146 198.912 145.543C199.08 145.659 199.248 145.775 199.416 145.89C199.418 145.896 199.42 145.901 199.423 145.907C199.261 145.799 199.098 145.692 198.936 145.584C198.88 145.575 199.527 146.045 199.511 146.059C199.484 146.082 199.178 145.982 198.941 145.863C198.816 145.8 199.162 146.032 198.444 145.565C198.492 145.601 198.539 145.637 198.586 145.674C198.741 145.78 198.895 145.886 199.05 145.992C199.044 146.015 198.787 145.875 198.778 145.894C198.762 145.929 199.159 146.264 198.855 146.108C198.779 146.069 198.45 145.864 198.449 145.874C198.446 145.889 198.978 146.248 198.978 146.269C198.978 146.306 198.326 145.939 198.358 145.994C198.367 146.011 198.563 146.146 198.581 146.166C198.658 146.247 198.631 146.253 198.925 146.477C198.399 146.157 197.74 145.715 197.069 145.278C196.563 144.947 195.387 144.186 194.945 143.894C194.635 143.689 194.24 143.418 193.898 143.193C193.643 142.986 193.95 143.175 194.443 143.474C194.449 143.423 194.456 143.372 194.462 143.321C194.65 143.442 194.838 143.562 195.027 143.683C195.027 143.683 195.028 143.683 195.028 143.684C195.252 143.812 194.778 143.487 194.674 143.406C193.684 142.636 194.599 143.029 194.772 143.023C194.81 143.022 194.599 142.796 194.909 142.985C194.989 143.034 195.276 143.225 195.291 143.23C195.141 143.085 194.992 142.941 194.842 142.796C195.329 143.031 195.006 142.719 194.981 142.609C194.912 142.311 194.806 141.984 194.995 141.855C195.032 141.83 194.849 141.64 195.009 141.701C195.076 141.726 195.535 142.036 195.209 141.782C195.331 141.867 195.454 141.952 195.576 142.037C195.44 141.918 195.168 141.714 195.152 141.677C195.14 141.645 195.15 141.591 195.206 141.611C195.234 141.62 195.461 141.783 195.464 141.775C195.468 141.761 195.17 141.516 195.181 141.5C195.191 141.486 195.47 141.647 195.44 141.609C195.333 141.475 194.977 141.154 195.113 141.184C195.15 141.194 195.455 141.389 195.45 141.379C195.438 141.359 195.155 141.152 195.122 141.12C194.956 140.961 195.323 141.165 195.355 141.149C195.46 141.098 195.406 140.913 195.534 140.854C195.612 140.819 195.659 140.662 195.931 140.75C195.989 140.77 196.276 141.027 196.287 141.014C196.301 140.998 196.115 140.816 196.106 140.794C196.077 140.721 196.05 140.606 196.074 140.507C196.106 140.391 196.218 140.279 196.416 140.299C196.49 140.305 196.703 140.521 196.728 140.502C196.741 140.493 196.648 140.305 196.708 140.241C196.833 140.112 196.988 139.953 197.501 139.801C197.638 139.764 197.798 139.734 197.979 139.721C198.176 139.707 198.445 139.718 198.708 139.777C199.23 139.871 199.874 140.293 200.144 140.649C200.294 140.829 200.402 141.006 200.48 141.166C200.547 141.303 200.591 141.423 200.624 141.535C200.693 141.77 200.703 141.893 200.713 142.023C200.726 142.265 200.7 142.401 200.68 142.505C200.59 142.891 200.615 142.987 200.641 143.131C200.666 143.259 200.684 143.357 200.564 143.401C200.511 143.42 199.934 143.272 199.939 143.277C199.948 143.288 200.33 143.408 200.42 143.454C200.713 143.608 200.282 143.554 200.459 143.661C200.546 143.715 201.019 143.903 201.119 143.961C201.198 144.007 200.995 143.988 201.205 144.065C201.331 144.112 201.742 144.249 201.792 144.272ZM195.45 141.968C196.13 142.097 195.558 142.026 195.195 141.944C195.113 141.923 195.273 141.932 195.45 141.968ZM198.641 144.159C198.804 144.272 198.967 144.384 199.129 144.497C199.064 144.447 198.998 144.397 198.933 144.347C198.834 144.281 198.735 144.215 198.636 144.149C198.638 144.152 198.64 144.156 198.641 144.159Z" fill="#854412"/>
<path d="M181.054 159.03C181.072 158.983 181.094 159.243 181.116 159.257C181.206 159.318 181.24 159.498 181.326 159.6C181.452 159.753 181.864 159.412 181.867 161.214C181.867 161.214 181.867 161.214 181.867 161.215C181.867 161.232 181.867 161.25 181.867 161.268C181.865 161.612 181.829 161.986 181.824 162.375C181.819 162.763 181.823 165.271 181.771 165.412C181.697 165.598 181.516 164.954 181.475 164.983C181.447 165.002 181.412 165.23 181.376 165.27C181.258 165.4 181.199 165.233 181.083 165.851C181.044 165.524 181.004 165.197 180.967 164.87C180.908 165.021 180.831 164.588 180.797 164.611C180.768 164.63 180.745 164.888 180.714 164.899C180.68 164.913 180.638 164.633 180.575 164.673C180.473 164.736 180.426 165.408 180.357 165.491C180.285 165.576 180.2 165.205 180.097 165.435C180.081 165.509 180.065 165.582 180.049 165.655C180.045 165.823 180.043 165.99 180.04 166.158C179.987 166.232 179.99 165.889 179.947 165.879C179.897 165.868 179.844 166.19 179.807 166.185C179.777 166.181 179.76 165.918 179.72 165.93C179.663 165.948 179.637 166.324 179.598 166.39C179.585 166.417 179.312 166.595 179.293 166.595C179.179 166.595 179.239 166.082 179.159 166.025C178.935 165.865 178.579 166.221 178.209 166.28C178.047 166.307 177.892 166.226 177.754 166.085C178.429 164.93 178.358 163.801 177.758 165.784C177.693 165.44 177.325 165.885 177.154 165.686C177.043 165.552 177.105 165.26 176.905 165.129C176.583 164.947 175.475 164.938 176.559 163.915C176.102 163.66 176.214 163.142 175.614 163.053L175.864 161.041L175.64 161.284C175.519 161.225 175.35 161.152 175.115 161.059C175.055 160.989 175.823 161.137 175.937 161.129C176.045 161.118 176.49 160.929 176.528 160.889C176.566 160.847 176.621 160.769 176.533 160.683C176.423 160.58 175.203 160.007 176.69 160.536C176.62 160.379 176.679 160.357 176.89 160.336C176.928 160.332 177.141 160.428 177.146 160.418C177.155 160.397 177.015 160.289 177.014 160.242C177.012 160.165 177.472 160.344 176.791 160.026C176.697 159.93 176.604 159.833 176.512 159.735C176.649 159.785 176.787 159.835 176.924 159.885C176.793 159.793 176.663 159.7 176.533 159.606C177.491 160.121 176.995 159.681 176.415 159.445C176.657 159.466 176.898 159.491 177.137 159.52C178.221 160.114 177.351 159.425 176.757 159.111C176.763 159.102 176.769 159.093 176.775 159.085C177.106 159.166 176.912 158.963 177.158 158.978C177.403 158.996 177.501 159.066 178.006 159.328C177.99 159.291 177.975 159.254 177.959 159.217C176.693 158.299 178.983 159.724 178.079 158.915C178.944 159.38 178.594 158.973 178.411 158.712C178.39 158.682 178.232 158.577 178.193 158.529C178.1 158.415 178.364 158.461 177.856 158.117C178.025 158.185 178.193 158.254 178.36 158.324C178.287 158.235 178.213 158.145 178.141 158.055C177.984 157.945 177.828 157.834 177.672 157.724C178.242 158.046 178.097 157.82 178.253 157.871C178.284 157.882 178.498 158.036 178.574 158.054C178.664 158.077 178.64 157.977 178.731 157.993C178.507 157.805 178.284 157.615 178.061 157.425C177.983 157.266 178.613 157.713 178.687 157.715C178.7 157.715 178.746 157.566 178.738 157.549C178.676 157.418 178.151 157.02 178.385 156.956C178.427 156.945 178.62 157.069 178.647 157.05C178.694 157.019 178.409 156.558 178.059 156.234C178.558 156.569 178.496 156.271 178.663 156.343C178.714 156.366 178.998 156.619 179.091 156.637C179.166 156.652 179.013 156.369 179.087 156.366C179.165 156.363 179.41 156.57 179.442 156.568C179.473 156.567 179.301 156.373 179.325 156.351C179.401 156.285 179.757 156.516 179.816 156.469C179.902 156.401 179.443 155.784 179.289 155.463C179.342 155.482 179.471 155.586 179.491 155.569C179.748 155.365 180.131 155.226 180.513 155.15C180.697 155.104 181.597 155.757 180.576 154.358C180.536 154.249 180.626 154.224 180.756 154.239L181.13 154.049C181.357 154.095 181.68 154.272 181.745 154.258C181.85 154.235 181.851 153.912 181.946 153.882C182.236 153.796 182.467 153.97 182.866 153.668C182.97 153.59 183.092 153.219 183.171 153.224C183.266 153.229 183.355 153.587 183.465 153.616C183.727 153.675 184.283 153.656 184.536 153.809C184.582 153.836 184.502 154.138 184.532 154.251C184.645 154.693 184.864 154.771 185.273 153.861C185.306 154.125 185.388 154.235 185.506 154.287C185.733 154.396 186.029 154.371 186.213 154.503C186.774 155.004 187.77 155.91 187.909 158.293C187.918 158.96 187.901 159.399 187.755 159.839C187.612 160.264 187.214 160.809 186.453 161.098C186.125 161.218 185.815 161.247 185.527 161.257C185.134 161.272 184.826 161.019 184.622 160.983C184.559 160.933 184.53 161.027 184.575 161.464C184.381 161.241 184.295 161.444 184.033 160.628C184.058 160.83 184.084 161.033 184.108 161.236C184.091 161.244 184.074 161.253 184.057 161.261C184.016 161.071 183.975 160.88 183.935 160.69C183.804 160.661 183.775 161.477 183.661 161.489C183.471 161.512 182.934 161.271 182.724 161.027C182.614 160.898 182.647 161.314 182.512 160.466C182.497 160.528 182.481 160.589 182.464 160.65C182.467 160.838 182.47 161.026 182.472 161.214C182.344 161.233 182.168 160.953 182.043 160.962C181.825 160.981 181.447 161.504 181.172 161.151C181.102 161.062 181.045 160.671 180.975 160.67C180.874 160.668 180.796 161.306 180.637 161.3C180.359 161.288 179.971 160.465 179.552 160.333C179.431 160.298 179.249 160.473 179.13 160.436C178.651 160.256 177.966 159.893 177.235 158.692C177.377 157.927 177.803 157.725 178.175 157.64C178.56 157.563 178.963 157.584 179.366 157.609C179.996 157.577 181.306 158.119 181.749 158.414C182.071 158.603 182.541 158.729 182.896 158.936C183.455 158.579 183.227 157.449 182.318 156.963C181.97 156.282 181.605 156.146 181.474 156.056C181.324 155.974 181.281 155.96 181.266 155.944C181.216 156.161 181.173 156.381 181.136 156.601C181.136 156.602 181.136 156.602 181.136 156.603C181.115 156.861 181.224 156.295 181.248 156.167C181.379 155.553 181.477 155.492 181.687 155.591C181.884 155.691 182.159 155.946 182.35 155.993C182.434 156.014 182.646 155.68 182.759 156.028C182.788 156.12 182.847 156.459 182.865 156.471C182.975 156.246 183.081 156.019 183.181 155.791C183.324 155.965 183.445 156.006 183.556 155.981C183.487 156.002 183.331 155.96 182.976 156.143C182.622 156.288 182.114 156.979 182.098 157.517C182.059 158.309 182.246 158.495 182.296 158.67C182.372 158.83 182.407 158.925 182.58 159.079C182.717 159.249 183.046 159.386 183.226 159.405C183.412 159.43 183.454 159.411 183.401 159.416L183.74 159.244C183.731 159.247 183.721 159.251 183.709 159.255C183.644 159.276 183.712 159.544 183.536 159.471C183.464 159.44 183.096 159.026 183.314 159.381C183.218 159.268 183.121 159.154 183.025 159.04C183.097 159.215 183.294 159.493 183.273 159.558C183.254 159.612 183.169 159.721 183.096 159.714C183.058 159.71 182.871 159.504 182.854 159.522C182.826 159.556 183.039 159.888 183.001 159.928C182.967 159.962 182.672 159.808 182.679 159.87C182.698 160.093 182.959 160.518 182.765 160.553C182.711 160.562 182.395 160.379 182.393 160.396C182.393 160.431 182.663 160.655 182.687 160.697C182.813 160.905 182.399 160.761 182.331 160.826C182.113 161.031 182.068 161.376 181.866 161.59C181.736 161.728 181.647 162.019 181.336 162.053C181.269 162.06 180.929 161.881 180.915 161.91C180.899 161.942 181.124 162.073 181.136 162.096C181.217 162.264 181.362 162.583 181.08 162.573C181.025 162.572 180.741 162.47 180.737 162.482C180.735 162.488 180.92 162.578 180.933 162.603C181.044 162.823 180.895 162.887 180.777 163.014L180.8 161.476C180.799 161.473 180.797 161.47 180.796 161.467C180.589 160.965 180.174 160.548 180.039 160.43C179.887 160.292 179.9 160.273 179.948 160.385C179.966 160.435 179.905 161.029 179.915 161.024C179.934 161.015 180.006 160.621 180.051 160.527C180.193 160.219 180.333 160.661 180.496 160.469C180.574 160.374 180.695 159.87 180.77 159.76C180.829 159.672 180.966 159.875 180.999 159.652C181.018 159.518 181.034 159.084 181.054 159.03ZM176.902 164.707C177.38 164.212 176.625 164.299 176.509 164.699C176.491 164.802 176.781 164.843 176.902 164.707ZM180.608 156.202C180.479 156.051 180.35 155.901 180.221 155.751C180.257 155.829 180.293 155.906 180.33 155.983C180.417 156.065 180.503 156.148 180.59 156.231C180.596 156.221 180.602 156.211 180.608 156.202Z" fill="#854412"/>
<path d="M181.58 171.792C181.575 171.743 181.681 171.98 181.699 171.988C181.777 172.023 181.861 172.184 181.95 172.259C182.081 172.372 182.203 171.962 182.837 173.649C182.837 173.65 182.837 173.65 182.837 173.65C182.843 173.666 182.849 173.683 182.855 173.7C182.975 174.022 183.086 174.38 183.219 174.745C183.352 175.11 184.235 177.457 184.255 177.6C184.277 177.79 183.947 177.227 183.934 177.263C183.925 177.287 183.985 177.508 183.979 177.554C183.958 177.701 183.865 177.557 184.02 178.16C183.882 177.863 183.744 177.566 183.607 177.269C183.628 177.423 183.431 177.036 183.42 177.066C183.411 177.09 183.491 177.336 183.478 177.353C183.465 177.374 183.341 177.122 183.321 177.174C183.289 177.258 183.506 177.895 183.501 177.988C183.494 178.084 183.316 177.759 183.349 177.999C183.367 178.071 183.386 178.142 183.405 178.214C183.465 178.371 183.524 178.527 183.584 178.684C183.586 178.766 183.462 178.446 183.438 178.448C183.409 178.45 183.503 178.762 183.484 178.766C183.469 178.77 183.364 178.53 183.351 178.552C183.33 178.583 183.458 178.937 183.466 179.009C183.469 179.037 183.421 179.273 183.415 179.278C183.369 179.309 183.202 178.821 183.148 178.791C183.001 178.71 183.012 179.144 182.944 179.329C182.914 179.412 182.851 179.4 182.776 179.336C182.482 178.047 182.032 177.108 182.667 179.074C182.529 178.808 182.64 179.356 182.557 179.281C182.503 179.232 182.403 178.962 182.353 178.983C182.267 179.022 182.339 179.841 181.974 178.416C181.918 178.696 181.712 178.193 181.919 179.476C181.898 179.561 181.663 178.819 181.609 178.721C181.557 178.632 181.225 178.328 181.175 178.312C181.126 178.298 181.037 178.285 181.001 178.402C180.968 178.545 180.965 179.895 180.795 178.325C180.671 178.456 180.615 178.41 180.492 178.222C180.469 178.188 180.48 177.954 180.467 177.953C180.44 177.951 180.383 178.121 180.323 178.136C180.225 178.161 180.243 177.665 180.147 178.411C180.062 178.526 179.962 178.637 179.854 178.743C179.854 178.595 179.858 178.447 179.864 178.3C179.786 178.444 179.701 178.585 179.61 178.724C179.955 177.694 179.476 178.215 179.371 178.837C179.243 178.556 179.134 178.262 179.065 177.963C179.706 176.916 178.808 177.625 178.373 178.131C178.35 178.111 178.326 178.09 178.303 178.069C178.304 178.036 178.302 178.005 178.299 177.977C178.276 177.66 177.975 177.645 177.985 177.315C178.017 176.976 178.143 176.936 178.6 176.596C178.551 176.577 178.503 176.556 178.455 176.534C177.707 176.783 177.933 176.587 178.216 176.408C178.495 176.216 178.834 176.06 178.219 176.09C179.134 175.731 178.607 175.727 178.294 175.628C178.258 175.619 178.069 175.643 178.009 175.629C177.861 175.591 178.095 175.45 177.484 175.498C177.657 175.437 177.832 175.384 178.008 175.338C177.895 175.31 177.782 175.28 177.67 175.247C177.479 175.25 177.288 175.253 177.096 175.257C177.747 175.173 177.498 175.073 177.656 175.027C177.688 175.018 177.952 175.025 178.025 175.001C178.112 174.972 178.037 174.908 178.122 174.878C177.831 174.842 177.541 174.804 177.251 174.764C177.099 174.67 177.871 174.72 177.934 174.69C177.945 174.684 177.905 174.553 177.89 174.545C177.768 174.474 177.114 174.391 177.281 174.243C177.312 174.217 177.54 174.234 177.554 174.211C177.577 174.171 177.1 173.932 176.637 173.816C177.233 173.883 177.03 173.683 177.209 173.681C177.263 173.681 177.632 173.772 177.72 173.756C177.791 173.745 177.519 173.587 177.579 173.563C177.644 173.537 177.954 173.614 177.981 173.603C178.006 173.594 177.763 173.504 177.772 173.482C177.802 173.413 178.217 173.48 178.241 173.432C178.276 173.365 177.58 173.044 177.29 172.852C177.343 172.852 177.502 172.892 177.511 172.875C177.618 172.66 177.856 172.465 178.115 172.317C178.179 172.279 178.504 172.328 178.562 172.275C178.614 172.227 178.465 172.082 177.744 171.708C177.505 171.51 178.293 171.568 178.342 171.523C178.389 171.474 178.176 171.241 178.21 171.187C178.322 171.022 178.567 171.07 178.575 170.675C178.578 170.572 178.391 170.243 178.438 170.206C178.494 170.164 178.779 170.385 178.86 170.348C179.038 170.26 179.357 169.897 179.68 169.82C179.737 169.807 179.882 170.083 179.988 170.144C180.389 170.382 180.711 170.289 180.468 169.323C181.09 169.772 181.659 169.271 182.343 169.456C182.903 169.602 183.513 170.038 183.864 170.44C184.231 170.847 184.421 171.187 184.626 171.4C184.71 171.486 184.8 171.559 184.896 171.6C185.237 171.748 185.671 171.63 185.395 172.053C185.331 172.141 185.236 172.235 185.154 172.328C184.963 172.555 184.173 172.818 185.169 172.734C184.941 172.924 185.138 173.003 184.308 173.208C184.511 173.191 184.715 173.173 184.918 173.157C184.925 173.171 184.932 173.185 184.939 173.2C184.747 173.229 184.554 173.258 184.362 173.287C184.322 173.389 185.13 173.425 185.132 173.512C185.138 173.656 184.85 174.002 184.592 174.122C184.456 174.187 184.872 174.172 184.018 174.242C184.078 174.252 184.138 174.262 184.198 174.272C184.386 174.272 184.573 174.272 184.761 174.273C184.772 174.347 184.483 174.443 184.488 174.51C184.498 174.632 185.018 174.804 184.68 174.929C184.595 174.959 184.209 175.001 184.214 175.029C184.22 175.071 184.862 175.074 184.875 175.127C184.895 175.22 184.15 175.389 184.207 175.471C184.224 175.496 184.463 175.506 184.488 175.523C184.598 175.594 184.579 175.652 184.947 175.72C184.333 175.792 183.539 175.786 182.738 175.808C182.134 175.825 180.733 175.876 180.203 175.883C179.831 175.888 179.353 175.869 178.944 175.876C178.617 175.791 178.977 175.756 179.552 175.687C179.529 175.561 179.506 175.437 179.483 175.315C179.706 175.303 179.929 175.29 180.153 175.278C180.153 175.278 180.154 175.278 180.154 175.278C180.412 175.229 179.836 175.213 179.705 175.189C178.453 174.958 179.423 174.513 179.549 174.277C179.576 174.223 179.265 174.103 179.624 174.044C179.717 174.028 180.06 173.993 180.074 173.983C179.863 173.925 179.651 173.878 179.44 173.856C179.96 173.671 179.471 173.612 179.466 173.836C179.466 173.852 179.468 173.87 179.471 173.889C179.505 174.053 179.63 174.541 180.413 174.93C181.235 175.31 182.028 175.05 182.285 174.931C182.844 174.654 182.792 174.629 182.766 174.634C182.763 174.634 182.767 174.641 182.775 174.65C182.811 174.688 182.929 174.775 182.795 174.742C182.727 174.725 182.218 174.509 182.585 174.698C182.448 174.639 182.311 174.58 182.174 174.521C182.329 174.617 182.637 174.76 182.66 174.794C182.679 174.824 182.681 174.882 182.621 174.881C182.591 174.881 182.329 174.787 182.327 174.797C182.325 174.817 182.68 174.969 182.675 174.986C182.67 175.002 182.353 174.945 182.394 174.973C182.538 175.073 182.995 175.211 182.867 175.206C182.83 175.204 182.472 175.158 182.481 175.163C182.501 175.171 182.849 175.22 182.893 175.227C183.119 175.258 182.706 175.207 182.689 175.201C182.619 175.172 182.861 174.996 182.49 174.387C182.392 174.242 182.238 174.011 181.984 173.802C181.592 173.478 181.195 173.405 181.02 173.521C180.952 173.563 180.881 173.942 180.852 173.935C180.822 173.929 180.849 173.671 180.836 173.647C180.747 173.483 180.616 173.226 180.637 173.491C180.638 173.542 180.664 173.842 180.666 173.841C180.666 173.841 180.649 173.636 180.647 173.615C180.638 173.429 180.681 173.545 180.757 173.601C180.91 173.706 181.011 173.283 181.272 173.416C181.329 173.445 181.547 174.001 181.552 173.993C181.563 173.976 181.447 173.593 181.445 173.489C181.437 173.149 181.71 173.507 181.742 173.282C181.758 173.172 181.651 172.67 181.66 172.547C181.667 172.448 181.827 172.602 181.767 172.386C181.731 172.256 181.586 171.847 181.58 171.792ZM182.213 178.674C182.053 178 182.082 178.586 182.213 178.937C182.244 179.016 182.255 178.849 182.213 178.674ZM178.746 173.055C178.564 172.978 178.382 172.901 178.199 172.824C178.269 172.871 178.338 172.918 178.408 172.965C178.521 173.003 178.634 173.041 178.747 173.08C178.747 173.072 178.746 173.064 178.746 173.055Z" fill="#854412"/>
<path d="M166.757 156.011C166.803 155.998 166.565 156.1 166.554 156.11C166.507 156.154 166.343 156.228 166.256 156.286C166.127 156.37 166.477 156.329 164.804 156.998C164.804 156.998 164.804 156.998 164.804 156.999C164.788 157.005 164.771 157.012 164.754 157.018C164.435 157.146 164.084 157.278 163.723 157.421C163.362 157.564 161.034 158.496 160.899 158.538C160.721 158.592 161.303 158.317 161.274 158.32C161.253 158.322 161.039 158.4 160.999 158.408C160.868 158.433 161.018 158.36 160.435 158.569C160.735 158.44 161.035 158.311 161.335 158.181C161.19 158.227 161.583 158.051 161.558 158.053C161.538 158.055 161.297 158.148 161.284 158.147C161.268 158.146 161.522 158.033 161.479 158.037C161.409 158.044 160.782 158.29 160.699 158.311C160.612 158.332 160.944 158.178 160.718 158.251C160.649 158.277 160.579 158.302 160.51 158.328C160.355 158.391 160.2 158.455 160.045 158.518C159.969 158.539 160.287 158.409 160.29 158.4C160.294 158.389 159.99 158.505 159.989 158.499C159.989 158.494 160.229 158.392 160.211 158.392C160.187 158.392 159.838 158.533 159.77 158.555C159.744 158.563 159.537 158.606 159.534 158.605C159.514 158.596 159.993 158.404 160.03 158.376C160.132 158.299 159.731 158.419 159.573 158.447C159.502 158.46 159.525 158.435 159.596 158.391C160.831 157.926 161.768 157.502 159.855 158.279C160.122 158.156 159.6 158.351 159.682 158.302C159.735 158.27 159.999 158.159 159.987 158.149C159.964 158.131 159.196 158.404 160.562 157.858C160.31 157.926 160.798 157.707 159.585 158.173C159.509 158.194 160.222 157.893 160.316 157.847C160.405 157.804 160.708 157.619 160.723 157.603C160.737 157.586 160.751 157.562 160.642 157.596C160.506 157.637 159.249 158.119 160.709 157.53C160.582 157.555 160.621 157.532 160.785 157.446C160.814 157.431 161.032 157.346 161.031 157.344C161.03 157.34 160.866 157.395 160.843 157.395C160.806 157.395 161.262 157.211 160.562 157.484C160.442 157.521 160.321 157.558 160.2 157.596C160.334 157.54 160.469 157.485 160.603 157.43C160.454 157.483 160.305 157.535 160.156 157.588C161.172 157.201 160.561 157.402 159.983 157.636C160.187 157.539 160.391 157.442 160.594 157.346C161.749 156.905 160.714 157.26 160.088 157.504C160.088 157.502 160.089 157.5 160.089 157.497C160.389 157.364 160.133 157.445 160.331 157.347C160.53 157.249 160.643 157.208 161.172 156.999C161.14 157.006 161.107 157.013 161.075 157.02C159.61 157.55 162.133 156.596 161 156.98C161.911 156.62 161.418 156.771 161.132 156.854C161.099 156.864 160.921 156.931 160.865 156.948C160.73 156.989 160.951 156.883 160.377 157.098C160.541 157.029 160.704 156.959 160.867 156.89C160.761 156.923 160.654 156.956 160.547 156.989C160.368 157.056 160.189 157.123 160.009 157.19C160.616 156.95 160.374 157.018 160.517 156.955C160.546 156.942 160.793 156.849 160.859 156.819C160.936 156.782 160.858 156.797 160.933 156.76C160.657 156.859 160.382 156.957 160.106 157.055C159.952 157.095 160.674 156.823 160.728 156.794C160.737 156.789 160.674 156.78 160.658 156.784C160.531 156.817 159.915 157.046 160.034 156.961C160.055 156.946 160.267 156.863 160.274 156.854C160.285 156.838 159.789 156.982 159.339 157.141C159.896 156.925 159.654 156.973 159.812 156.904C159.861 156.883 160.219 156.755 160.292 156.718C160.351 156.688 160.058 156.771 160.102 156.744C160.151 156.715 160.45 156.605 160.47 156.593C160.488 156.581 160.244 156.663 160.243 156.657C160.245 156.635 160.631 156.481 160.633 156.464C160.637 156.439 159.91 156.672 159.583 156.764C159.628 156.743 159.781 156.685 159.781 156.68C159.783 156.612 159.893 156.497 160.028 156.385C160.089 156.331 161.052 155.942 159.413 156.494C159.122 156.576 159.761 156.286 159.766 156.269C159.772 156.251 159.472 156.332 159.464 156.322C159.44 156.289 159.646 156.199 159.374 156.232C159.302 156.24 158.947 156.332 158.948 156.324C158.952 156.313 159.289 156.202 159.308 156.185C159.345 156.148 159.243 156.129 159.263 156.093C159.265 156.089 159.269 156.085 159.273 156.081C159.283 156.073 159.583 155.987 159.675 155.954C160.035 155.825 159.995 155.807 159.036 156.075C159.572 155.89 159.066 155.993 159.026 155.966C158.944 155.908 159.137 155.72 158.713 155.743C158.446 155.757 158.009 155.852 158.371 155.701C158.451 155.667 158.561 155.629 158.657 155.59C158.883 155.496 159.686 155.305 158.704 155.46C158.948 155.365 158.761 155.356 159.593 155.177C159.391 155.208 159.189 155.239 158.988 155.269C158.982 155.264 158.976 155.259 158.97 155.254C159.161 155.219 159.353 155.185 159.544 155.151C159.59 155.106 158.792 155.178 158.791 155.138C158.79 155.073 159.077 154.869 159.333 154.786C159.469 154.743 159.054 154.782 159.904 154.681C159.845 154.68 159.785 154.68 159.725 154.68C159.538 154.694 159.351 154.707 159.164 154.72C159.152 154.681 159.439 154.611 159.433 154.576C159.422 154.515 158.901 154.441 159.237 154.362C159.322 154.342 159.708 154.309 159.703 154.295C159.696 154.275 159.055 154.29 159.042 154.262C159.021 154.212 159.765 154.12 159.708 154.087C159.691 154.076 159.452 154.073 159.427 154.066C159.317 154.035 159.337 154.011 158.968 153.985C159.582 153.955 160.376 153.958 161.177 153.95C161.782 153.944 163.182 153.926 163.712 153.923C164.084 153.921 164.562 153.928 164.972 153.926C165.298 153.955 164.939 153.965 164.363 153.988C164.386 154.026 164.409 154.058 164.432 154.085C164.209 154.092 163.986 154.098 163.762 154.106C163.762 154.106 163.761 154.106 163.761 154.106C163.503 154.124 164.079 154.116 164.209 154.117C165.461 154.13 164.484 154.194 164.35 154.266C164.322 154.279 164.623 154.261 164.265 154.32C164.172 154.335 163.831 154.386 163.816 154.39C164.022 154.379 164.227 154.363 164.431 154.342C163.91 154.471 164.354 154.434 164.442 154.449C164.559 154.475 164.688 154.497 164.786 154.529C164.889 154.561 164.958 154.611 164.941 154.696C164.934 154.728 165.191 154.682 165.042 154.761C164.98 154.795 164.458 154.977 164.854 154.861C164.713 154.909 164.572 154.957 164.43 155.005C164.606 154.961 164.93 154.86 164.968 154.864C164.999 154.868 165.032 154.895 164.982 154.926C164.957 154.941 164.694 155.031 164.697 155.036C164.705 155.045 165.075 154.938 165.08 154.951C165.084 154.963 164.789 155.091 164.837 155.086C165.005 155.065 165.465 154.94 165.359 155.021C165.328 155.043 164.994 155.18 165.005 155.18C165.027 155.179 165.357 155.06 165.401 155.049C165.623 154.992 165.244 155.169 165.236 155.197C165.212 155.285 165.383 155.307 165.35 155.401C165.329 155.46 165.416 155.514 165.186 155.651C165.137 155.681 164.777 155.817 164.78 155.825C164.784 155.834 165.028 155.745 165.049 155.741C165.197 155.716 165.465 155.682 165.228 155.805C165.183 155.828 164.903 155.942 164.906 155.944C164.906 155.946 165.099 155.874 165.121 155.872C165.31 155.846 165.211 155.921 165.162 155.989C165.069 156.118 165.462 156.071 165.303 156.232C165.269 156.267 164.72 156.5 164.727 156.501C164.74 156.502 165.114 156.358 165.211 156.333C165.529 156.251 165.152 156.462 165.354 156.425C165.453 156.406 165.935 156.243 166.047 156.219C166.136 156.2 165.965 156.308 166.175 156.232C166.301 156.186 166.705 156.027 166.757 156.011ZM160.292 158.012C160.938 157.76 160.391 157.943 160.049 158.09C159.973 158.124 160.125 158.077 160.292 158.012ZM160.902 156.208C160.715 156.272 160.527 156.336 160.34 156.4C160.42 156.378 160.499 156.356 160.578 156.333C160.69 156.292 160.802 156.252 160.914 156.211C160.91 156.21 160.906 156.209 160.902 156.208Z" fill="#854412"/>
<path d="M200.704 151.576C200.741 151.545 200.555 151.726 200.547 151.738C200.513 151.788 200.386 151.916 200.321 151.995C200.224 152.114 200.504 151.912 199.225 153.182C199.225 153.182 199.225 153.182 199.225 153.182C199.213 153.194 199.2 153.207 199.187 153.22C198.943 153.461 198.672 153.72 198.395 153.992C198.118 154.264 196.335 156.028 196.225 156.117C196.078 156.233 196.506 155.75 196.479 155.764C196.46 155.773 196.291 155.925 196.256 155.947C196.142 156.017 196.253 155.892 195.786 156.3C196.014 156.066 196.243 155.834 196.472 155.601C196.353 155.696 196.652 155.385 196.63 155.396C196.611 155.405 196.421 155.579 196.407 155.582C196.391 155.587 196.587 155.388 196.547 155.407C196.483 155.437 195.986 155.892 195.913 155.939C195.837 155.987 196.091 155.722 195.903 155.868C195.847 155.916 195.79 155.964 195.734 156.012C195.611 156.126 195.489 156.241 195.367 156.355C195.302 156.4 195.553 156.165 195.551 156.154C195.549 156.141 195.304 156.355 195.3 156.349C195.297 156.343 195.485 156.162 195.467 156.167C195.443 156.173 195.165 156.427 195.108 156.47C195.086 156.486 194.897 156.587 194.893 156.587C194.867 156.58 195.252 156.237 195.275 156.195C195.337 156.079 194.994 156.319 194.844 156.386C194.777 156.417 194.786 156.381 194.836 156.313C195.859 155.479 196.603 154.768 195.043 156.121C195.253 155.915 194.818 156.263 194.876 156.186C194.914 156.136 195.128 155.945 195.11 155.935C195.078 155.92 194.422 156.404 195.556 155.467C195.332 155.602 195.727 155.242 194.704 156.042C194.634 156.082 195.223 155.58 195.299 155.506C195.37 155.436 195.596 155.159 195.604 155.137C195.612 155.115 195.615 155.085 195.518 155.145C195.399 155.221 194.316 156.022 195.559 155.055C195.44 155.109 195.47 155.073 195.601 154.943C195.625 154.92 195.813 154.781 195.812 154.779C195.809 154.774 195.664 154.869 195.641 154.873C195.603 154.88 195.996 154.584 195.389 155.026C195.28 155.091 195.171 155.155 195.061 155.219C195.177 155.131 195.292 155.043 195.408 154.955C195.276 155.042 195.143 155.129 195.011 155.215C195.901 154.591 195.354 154.928 194.852 155.299C195.022 155.149 195.193 155.002 195.365 154.855C196.383 154.154 195.456 154.736 194.903 155.117C194.902 155.114 194.901 155.111 194.9 155.108C195.158 154.904 194.925 155.038 195.091 154.89C195.259 154.744 195.361 154.68 195.831 154.361C195.801 154.374 195.77 154.387 195.74 154.4C194.416 155.223 196.683 153.76 195.65 154.363C196.466 153.822 196.014 154.069 195.746 154.2C195.715 154.215 195.553 154.315 195.501 154.342C195.375 154.406 195.569 154.255 195.045 154.574C195.191 154.473 195.338 154.373 195.485 154.273C195.386 154.324 195.286 154.375 195.186 154.424C195.021 154.523 194.857 154.621 194.693 154.719C195.244 154.369 195.015 154.475 195.143 154.385C195.169 154.366 195.397 154.233 195.455 154.19C195.525 154.139 195.449 154.165 195.515 154.114C195.26 154.257 195.004 154.398 194.748 154.54C194.599 154.6 195.267 154.212 195.314 154.173C195.322 154.166 195.256 154.162 195.24 154.168C195.118 154.218 194.545 154.54 194.644 154.428C194.662 154.407 194.859 154.293 194.863 154.282C194.871 154.262 194.397 154.469 193.974 154.69C194.493 154.394 194.256 154.469 194.403 154.377C194.448 154.349 194.785 154.173 194.852 154.126C194.906 154.088 194.626 154.207 194.666 154.174C194.71 154.138 194.992 153.989 195.01 153.974C195.026 153.961 194.795 154.074 194.794 154.068C194.793 154.047 195.155 153.843 195.156 153.828C195.158 153.805 194.469 154.135 194.161 154.277C194.204 154.252 194.348 154.175 194.348 154.171C194.351 154.123 194.466 154.042 194.617 153.977C194.689 153.951 195.587 153.434 194.118 154.345C193.868 154.518 194.521 154.239 194.544 154.25C194.568 154.265 194.34 154.477 194.356 154.503C194.402 154.578 194.578 154.497 194.535 154.699C194.532 154.719 194.526 154.74 194.518 154.765C194.493 154.839 194.278 155.139 194.299 155.152C194.326 155.167 194.577 154.914 194.614 154.915C194.701 154.922 194.736 155.091 194.821 155.073C194.837 155.069 195.01 154.809 195.073 154.733C195.317 154.437 195.326 154.48 194.83 155.343C195.17 154.886 194.97 155.363 195.018 155.42C195.118 155.539 195.339 155.368 195.281 155.785C195.249 156.05 195.146 156.486 195.297 156.126C195.329 156.045 195.366 155.935 195.4 155.838C195.484 155.611 195.643 154.801 195.478 155.782C195.543 155.532 195.53 155.715 195.66 154.874C195.631 155.076 195.602 155.278 195.574 155.48C195.575 155.485 195.575 155.49 195.576 155.496C195.603 155.303 195.63 155.11 195.657 154.918C195.664 154.866 195.572 155.66 195.58 155.655C195.593 155.647 195.619 155.338 195.623 155.075C195.626 154.935 195.603 155.351 195.648 154.496C195.643 154.556 195.638 154.615 195.633 154.674C195.622 154.862 195.611 155.049 195.6 155.236C195.594 155.243 195.597 154.952 195.586 154.954C195.567 154.959 195.525 155.475 195.509 155.135C195.505 155.05 195.504 154.663 195.497 154.667C195.487 154.673 195.476 155.315 195.465 155.326C195.447 155.346 195.409 154.6 195.385 154.657C195.378 154.673 195.374 154.912 195.369 154.938C195.348 155.047 195.331 155.028 195.31 155.397C195.288 154.782 195.29 153.988 195.283 153.187C195.278 152.583 195.261 151.182 195.258 150.652C195.256 150.28 195.263 149.802 195.26 149.393C195.289 149.066 195.302 149.426 195.326 150.002C195.371 149.979 195.419 149.956 195.469 149.933C195.472 150.157 195.475 150.38 195.477 150.604C195.477 150.604 195.477 150.605 195.477 150.605C195.494 150.863 195.507 150.288 195.519 150.157C195.636 148.907 195.873 149.893 196.008 150.046C196.036 150.077 196.182 149.788 196.17 150.152C196.167 150.247 196.131 150.59 196.136 150.605C196.214 150.408 196.301 150.212 196.404 150.021C196.46 150.571 196.683 150.164 196.909 150.142C197.297 150.097 197.914 150.136 198.506 150.609C198.77 150.823 198.946 151.056 199.029 151.235C199.081 151.347 199.366 151.329 199.254 151.471C199.208 151.531 198.723 151.799 199.103 151.635C198.971 151.704 198.839 151.774 198.707 151.843C198.878 151.782 199.187 151.641 199.23 151.648C199.266 151.656 199.307 151.688 199.262 151.725C199.24 151.744 198.99 151.868 198.994 151.873C199.003 151.881 199.356 151.726 199.362 151.736C199.366 151.746 199.089 151.908 199.134 151.893C199.293 151.842 199.723 151.637 199.618 151.711C199.589 151.732 199.276 151.913 199.285 151.91C199.305 151.902 199.612 151.732 199.653 151.712C199.855 151.607 199.499 151.824 199.489 151.841C199.458 151.894 199.603 151.837 199.564 151.895C199.541 151.934 199.608 151.923 199.406 152.093C199.362 152.13 199.049 152.353 199.051 152.357C199.055 152.361 199.267 152.211 199.285 152.201C199.413 152.127 199.641 151.994 199.438 152.165C199.399 152.198 199.161 152.382 199.163 152.383C199.163 152.384 199.328 152.261 199.346 152.25C199.509 152.156 199.424 152.242 199.385 152.307C199.313 152.43 199.643 152.229 199.522 152.405C199.496 152.444 199.055 152.844 199.061 152.842C199.073 152.837 199.375 152.574 199.454 152.514C199.715 152.318 199.421 152.63 199.587 152.514C199.669 152.457 200.054 152.123 200.143 152.054C200.214 151.999 200.084 152.151 200.249 152C200.348 151.909 200.663 151.612 200.704 151.576ZM195.355 155.706C195.891 155.268 195.422 155.604 195.144 155.852C195.082 155.908 195.216 155.82 195.355 155.706ZM195.405 153.574C195.23 153.666 195.054 153.757 194.879 153.849C194.953 153.813 195.027 153.776 195.101 153.741C195.206 153.685 195.311 153.629 195.416 153.572C195.412 153.573 195.409 153.573 195.405 153.574Z" fill="#854412"/>
<path d="M108.485 124.228C108.527 124.204 108.316 124.355 108.307 124.367C108.27 124.419 108.125 124.526 108.052 124.6C107.943 124.709 108.277 124.595 106.778 125.596C106.778 125.596 106.778 125.596 106.778 125.596C106.764 125.606 106.749 125.616 106.734 125.626C106.448 125.817 106.133 126.019 105.809 126.234C105.486 126.449 103.402 127.845 103.28 127.915C103.118 128.007 103.634 127.622 103.606 127.632C103.587 127.639 103.394 127.761 103.357 127.778C103.238 127.834 103.37 127.732 102.847 128.064C103.113 127.875 103.38 127.687 103.646 127.498C103.516 127.575 103.864 127.322 103.841 127.33C103.822 127.337 103.606 127.479 103.594 127.482C103.578 127.486 103.804 127.322 103.763 127.337C103.698 127.361 103.139 127.737 103.063 127.777C102.984 127.818 103.278 127.599 103.075 127.722C103.013 127.762 102.951 127.803 102.889 127.843C102.751 127.938 102.613 128.033 102.475 128.129C102.407 128.167 102.689 127.972 102.691 127.963C102.694 127.953 102.423 128.134 102.421 128.129C102.421 128.126 102.633 127.974 102.617 127.979C102.594 127.986 102.284 128.2 102.223 128.236C102.2 128.25 102.012 128.344 102.009 128.344C101.99 128.343 102.415 128.05 102.446 128.017C102.532 127.925 102.173 128.138 102.03 128.208C101.966 128.239 101.984 128.212 102.045 128.156C103.141 127.42 103.963 126.802 102.273 127.99C102.507 127.813 102.044 128.123 102.115 128.06C102.161 128.019 102.394 127.851 102.381 127.846C102.358 127.839 101.679 128.288 102.882 127.442C102.656 127.571 103.082 127.249 102.013 127.987C101.945 128.028 102.57 127.572 102.652 127.506C102.73 127.444 102.988 127.205 102.999 127.187C103.011 127.169 103.02 127.145 102.923 127.205C102.803 127.279 101.7 128.053 102.977 127.131C102.863 127.191 102.896 127.16 103.036 127.041C103.061 127.019 103.252 126.883 103.251 126.882C103.249 126.879 103.105 126.974 103.084 126.981C103.05 126.993 103.447 126.703 102.836 127.14C102.729 127.207 102.623 127.275 102.516 127.342C102.633 127.256 102.75 127.17 102.866 127.084C102.735 127.173 102.605 127.262 102.474 127.351C103.361 126.722 102.824 127.074 102.322 127.444C102.497 127.303 102.672 127.161 102.848 127.019C103.853 126.3 102.947 126.913 102.403 127.308C102.403 127.306 102.403 127.304 102.403 127.302C102.662 127.1 102.437 127.247 102.606 127.105C102.776 126.963 102.874 126.894 103.332 126.557C103.303 126.573 103.274 126.589 103.246 126.605C101.972 127.503 104.159 125.922 103.171 126.597C103.957 126.012 103.524 126.291 103.273 126.452C103.244 126.47 103.091 126.583 103.042 126.615C102.924 126.693 103.111 126.535 102.617 126.897C102.757 126.788 102.896 126.678 103.036 126.569C102.943 126.631 102.85 126.693 102.758 126.755C102.603 126.868 102.449 126.982 102.295 127.095C102.815 126.701 102.604 126.837 102.725 126.739C102.749 126.719 102.962 126.562 103.017 126.515C103.082 126.46 103.013 126.498 103.076 126.444C102.839 126.615 102.602 126.787 102.366 126.959C102.232 127.044 102.85 126.582 102.894 126.541C102.902 126.534 102.844 126.549 102.83 126.558C102.719 126.628 102.193 127.022 102.289 126.916C102.307 126.897 102.487 126.757 102.491 126.748C102.5 126.732 102.072 127.022 101.689 127.306C102.162 126.942 101.952 127.068 102.085 126.958C102.126 126.924 102.429 126.695 102.49 126.641C102.539 126.597 102.287 126.768 102.323 126.732C102.363 126.692 102.616 126.498 102.632 126.481C102.647 126.466 102.44 126.619 102.438 126.615C102.437 126.599 102.76 126.338 102.759 126.324C102.759 126.303 102.143 126.755 101.866 126.95C101.903 126.918 102.032 126.816 102.031 126.812C102.025 126.765 102.108 126.642 102.211 126.509C102.259 126.447 103.046 125.772 101.69 126.845C101.448 127.027 101.967 126.559 101.969 126.545C101.972 126.531 101.724 126.717 101.716 126.714C101.691 126.705 101.857 126.554 101.629 126.702C101.57 126.74 101.277 126.963 101.278 126.957C101.28 126.95 101.555 126.724 101.568 126.705C101.599 126.662 101.491 126.713 101.529 126.663C101.537 126.653 101.78 126.458 101.853 126.394C102.141 126.143 102.104 126.151 101.33 126.777C101.759 126.408 101.345 126.716 101.31 126.723C101.236 126.735 101.371 126.532 101.024 126.768C100.804 126.917 100.458 127.199 100.735 126.929C100.797 126.869 100.881 126.79 100.954 126.717C101.125 126.548 101.752 126.012 100.967 126.622C101.15 126.438 100.992 126.533 101.641 125.983C101.48 126.108 101.319 126.234 101.158 126.359C101.152 126.359 101.145 126.359 101.139 126.36C101.29 126.237 101.441 126.115 101.592 125.992C101.616 125.938 100.965 126.404 100.949 126.373C100.927 126.331 101.066 126.001 101.226 125.769C101.308 125.659 101.012 125.845 101.528 125.476C101.568 125.448 101.613 125.416 101.663 125.381C101.607 125.404 101.551 125.427 101.494 125.449C101.332 125.543 101.169 125.637 101.006 125.729C100.955 125.662 101.147 125.415 101.096 125.319C101.045 125.224 100.86 125.151 100.694 124.919C100.534 124.701 100.379 124.236 100.615 123.676C100.732 123.396 101.21 123.132 101.346 122.88C101.545 122.526 101.143 121.978 101.599 121.581C101.992 121.26 102.517 121.259 102.79 121.371C103.08 121.478 103.216 121.641 103.287 121.604C103.327 121.583 103.325 121.343 103.35 121.316C103.455 121.198 103.516 121.217 103.568 120.847C103.633 121.461 103.623 122.255 103.637 123.056C103.646 123.66 103.661 125.061 103.663 125.591C103.665 125.962 103.659 126.441 103.661 126.85C103.639 127.177 103.65 126.817 103.651 126.241C103.689 126.256 103.745 126.311 104.157 126.227C104.133 126.001 104.1 125.777 104.056 125.555C104.056 125.554 104.056 125.554 104.055 125.553C104.091 125.265 104.421 125.744 104.659 125.744C105.069 125.796 105.79 125.272 106.017 124.578C106.252 123.915 106.156 123.477 106.084 123.25C105.914 122.797 105.686 122.83 105.536 122.845C105.458 122.858 105.4 122.886 105.374 122.898C105.345 122.91 105.591 122.736 105.309 122.965C105.236 123.025 104.964 123.237 104.954 123.248C105.127 123.137 105.302 123.027 105.477 122.918C105.093 123.295 105.479 123.069 105.586 123.069C105.875 123.07 106.214 123.058 106.271 123.266C106.281 123.305 106.516 123.187 106.407 123.318C106.361 123.373 105.927 123.715 106.266 123.48C106.148 123.571 106.03 123.662 105.912 123.753C106.065 123.657 106.341 123.46 106.381 123.455C106.414 123.451 106.458 123.473 106.422 123.519C106.404 123.543 106.181 123.709 106.186 123.714C106.197 123.721 106.52 123.509 106.53 123.522C106.539 123.535 106.299 123.748 106.343 123.73C106.5 123.665 106.908 123.416 106.834 123.529C106.813 123.561 106.532 123.79 106.543 123.787C106.564 123.781 106.847 123.573 106.887 123.551C107.085 123.435 106.774 123.716 106.776 123.747C106.782 123.845 106.958 123.827 106.953 123.93C106.951 123.997 107.051 124.03 106.864 124.222C106.824 124.264 106.509 124.485 106.514 124.492C106.52 124.499 106.734 124.353 106.754 124.344C106.891 124.284 107.144 124.187 106.944 124.364C106.906 124.398 106.662 124.575 106.665 124.577C106.666 124.579 106.836 124.463 106.856 124.455C107.035 124.386 106.956 124.482 106.924 124.559C106.864 124.707 107.235 124.57 107.115 124.762C107.089 124.803 106.606 125.151 106.612 125.15C106.626 125.148 106.958 124.925 107.047 124.879C107.338 124.729 107.016 125.015 107.204 124.933C107.296 124.893 107.732 124.629 107.836 124.582C107.919 124.544 107.774 124.686 107.963 124.567C108.077 124.495 108.437 124.254 108.485 124.228ZM102.649 127.646C103.219 127.252 102.733 127.562 102.433 127.781C102.365 127.831 102.501 127.748 102.649 127.646ZM102.959 126.029C102.802 126.15 102.646 126.27 102.489 126.391C102.556 126.343 102.623 126.296 102.69 126.248C102.784 126.174 102.877 126.1 102.97 126.026C102.967 126.027 102.963 126.028 102.959 126.029Z" fill="#E1C07B"/>
<path d="M106.162 149.573C106.191 149.612 106 149.437 105.984 149.433C105.916 149.417 105.779 149.299 105.684 149.25C105.543 149.177 105.685 149.517 104.411 148.242C104.411 148.242 104.411 148.242 104.411 148.242C104.398 148.23 104.386 148.217 104.373 148.204C104.13 147.961 103.874 147.688 103.6 147.412C103.327 147.136 101.553 145.364 101.465 145.252C101.351 145.104 101.846 145.518 101.835 145.489C101.827 145.469 101.674 145.3 101.653 145.263C101.586 145.146 101.717 145.25 101.301 144.791C101.541 145.012 101.781 145.233 102.021 145.455C101.926 145.336 102.249 145.622 102.239 145.598C102.231 145.578 102.052 145.393 102.049 145.378C102.045 145.361 102.254 145.547 102.236 145.504C102.209 145.436 101.734 144.959 101.685 144.887C101.634 144.813 101.914 145.05 101.761 144.868C101.71 144.814 101.659 144.76 101.608 144.706C101.488 144.59 101.367 144.474 101.246 144.358C101.199 144.295 101.446 144.533 101.458 144.53C101.471 144.527 101.244 144.294 101.25 144.29C101.256 144.286 101.448 144.463 101.442 144.446C101.435 144.421 101.164 144.159 101.118 144.105C101.1 144.084 100.984 143.905 100.984 143.902C100.987 143.877 101.357 144.236 101.401 144.256C101.52 144.31 101.252 143.988 101.164 143.851C101.125 143.79 101.159 143.799 101.23 143.843C102.166 144.775 102.953 145.437 101.441 144.03C101.667 144.219 101.272 143.826 101.352 143.878C101.404 143.912 101.618 144.103 101.624 144.086C101.633 144.054 101.056 143.48 102.14 144.474C101.972 144.274 102.386 144.612 101.434 143.728C101.38 143.67 101.966 144.176 102.05 144.239C102.129 144.299 102.433 144.483 102.456 144.487C102.477 144.492 102.506 144.492 102.426 144.41C102.327 144.308 101.311 143.424 102.516 144.439C102.434 144.339 102.472 144.363 102.625 144.466C102.653 144.484 102.832 144.634 102.834 144.633C102.837 144.629 102.709 144.512 102.698 144.493C102.679 144.462 103.063 144.769 102.482 144.292C102.389 144.207 102.296 144.121 102.203 144.037C102.317 144.127 102.431 144.216 102.545 144.306C102.425 144.203 102.304 144.102 102.182 144C103.028 144.683 102.543 144.262 102.049 143.881C102.231 144.014 102.415 144.144 102.6 144.272C103.58 145.025 102.732 144.335 102.189 143.938C102.19 143.938 102.192 143.938 102.193 143.938C102.461 144.128 102.247 143.965 102.43 144.089C102.613 144.211 102.712 144.28 103.181 144.602C103.156 144.58 103.13 144.56 103.105 144.539C101.816 143.663 104.065 145.153 103.074 144.486C103.907 145.001 103.487 144.7 103.224 144.562C103.194 144.545 103.027 144.453 102.975 144.426C102.85 144.362 103.062 144.483 102.514 144.207C102.669 144.295 102.825 144.38 102.983 144.461C102.88 144.418 102.776 144.377 102.67 144.341C102.495 144.263 102.32 144.185 102.145 144.107C102.731 144.395 102.489 144.325 102.625 144.407C102.653 144.422 102.901 144.515 102.965 144.549C103.041 144.589 102.959 144.588 103.032 144.632C102.749 144.558 102.464 144.491 102.178 144.431C102.005 144.467 102.753 144.662 102.806 144.704C102.814 144.708 102.741 144.833 102.725 144.85C102.595 144.923 101.915 144.834 102.088 145.246C102.123 145.32 102.357 145.342 102.38 145.405C102.401 145.493 102.07 146.077 101.693 146.367C102.072 146.337 102.242 146.503 102.393 146.646C102.488 146.736 102.565 146.812 102.651 146.797C102.714 146.785 102.988 146.522 103.101 146.514C103.188 146.504 103.139 146.846 103.224 146.838C103.314 146.83 103.491 146.562 103.521 146.553C103.548 146.544 103.445 146.782 103.471 146.793C103.558 146.827 103.769 146.464 103.796 146.465C103.836 146.468 103.636 147.205 103.598 147.546C103.623 147.502 103.674 147.346 103.683 147.346C103.803 147.351 103.861 147.212 103.874 147.05C103.891 146.976 103.917 145.939 103.822 147.665C103.809 147.968 103.824 147.271 103.811 147.26C103.805 147.249 103.793 147.559 103.788 147.564C103.773 147.577 103.76 147.354 103.736 147.624C103.73 147.694 103.728 148.062 103.725 148.057C103.721 148.052 103.71 147.696 103.703 147.674C103.686 147.623 103.659 147.741 103.639 147.68C103.636 147.668 103.623 147.357 103.615 147.259C103.581 146.88 103.557 146.914 103.606 147.908C103.557 147.345 103.557 147.861 103.538 147.894C103.495 147.961 103.381 147.735 103.366 148.157C103.356 148.422 103.396 148.867 103.319 148.487C103.302 148.402 103.282 148.288 103.261 148.188C103.212 147.951 103.106 147.132 103.176 148.125C103.117 147.871 103.109 148.056 102.999 147.212C103.016 147.415 103.033 147.619 103.05 147.822C103.046 147.827 103.042 147.833 103.038 147.838C103.018 147.645 102.997 147.451 102.976 147.258C102.938 147.209 102.981 148.008 102.954 148.005C102.909 148.001 102.759 147.705 102.684 147.449C102.645 147.314 102.691 147.728 102.58 146.879C102.581 146.938 102.583 146.998 102.584 147.058C102.602 147.245 102.62 147.431 102.638 147.618C102.609 147.629 102.539 147.344 102.51 147.35C102.457 147.363 102.437 147.885 102.342 147.555C102.318 147.472 102.254 147.09 102.241 147.096C102.222 147.104 102.295 147.742 102.271 147.757C102.231 147.781 102.058 147.052 102.023 147.113C102.013 147.131 102.037 147.369 102.031 147.395C102.009 147.508 101.977 147.493 101.988 147.863C101.875 147.258 101.78 146.47 101.669 145.676C101.585 145.078 101.384 143.691 101.315 143.166C101.266 142.797 101.217 142.321 101.162 141.916C101.167 141.586 101.23 141.94 101.338 142.507C101.403 142.476 101.468 142.445 101.534 142.414C101.568 142.635 101.601 142.856 101.635 143.077C101.635 143.077 101.635 143.078 101.635 143.078C101.693 143.331 101.634 142.758 101.632 142.627C101.616 141.369 102.012 142.307 102.184 142.43C102.221 142.456 102.3 142.145 102.362 142.503C102.378 142.596 102.416 142.939 102.424 142.953C102.46 142.743 102.497 142.533 102.537 142.324C102.71 142.845 102.794 142.393 102.919 142.3C103.256 142.052 103.62 141.752 104.156 141.862C104.258 141.884 104.432 141.64 104.549 141.823C104.6 141.899 104.532 142.448 104.674 142.054C104.651 142.201 104.627 142.348 104.603 142.495C104.695 142.328 104.798 142.002 104.9 141.988C104.976 141.974 105.219 142.015 105.296 142.104C105.336 142.147 105.227 142.404 105.269 142.418C105.333 142.435 105.667 142.153 105.819 142.234C105.961 142.304 106.028 142.727 106.172 142.788C106.334 142.85 106.551 142.936 106.77 143.071C107.277 143.371 107.755 144.037 107.717 144.589C107.709 144.823 107.343 145.045 107.351 145.087C107.368 145.181 107.715 145.235 107.754 145.31C107.948 145.694 107.431 145.984 107.362 146.117C107.115 146.627 107.067 146.95 106.869 147.134C106.743 147.247 106.654 147.464 106.379 147.383C106.32 147.366 106.025 147.12 106.013 147.134C106 147.15 106.193 147.324 106.204 147.345C106.275 147.49 106.377 147.775 106.137 147.646C106.091 147.621 105.859 147.428 105.856 147.434C105.854 147.436 106.003 147.578 106.012 147.599C106.089 147.793 105.955 147.763 105.846 147.778C105.638 147.808 105.791 148.202 105.531 148.172C105.475 148.166 105.032 147.767 105.033 147.775C105.034 147.79 105.317 148.075 105.373 148.159C105.557 148.436 105.186 148.204 105.284 148.39C105.332 148.483 105.663 148.872 105.72 148.974C105.766 149.055 105.583 148.956 105.734 149.121C105.825 149.221 106.13 149.529 106.162 149.573ZM101.879 144.302C102.383 144.778 101.987 144.358 101.706 144.115C101.643 144.06 101.749 144.179 101.879 144.302ZM103.994 146.173C103.961 146.368 103.927 146.563 103.894 146.758C103.906 146.677 103.919 146.595 103.932 146.514C103.954 146.397 103.976 146.28 103.996 146.163C103.996 146.166 103.995 146.17 103.994 146.173Z" fill="#E1C07B"/>
<path d="M126.494 136.691C126.529 136.725 126.386 136.509 126.384 136.493C126.379 136.422 126.281 136.271 126.242 136.172C126.176 136.034 126.535 136.167 125.275 134.877C125.275 134.876 125.275 134.876 125.275 134.876C125.263 134.864 125.251 134.851 125.238 134.838C125 134.591 124.74 134.32 124.474 134.037C124.208 133.754 122.48 131.937 122.41 131.81C122.321 131.638 122.826 132.05 122.82 132.019C122.818 131.995 122.686 131.808 122.676 131.764C122.646 131.621 122.769 131.736 122.447 131.203C122.663 131.449 122.874 131.699 123.081 131.952C123.015 131.813 123.293 132.144 123.29 132.117C123.288 132.095 123.149 131.877 123.154 131.86C123.158 131.839 123.329 132.06 123.326 132.012C123.322 131.934 122.972 131.359 122.953 131.27C122.934 131.178 123.16 131.469 123.073 131.246C123.04 131.18 123.007 131.113 122.975 131.046C122.888 130.903 122.802 130.76 122.715 130.616C122.695 130.538 122.873 130.831 122.893 130.827C122.915 130.823 122.768 130.533 122.783 130.526C122.795 130.521 122.935 130.742 122.941 130.721C122.951 130.69 122.769 130.36 122.749 130.291C122.74 130.264 122.735 130.033 122.739 130.028C122.772 129.995 123.003 130.456 123.05 130.483C123.179 130.557 123.082 130.144 123.098 129.966C123.103 129.887 123.151 129.9 123.214 129.963C123.668 131.203 124.139 132.121 123.338 130.217C123.48 130.477 123.301 129.948 123.369 130.023C123.412 130.073 123.526 130.335 123.552 130.318C123.593 130.287 123.39 129.496 123.878 130.884C123.849 130.62 124.053 131.115 123.684 129.87C123.677 129.789 123.943 130.516 123.987 130.613C124.031 130.702 124.23 131.009 124.249 131.024C124.27 131.038 124.304 131.052 124.289 130.938C124.267 130.798 123.956 129.487 124.369 131.007C124.372 130.875 124.398 130.915 124.47 131.086C124.483 131.117 124.536 131.345 124.539 131.344C124.546 131.343 124.518 131.172 124.526 131.149C124.538 131.111 124.654 131.589 124.492 130.855C124.479 130.729 124.467 130.603 124.455 130.477C124.49 130.617 124.524 130.758 124.559 130.899C124.534 130.743 124.509 130.587 124.485 130.43C124.693 131.498 124.616 130.859 124.479 130.25C124.551 130.465 124.621 130.681 124.687 130.897C124.906 132.113 124.764 131.028 124.647 130.367C124.65 130.367 124.654 130.367 124.657 130.368C124.74 130.687 124.72 130.418 124.788 130.63C124.854 130.843 124.869 130.963 124.963 131.523C124.965 131.49 124.966 131.457 124.968 131.424C124.782 129.876 125.155 132.548 125.048 131.356C125.194 132.325 125.164 131.81 125.164 131.511C125.164 131.477 125.143 131.288 125.141 131.229C125.138 131.087 125.193 131.327 125.13 130.717C125.161 130.893 125.19 131.068 125.217 131.244C125.215 131.132 125.214 131.02 125.212 130.908C125.195 130.718 125.177 130.527 125.16 130.336C125.24 130.984 125.247 130.732 125.274 130.886C125.28 130.917 125.301 131.181 125.316 131.252C125.333 131.336 125.346 131.257 125.363 131.338C125.347 131.046 125.332 130.754 125.317 130.462C125.334 130.302 125.391 131.072 125.407 131.131C125.408 131.141 125.453 131.083 125.454 131.067C125.468 130.935 125.431 130.278 125.514 130.416C125.526 130.442 125.55 130.669 125.562 130.678C125.564 130.68 125.57 130.672 125.577 130.657C125.581 130.649 125.584 130.64 125.587 130.628C125.589 130.623 125.591 130.616 125.592 130.61C125.594 130.606 125.599 130.603 125.601 130.599C125.592 130.598 125.632 130.595 125.561 130.595C125.541 130.596 125.559 130.592 125.431 130.601C125.378 130.608 125.378 130.594 125.088 130.652C125.002 130.674 124.901 130.689 124.64 130.799C124.507 130.861 124.326 130.936 124.033 131.18C123.767 131.409 123.235 131.958 123.182 132.925C123.138 133.899 123.681 134.576 123.969 134.829C124.283 135.109 124.479 135.191 124.622 135.259C124.9 135.379 125.006 135.393 125.095 135.416C125.396 135.474 125.394 135.459 125.448 135.467C125.488 135.469 125.506 135.47 125.52 135.471C125.608 135.474 125.589 135.473 125.602 135.473C125.614 135.474 125.614 135.474 125.616 135.475C125.619 135.476 125.619 135.477 125.619 135.478C125.608 135.644 125.591 136.015 125.589 136.366C125.578 135.769 125.546 136.013 125.536 135.84C125.533 135.787 125.533 135.407 125.524 135.326C125.517 135.26 125.499 135.564 125.49 135.513C125.481 135.458 125.477 135.139 125.473 135.116C125.468 135.095 125.465 135.353 125.46 135.351C125.443 135.342 125.426 134.927 125.414 134.92C125.394 134.908 125.376 135.671 125.361 136.01C125.357 135.961 125.353 135.797 125.348 135.795C125.296 135.771 125.236 135.631 125.184 135.467C125.159 135.392 125.099 134.356 125.115 136.085C125.106 136.388 125.045 135.69 125.032 135.68C125.02 135.67 125.011 135.98 125.002 135.984C124.975 135.998 124.954 135.774 124.921 136.044C124.912 136.115 124.902 136.482 124.897 136.478C124.891 136.472 124.884 136.117 124.876 136.094C124.856 136.043 124.821 136.16 124.802 136.098C124.799 136.086 124.798 135.775 124.793 135.677C124.774 135.296 124.753 135.329 124.757 136.325C124.733 135.76 124.709 136.275 124.688 136.307C124.64 136.371 124.554 136.139 124.513 136.557C124.487 136.821 124.488 137.268 124.449 136.883C124.441 136.797 124.432 136.682 124.422 136.58C124.398 136.34 124.376 135.515 124.357 136.509C124.33 136.251 124.309 136.434 124.289 135.584C124.287 135.788 124.284 135.992 124.282 136.196C124.279 136.201 124.275 136.206 124.272 136.211C124.271 136.016 124.27 135.822 124.269 135.627C124.245 135.575 124.216 136.374 124.196 136.368C124.162 136.359 124.076 136.049 124.044 135.786C124.028 135.647 124.027 136.064 124.017 135.207C124.013 135.267 124.01 135.326 124.006 135.386C124.003 135.574 124.001 135.761 123.999 135.949C123.977 135.956 123.951 135.665 123.931 135.668C123.893 135.674 123.837 136.19 123.799 135.851C123.79 135.765 123.778 135.379 123.769 135.383C123.755 135.389 123.752 136.031 123.735 136.043C123.706 136.062 123.651 135.317 123.623 135.374C123.615 135.39 123.611 135.629 123.605 135.655C123.581 135.764 123.562 135.745 123.539 136.114C123.514 135.499 123.516 134.705 123.509 133.904C123.503 133.3 123.485 131.899 123.482 131.369C123.481 130.998 123.487 130.519 123.485 130.11C123.514 129.783 123.527 130.143 123.551 130.719C123.595 130.696 123.639 130.673 123.683 130.65C123.687 130.873 123.692 131.097 123.696 131.32C123.696 131.321 123.696 131.321 123.696 131.322C123.713 131.579 123.72 131.004 123.729 130.873C123.817 129.623 123.989 130.602 124.086 130.742C124.107 130.772 124.174 130.471 124.189 130.834C124.193 130.929 124.194 131.273 124.198 131.288C124.233 131.083 124.268 130.879 124.303 130.674C124.375 131.209 124.45 130.767 124.523 130.684C124.72 130.461 124.915 130.189 125.109 130.272C125.146 130.288 125.194 130.03 125.231 130.197C125.246 130.266 125.252 130.819 125.272 130.407C125.272 130.556 125.272 130.705 125.273 130.854C125.29 130.674 125.302 130.335 125.321 130.3C125.338 130.272 125.381 130.249 125.396 130.306C125.404 130.335 125.401 130.614 125.408 130.612C125.42 130.608 125.447 130.222 125.463 130.222C125.478 130.222 125.503 130.543 125.515 130.497C125.547 130.366 125.585 130.04 125.619 129.974C125.62 129.974 125.619 129.974 125.624 129.974C125.627 129.974 125.627 129.973 125.648 129.973C125.654 129.974 125.661 129.974 125.682 129.974C125.694 129.974 125.707 129.974 125.743 129.976C125.762 129.977 125.785 129.977 125.837 129.981C125.864 129.983 125.898 129.985 125.96 129.992C126.029 130.002 126.093 130.001 126.36 130.064C126.51 130.113 126.674 130.11 127.231 130.432C127.498 130.618 127.994 130.885 128.429 131.822C128.92 132.764 128.573 134.317 128.078 134.855C127.606 135.461 127.264 135.612 127.043 135.742C126.818 135.858 126.68 135.904 126.571 135.941C126.36 136.008 126.263 136.024 126.184 136.04C125.907 136.088 125.892 136.079 125.837 136.085C125.756 136.09 125.742 136.09 125.722 136.091C125.691 136.092 125.683 136.092 125.675 136.092C125.62 136.093 125.649 136.093 125.643 136.093C125.644 136.094 125.65 136.094 125.65 136.095C125.652 136.096 125.653 136.097 125.655 136.097C125.657 136.099 125.66 136.1 125.663 136.101C125.669 136.103 125.67 136.104 125.673 136.103C125.677 136.102 125.682 136.095 125.683 136.081C125.691 136.045 125.677 135.684 125.677 135.694C125.678 135.715 125.695 136.066 125.698 136.111C125.715 136.338 125.688 135.922 125.681 135.906C125.662 135.853 125.659 136.008 125.636 135.946C125.618 135.908 125.618 135.97 125.557 135.714C125.543 135.658 125.466 135.282 125.463 135.282C125.46 135.283 125.513 135.537 125.516 135.558C125.538 135.704 125.596 135.96 125.527 135.703C125.514 135.654 125.437 135.363 125.436 135.364C125.436 135.364 125.488 135.563 125.493 135.584C125.536 135.765 125.504 135.649 125.479 135.583C125.427 135.46 125.574 135.814 125.518 135.612C125.505 135.568 125.251 135.03 125.252 135.036C125.257 135.047 125.432 135.407 125.479 135.495C125.638 135.779 125.458 135.39 125.573 135.556C125.63 135.637 125.916 136.058 125.997 136.139C126.062 136.205 125.983 136.017 126.119 136.194C126.201 136.301 126.455 136.653 126.494 136.691ZM123.695 130.622C123.924 131.276 123.785 130.714 123.641 130.371C123.608 130.294 123.635 130.452 123.695 130.622ZM125.278 134.582C125.278 134.78 125.278 134.978 125.278 135.176C125.282 135.093 125.286 135.011 125.29 134.929C125.288 134.81 125.286 134.691 125.284 134.572C125.282 134.575 125.28 134.578 125.278 134.582Z" fill="#E1C07B"/>
<path d="M83.41 147.029C83.4582 147.03 83.2006 147.061 83.1876 147.069C83.1302 147.1 82.952 147.126 82.8526 147.159C82.7049 147.207 83.0537 147.278 81.2588 147.441C81.2588 147.441 81.2588 147.441 81.2587 147.441C81.2411 147.442 81.2233 147.444 81.2053 147.445C80.8633 147.476 80.4893 147.502 80.1025 147.535C79.7155 147.569 77.2182 147.797 77.0767 147.798C76.8901 147.797 77.5266 147.697 77.4973 147.69C77.4772 147.685 77.2495 147.698 77.2084 147.694C77.0761 147.679 77.2408 147.65 76.622 147.683C76.9461 147.644 77.2702 147.605 77.5944 147.566C77.4426 147.567 77.8694 147.509 77.8451 147.504C77.8251 147.5 77.5678 147.52 77.5553 147.514C77.5398 147.509 77.8162 147.472 77.7732 147.463C77.704 147.448 77.0334 147.507 76.9471 147.502C76.8578 147.497 77.2202 147.443 76.9827 147.448C76.9088 147.453 76.8349 147.458 76.761 147.463C76.5944 147.48 76.4278 147.497 76.2611 147.514C76.1827 147.513 76.5241 147.477 76.5296 147.469C76.5362 147.46 76.2118 147.486 76.2128 147.48C76.2138 147.475 76.473 147.443 76.4561 147.439C76.4328 147.431 76.0579 147.469 75.9873 147.471C75.9599 147.471 75.7494 147.455 75.7463 147.453C75.73 147.44 76.2432 147.389 76.2869 147.372C76.406 147.326 75.9878 147.331 75.8281 147.316C75.7566 147.31 75.785 147.292 75.8657 147.271C77.1811 147.161 78.198 147.008 76.1452 147.234C76.4359 147.189 75.8802 147.235 75.9726 147.211C76.0328 147.196 76.317 147.16 76.3081 147.148C76.2906 147.125 75.4786 147.186 76.9409 147.025C76.6801 147.025 77.208 146.943 75.9158 147.073C75.8362 147.075 76.6033 146.974 76.7069 146.954C76.8045 146.936 77.1452 146.84 77.1635 146.828C77.1818 146.817 77.201 146.798 77.0869 146.803C76.9456 146.809 75.6072 146.96 77.1692 146.759C77.0402 146.753 77.0842 146.741 77.2635 146.7C77.296 146.693 77.528 146.665 77.528 146.663C77.5275 146.658 77.3551 146.672 77.3333 146.667C77.2976 146.66 77.7849 146.592 77.0394 146.686C76.9134 146.694 76.7875 146.702 76.6616 146.71C76.8051 146.689 76.9487 146.669 77.0922 146.648C76.9349 146.663 76.7776 146.679 76.6203 146.695C77.6995 146.563 77.0593 146.615 76.4418 146.704C76.663 146.661 76.8842 146.618 77.1053 146.574C78.3306 146.413 77.2422 146.522 76.5769 146.615C76.5776 146.614 76.5784 146.612 76.5791 146.61C76.9027 146.552 76.6348 146.576 76.8508 146.529C77.0667 146.481 77.1861 146.466 77.748 146.38C77.7152 146.38 77.6823 146.381 77.6495 146.381C76.1043 146.583 78.7744 146.197 77.5861 146.333C78.5528 146.175 78.0391 146.219 77.7427 146.246C77.7083 146.249 77.5205 146.279 77.4622 146.285C77.3219 146.3 77.5602 146.243 76.9551 146.342C77.1293 146.308 77.3034 146.274 77.4774 146.238C77.3665 146.251 77.2557 146.265 77.145 146.278C76.9562 146.31 76.7674 146.342 76.5786 146.373C77.2205 146.256 76.9707 146.283 77.1232 146.25C77.1542 146.243 77.4143 146.198 77.4844 146.18C77.5677 146.16 77.4889 146.163 77.5689 146.142C77.2805 146.191 76.9922 146.24 76.7039 146.29C76.5461 146.308 77.3049 146.167 77.3627 146.149C77.3727 146.146 77.3143 146.135 77.2978 146.137C77.1677 146.152 76.5222 146.278 76.6563 146.229C76.6806 146.221 76.9031 146.173 76.9114 146.168C76.9261 146.157 76.4168 146.243 75.95 146.341C76.5331 146.213 76.2909 146.247 76.4585 146.206C76.51 146.194 76.8812 146.111 76.959 146.088C77.0224 146.07 76.7233 146.127 76.772 146.112C76.825 146.095 77.1355 146.02 77.1569 146.012C77.1768 146.005 76.9254 146.063 76.9263 146.06C76.9331 146.05 77.334 145.942 77.3393 145.932C77.348 145.917 76.6072 146.102 76.2797 146.19C76.3273 146.176 76.4852 146.132 76.4864 146.131C76.5068 146.114 76.641 146.073 76.7972 146.024C76.8714 146.009 77.8376 145.634 76.228 146.266C75.9491 146.384 76.6159 146.172 76.6283 146.172C76.6423 146.178 76.3676 146.322 76.37 146.337C76.3784 146.384 76.5858 146.301 76.394 146.506C76.3442 146.561 76.0486 146.781 76.0625 146.794C76.0799 146.81 76.3878 146.632 76.4215 146.641C76.4623 146.654 76.4765 146.706 76.4995 146.761C76.5209 146.812 76.5489 146.864 76.5973 146.874C76.6165 146.877 76.8524 146.673 76.937 146.622C77.2656 146.417 77.2865 146.481 76.5953 147.198C77.0753 146.874 76.8229 147.333 76.9399 147.454C77.1737 147.712 77.8227 147.72 78.0149 148.16C78.1423 148.447 78.1289 148.899 78.4119 148.528C78.4703 148.445 78.5244 148.33 78.5776 148.227C78.7198 147.983 78.6918 147.156 78.8791 148.135C78.947 147.867 79.0572 148.031 78.9199 147.19C78.968 147.389 79.0177 147.587 79.069 147.784C79.0785 147.787 79.0877 147.79 79.0967 147.793C79.0538 147.603 79.0102 147.414 78.966 147.224C78.9867 147.166 79.2572 147.92 79.2966 147.901C79.3637 147.87 79.3352 147.546 79.229 147.305C79.1763 147.176 79.3506 147.555 78.9947 146.776C79.0194 146.83 79.0443 146.884 79.0694 146.938C79.1485 147.108 79.2282 147.278 79.3083 147.447C79.3171 147.452 79.1896 147.19 79.1873 147.194C79.1827 147.203 79.4149 147.664 79.2369 147.375C79.1919 147.302 78.9973 146.968 78.994 146.975C78.9891 146.985 79.3038 147.544 79.3014 147.559C79.2985 147.583 78.886 146.961 78.8917 147.024C78.8937 147.042 79.0123 147.249 79.0209 147.273C79.0582 147.379 79.0319 147.372 79.2016 147.7C78.8642 147.185 78.4574 146.504 78.0385 145.821C77.7222 145.306 76.9844 144.115 76.7096 143.663C76.5165 143.345 76.2767 142.931 76.0637 142.581C75.9241 142.284 76.1226 142.584 76.4432 143.064C76.4777 143.016 76.5165 142.966 76.56 142.915C76.6774 143.105 76.7946 143.295 76.9114 143.486C76.9117 143.486 76.9119 143.487 76.9122 143.487C77.0612 143.699 76.7824 143.195 76.7296 143.075C76.2197 141.924 77.0136 142.607 77.2827 142.652C77.3337 142.662 77.4192 142.309 77.5794 142.64C77.6196 142.726 77.7284 143.053 77.7428 143.064C77.7701 142.84 77.8228 142.612 77.9239 142.383C78.2939 142.857 78.5643 142.375 79.0917 142.387C79.8191 142.384 80.6452 142.82 81.0428 143.228C81.4116 143.589 81.5697 143.872 81.6319 144.124C81.6556 144.227 81.9406 144.26 81.8093 144.394C81.7551 144.451 81.2309 144.629 81.6377 144.548C81.4952 144.592 81.3527 144.636 81.2103 144.68C81.3923 144.66 81.7245 144.587 81.7692 144.618C81.8066 144.645 81.8507 144.723 81.8027 144.765C81.7788 144.787 81.5076 144.851 81.5122 144.863C81.5218 144.882 81.9071 144.836 81.9146 144.867C81.9214 144.895 81.6187 145.011 81.6683 145.019C81.8449 145.052 82.3272 145.034 82.2168 145.133C82.1854 145.161 81.8356 145.254 81.8466 145.258C81.8695 145.266 82.2149 145.204 82.2608 145.204C82.4928 145.204 82.0942 145.343 82.0843 145.383C82.0526 145.516 82.2232 145.617 82.1758 145.741C82.1461 145.818 82.2229 145.928 81.9689 146.023C81.914 146.044 81.5322 146.088 81.5336 146.099C81.5352 146.111 81.7937 146.086 81.8152 146.089C81.9661 146.111 82.2374 146.168 81.978 146.236C81.9282 146.249 81.6295 146.289 81.6311 146.293C81.6313 146.295 81.8361 146.276 81.8577 146.28C82.0492 146.318 81.9348 146.374 81.8708 146.438C81.7497 146.559 82.1427 146.644 81.9474 146.773C81.905 146.802 81.3135 146.875 81.3198 146.878C81.3325 146.884 81.7318 146.85 81.8317 146.855C82.1603 146.873 81.7408 146.979 81.9451 147.006C82.0458 147.02 82.5552 147.004 82.6693 147.016C82.7606 147.026 82.5658 147.086 82.7889 147.073C82.9237 147.066 83.3554 147.028 83.41 147.029ZM76.6394 147.099C77.3288 147.03 76.753 147.06 76.3843 147.11C76.3012 147.121 76.4604 147.117 76.6394 147.099ZM77.6453 145.771C77.456 145.828 77.2666 145.886 77.0772 145.943C77.1563 145.92 77.2355 145.898 77.3149 145.876C77.4287 145.841 77.5424 145.806 77.656 145.771C77.6524 145.771 77.6489 145.771 77.6453 145.771Z" fill="#E1C07B"/>
<path d="M108.274 121.146C108.308 121.112 108.149 121.317 108.145 121.331C108.124 121.391 108.016 121.535 107.967 121.627C107.894 121.763 108.178 121.556 107.025 122.941C107.025 122.941 107.025 122.941 107.025 122.941C107.014 122.955 107.002 122.969 106.991 122.982C106.771 123.246 106.526 123.53 106.277 123.828C106.028 124.126 104.426 126.055 104.329 126.158C104.201 126.294 104.59 125.78 104.567 125.798C104.551 125.811 104.402 125.983 104.372 126.011C104.275 126.1 104.373 125.965 103.969 126.434C104.171 126.178 104.373 125.922 104.575 125.665C104.473 125.777 104.736 125.436 104.716 125.451C104.701 125.464 104.536 125.662 104.525 125.669C104.512 125.677 104.682 125.457 104.649 125.484C104.595 125.527 104.169 126.048 104.109 126.11C104.048 126.173 104.267 125.881 104.111 126.059C104.063 126.116 104.016 126.173 103.969 126.23C103.864 126.361 103.76 126.492 103.656 126.623C103.603 126.681 103.817 126.412 103.817 126.404C103.817 126.395 103.612 126.647 103.61 126.644C103.609 126.641 103.769 126.435 103.756 126.445C103.738 126.46 103.504 126.755 103.458 126.808C103.44 126.829 103.296 126.98 103.293 126.982C103.278 126.989 103.597 126.584 103.62 126.544C103.682 126.436 103.411 126.753 103.305 126.871C103.257 126.923 103.271 126.896 103.317 126.827C104.127 125.785 104.728 124.952 103.485 126.601C103.658 126.363 103.317 126.805 103.37 126.727C103.405 126.675 103.574 126.445 103.566 126.448C103.549 126.454 103.062 127.107 103.93 125.919C103.769 126.122 104.072 125.683 103.315 126.738C103.268 126.802 103.714 126.17 103.772 126.082C103.828 126.001 104.014 125.705 104.023 125.687C104.032 125.669 104.04 125.649 103.976 125.743C103.894 125.858 103.158 126.987 104.019 125.668C103.947 125.773 103.972 125.736 104.068 125.58C104.086 125.552 104.21 125.354 104.209 125.353C104.209 125.353 104.117 125.499 104.105 125.517C104.087 125.546 104.342 125.125 103.953 125.768C103.888 125.876 103.825 125.985 103.763 126.095C103.838 125.971 103.912 125.846 103.986 125.721C103.906 125.858 103.828 125.995 103.751 126.133C104.294 125.191 103.978 125.75 103.669 126.292C103.788 126.101 103.904 125.908 104.017 125.713C104.599 124.623 104.089 125.59 103.789 126.191C103.791 126.191 103.793 126.191 103.795 126.191C103.955 125.903 103.847 126.15 103.961 125.96C104.071 125.768 104.118 125.657 104.352 125.139C104.341 125.17 104.33 125.2 104.32 125.231C103.74 126.678 104.751 124.177 104.341 125.3C104.686 124.383 104.507 124.866 104.46 125.161C104.453 125.195 104.403 125.379 104.392 125.437C104.368 125.576 104.461 125.348 104.323 125.945C104.381 125.776 104.433 125.606 104.481 125.434C104.471 125.546 104.464 125.658 104.46 125.771C104.428 125.959 104.396 126.148 104.363 126.337C104.508 125.7 104.518 125.954 104.566 125.802C104.575 125.771 104.602 125.508 104.622 125.438C104.645 125.354 104.669 125.434 104.692 125.352C104.688 125.645 104.689 125.937 104.696 126.23C104.757 126.39 104.771 125.617 104.79 125.556C104.793 125.546 104.879 125.597 104.887 125.612C104.937 125.737 105.003 126.396 105.144 126.229C105.164 126.203 105.149 126.033 105.156 125.976C105.157 125.967 105.159 125.96 105.161 125.958C105.189 125.936 105.435 126.404 105.594 126.853C105.478 126.266 105.667 126.456 105.637 126.281C105.626 126.229 105.484 125.876 105.473 125.793C105.462 125.726 105.631 125.983 105.63 125.927C105.628 125.866 105.489 125.578 105.485 125.555C105.481 125.533 105.607 125.759 105.616 125.752C105.644 125.727 105.455 125.356 105.462 125.343C105.47 125.325 105.894 125.959 106.106 126.225C106.084 126.181 105.997 126.042 106 126.038C106.042 125.98 105.976 125.851 105.864 125.731C105.818 125.672 105.126 124.9 106.238 126.224C106.431 126.457 105.946 125.954 105.927 125.956C105.911 125.956 106.1 126.202 106.094 126.213C106.073 126.247 105.912 126.091 106.03 126.341C106.062 126.407 106.272 126.708 106.26 126.712C106.245 126.716 106.016 126.444 105.988 126.437C105.924 126.422 105.918 126.571 105.837 126.553C105.822 126.548 105.641 126.294 105.576 126.221C105.32 125.935 105.294 125.99 105.842 126.822C105.468 126.391 105.676 126.868 105.602 126.946C105.513 127.04 105.298 127.073 105.104 127.181C104.98 127.251 104.88 127.35 104.836 127.534C104.767 127.826 104.855 128.267 104.552 127.936C104.487 127.861 104.42 127.756 104.351 127.664C104.176 127.448 104.019 126.634 104.019 127.632C103.878 127.384 103.784 127.569 103.705 126.72C103.698 126.924 103.691 127.128 103.681 127.332C103.668 127.337 103.656 127.342 103.643 127.347C103.641 127.152 103.639 126.958 103.638 126.763C103.568 126.71 103.428 127.504 103.352 127.492C103.223 127.475 103.006 127.13 102.989 126.858C102.977 126.714 102.893 127.122 103.039 126.278C103.02 126.335 103.001 126.392 102.982 126.449C102.94 126.632 102.897 126.814 102.853 126.997C102.802 126.994 102.814 126.698 102.776 126.692C102.708 126.682 102.472 127.153 102.506 126.81C102.515 126.723 102.607 126.347 102.594 126.348C102.575 126.348 102.385 126.961 102.357 126.966C102.307 126.971 102.468 126.24 102.423 126.285C102.41 126.298 102.332 126.524 102.318 126.546C102.259 126.642 102.246 126.617 102.109 126.96C102.281 126.369 102.534 125.617 102.781 124.855C102.967 124.28 103.396 122.947 103.561 122.444C103.678 122.09 103.834 121.638 103.962 121.249C104.088 120.947 103.982 121.291 103.817 121.843C103.854 121.831 103.886 121.817 103.911 121.801C103.846 122.015 103.78 122.228 103.716 122.442C103.716 122.443 103.715 122.443 103.715 122.444C103.647 122.693 103.821 122.144 103.863 122.02C104.263 120.834 103.939 121.758 103.875 121.893C103.865 121.921 103.834 121.614 103.786 121.975C103.774 122.069 103.746 122.412 103.743 122.427C103.738 122.221 103.709 122.014 103.649 121.81C103.565 122.348 103.423 121.916 103.204 121.892C103.156 121.885 103.104 121.88 103.052 121.878C102.518 121.88 102.336 121.827 102.521 121.755C102.56 121.743 102.453 121.497 102.613 121.583C102.681 121.618 103.025 122.051 102.809 121.697C102.899 121.816 102.989 121.935 103.08 122.053C102.998 121.889 102.818 121.6 102.841 121.542C102.857 121.495 102.956 121.402 103.03 121.423C103.067 121.433 103.206 121.675 103.224 121.663C103.251 121.64 103.14 121.259 103.207 121.224C103.266 121.193 103.507 121.432 103.534 121.37C103.621 121.17 103.723 120.709 104.009 120.655C104.043 120.649 104.078 120.649 104.114 120.656C104.212 120.674 104.366 121.019 104.387 121.006C104.431 120.98 104.412 120.63 104.445 120.581C104.623 120.335 104.913 120.757 105.048 120.789C105.53 120.889 105.929 120.877 106.149 121.042C106.289 121.146 106.512 121.197 106.462 121.474C106.451 121.534 106.252 121.862 106.265 121.87C106.279 121.878 106.421 121.661 106.439 121.647C106.565 121.551 106.812 121.397 106.703 121.644C106.683 121.692 106.52 121.945 106.525 121.947C106.527 121.948 106.646 121.781 106.664 121.768C106.828 121.654 106.801 121.782 106.809 121.874C106.823 122.048 107.149 121.816 107.103 122.042C107.093 122.092 106.736 122.569 106.742 122.566C106.754 122.56 107.005 122.248 107.077 122.178C107.314 121.951 107.092 122.321 107.248 122.189C107.325 122.124 107.667 121.746 107.753 121.671C107.822 121.611 107.724 121.789 107.871 121.62C107.96 121.519 108.236 121.184 108.274 121.146ZM103.761 126.176C104.176 125.621 103.822 126.076 103.605 126.378C103.556 126.445 103.654 126.321 103.761 126.176ZM105.324 125.03C105.443 125.188 105.562 125.346 105.68 125.505C105.63 125.44 105.58 125.374 105.531 125.308C105.46 125.213 105.389 125.117 105.318 125.022C105.32 125.024 105.322 125.027 105.324 125.03Z" fill="#E1C07B"/>
<path d="M126.776 18.0342C128.874 10.2623 136.419 5.2586 144.395 6.35059L262.503 22.5254C271.753 23.7923 277.959 32.678 275.962 41.7988L262.678 102.482C260.849 110.836 252.775 116.275 244.346 114.831L124.331 94.2676C115.038 92.675 109.13 83.4324 111.586 74.3291L126.776 18.0342Z" fill="#F9EDCF" stroke="#4A2F0D" stroke-width="8"/>
<path d="M141.277 29.3047C142.825 23.5711 148.392 19.8798 154.275 20.6855L241.403 32.6172C248.228 33.5517 252.805 40.1064 251.332 46.835L241.533 91.6016C240.184 97.7642 234.227 101.777 228.009 100.712L139.474 85.542C132.618 84.3671 128.259 77.5485 130.071 70.833L141.277 29.3047Z" fill="#F9EDCF" stroke="#C7B187" stroke-width="5.90164"/>
</svg>

