<svg width="266" height="266" viewBox="0 0 266 266" fill="none" xmlns="http://www.w3.org/2000/svg">
<path d="M235.453 104.592C250.482 119.24 250.792 143.299 236.144 158.328L161.35 235.071C146.702 250.101 122.643 250.41 107.614 235.763L30.4111 160.521C15.3815 145.873 15.0721 121.815 29.7199 106.785L60.344 75.3628L71.381 75.3617C71.4048 75.3645 71.4327 75.3686 71.4647 75.3724C71.5872 75.3871 71.7686 75.4095 71.996 75.4401C72.4515 75.5015 73.0889 75.5953 73.8124 75.7227C75.2927 75.9835 77.0072 76.3649 78.2682 76.8608C79.6719 77.4128 81.2021 78.5847 82.464 79.7419C83.0743 80.3015 83.5841 80.8223 83.94 81.2021C84.1174 81.3915 84.2555 81.5447 84.3469 81.6478C84.3923 81.699 84.4263 81.7377 84.4478 81.7626C84.4586 81.775 84.4666 81.7841 84.471 81.7892C84.4724 81.7908 84.4737 81.7918 84.4745 81.7926L84.4738 81.7933L84.5053 81.8295L84.5383 81.8657L102.288 100.865L117.411 117.052C118.88 118.625 120.521 120.184 122.43 121.457C122.724 121.653 123.023 121.842 123.33 122.023C123.483 122.114 123.639 122.202 123.796 122.289C124.197 122.511 124.635 122.744 125.101 122.976C127.118 123.979 129.651 124.964 131.97 125C132.064 125.001 132.158 125 132.253 124.999C132.293 124.998 132.332 124.996 132.372 124.995C132.424 124.994 132.476 124.992 132.528 124.99C132.687 124.983 132.846 124.971 133.005 124.956C133.028 124.954 133.051 124.952 133.074 124.95C133.381 124.919 133.687 124.873 133.993 124.818C134.086 124.802 134.18 124.784 134.273 124.766C134.378 124.745 134.483 124.722 134.587 124.698C134.667 124.68 134.746 124.662 134.825 124.643C134.939 124.616 135.053 124.587 135.166 124.557C135.241 124.537 135.315 124.515 135.39 124.494C135.499 124.464 135.607 124.434 135.715 124.402C136.473 124.174 137.215 123.896 137.918 123.599C137.954 123.584 137.99 123.568 138.026 123.553C138.172 123.49 138.316 123.427 138.459 123.363C138.492 123.348 138.525 123.334 138.558 123.319C138.84 123.191 139.114 123.06 139.379 122.931C139.625 122.81 139.866 122.69 140.099 122.569C140.112 122.562 140.125 122.557 140.138 122.55C140.168 122.534 140.198 122.516 140.229 122.5C140.493 122.361 140.75 122.225 140.994 122.09L140.993 122.089C141.783 121.651 142.468 121.236 142.994 120.902C143.349 120.677 143.635 120.488 143.834 120.353C143.934 120.286 144.012 120.232 144.067 120.194C144.094 120.176 144.115 120.161 144.131 120.15C144.138 120.145 144.145 120.14 144.149 120.137C144.151 120.135 144.153 120.134 144.155 120.132L144.157 120.131L144.158 120.13C144.157 120.129 144.149 120.116 144.063 119.996C145.075 119.177 146.008 118.297 146.882 117.411L163.154 100.907L179.424 84.4041L179.514 84.3139L179.59 84.2127L179.596 84.2051C179.602 84.1975 179.612 84.1846 179.625 84.1674C179.652 84.1329 179.694 84.0797 179.75 84.0097C179.862 83.8694 180.03 83.6622 180.246 83.406C180.679 82.8922 181.3 82.185 182.049 81.4188C183.584 79.8481 185.508 78.1809 187.354 77.3085C188.969 76.5456 191.014 76.0482 192.738 75.7441C193.584 75.5949 194.32 75.4979 194.843 75.438C195.104 75.4082 195.31 75.3877 195.449 75.375C195.503 75.37 195.547 75.365 195.58 75.3623L205.462 75.3636L235.453 104.592ZM158.25 29.3504L201.357 71.3626L195.5 71.3627L195.427 71.3629L195.355 71.3687L195.485 73.1522C195.355 71.3685 195.355 71.368 195.354 71.368L195.354 71.3687L195.347 71.3688C195.343 71.3691 195.337 71.3699 195.33 71.3704C195.317 71.3714 195.299 71.3727 195.277 71.3745C195.231 71.3783 195.165 71.3846 195.083 71.3922C194.917 71.4074 194.681 71.4305 194.388 71.464C193.802 71.5311 192.984 71.639 192.043 71.8049C190.193 72.1312 187.738 72.7028 185.645 73.6917C183.142 74.8747 180.816 76.9573 179.188 78.6227C178.356 79.4745 177.668 80.2575 177.187 80.8287C176.946 81.1149 176.755 81.3494 176.623 81.5148C176.57 81.5819 176.525 81.6375 176.492 81.6808L160.305 98.0993L144.034 114.602C142.457 116.202 140.851 117.595 139.054 118.591C138.574 118.857 138.057 119.127 137.521 119.386C137.489 119.402 137.457 119.418 137.425 119.433C137.343 119.472 137.262 119.511 137.179 119.55C137.109 119.582 137.038 119.615 136.968 119.648C136.893 119.682 136.818 119.715 136.743 119.749C136.677 119.778 136.611 119.806 136.546 119.834C136.46 119.871 136.375 119.908 136.289 119.944C135.847 120.129 135.407 120.296 134.976 120.44C134.941 120.452 134.906 120.463 134.871 120.474C134.764 120.509 134.658 120.543 134.553 120.575C134.493 120.593 134.434 120.609 134.375 120.626C134.29 120.651 134.206 120.674 134.123 120.696C134.068 120.71 134.014 120.725 133.96 120.738C133.855 120.765 133.75 120.789 133.646 120.812C133.621 120.817 133.596 120.823 133.571 120.828C133.467 120.85 133.363 120.869 133.26 120.887C133.222 120.894 133.184 120.902 133.146 120.908C133.056 120.923 132.966 120.935 132.878 120.946C132.835 120.952 132.792 120.957 132.749 120.962C132.653 120.973 132.558 120.98 132.464 120.986C132.438 120.988 132.411 120.99 132.385 120.992C132.302 120.996 132.219 120.998 132.139 120.998L132.03 121C130.586 120.978 128.721 120.3 126.942 119.422C126.532 119.22 126.126 119.006 125.73 118.788C123.756 117.697 122.021 116.128 120.333 114.322L105.212 98.1346L87.4819 79.1559C87.4787 79.1522 87.475 79.1485 87.4714 79.1443C87.4401 79.1081 87.3956 79.0572 87.3389 78.9934C87.2258 78.8658 87.0638 78.6856 86.8591 78.4671C86.4507 78.0313 85.868 77.4362 85.1671 76.7935C83.8061 75.5455 81.8366 73.966 79.7321 73.1383C78.0858 72.4909 76.0497 72.0554 74.5069 71.7836C73.7192 71.6449 73.027 71.543 72.5306 71.4762C72.2822 71.4427 72.0812 71.4177 71.9412 71.4009C71.8712 71.3925 71.8157 71.3859 71.7773 71.3816C71.7585 71.3795 71.7437 71.3778 71.7331 71.3766C71.7277 71.376 71.7224 71.3758 71.7192 71.3754C71.7179 71.3753 71.7167 71.3749 71.7158 71.3748L71.7144 71.3748L71.5003 73.363L71.713 71.3748L71.6072 71.3631L71.5002 71.3637L64.242 71.3632L104.514 30.0416C119.162 15.0121 143.22 14.7026 158.25 29.3504Z" fill="#4DB6AC" stroke="#683523" stroke-width="4"/>
<path d="M64 191.363L72 191.362C72 191.362 76.5925 190.869 79.5 189.726C83.0082 188.346 86.5 184.226 86.5 184.226M178.5 181.726L145.958 148.719C144.322 147.06 142.561 145.515 140.524 144.385C138.25 143.124 135.079 141.686 132.5 141.726M178.5 181.726C178.5 181.726 182.65 187.17 187 189.226C190.707 190.977 196 191.362 196 191.362L202 191.363M178.5 181.726L145.958 148.719C144.322 147.06 142.561 145.515 140.524 144.385C138.25 143.124 135.079 141.686 132.5 141.726M132.5 141.726C130.184 141.761 127.388 143.013 125.263 144.187C123.022 145.426 121.12 147.168 119.372 149.039L86.5 184.226M132.5 141.726C130.184 141.761 127.388 143.013 125.263 144.187C123.022 145.426 121.12 147.168 119.372 149.039L86.5 184.226" stroke="#683523" stroke-width="8"/>
</svg>
