<svg width="245" height="251" viewBox="0 0 245 251" fill="none" xmlns="http://www.w3.org/2000/svg">
<rect x="118.955" y="13.8518" width="26" height="91" rx="6" transform="rotate(14.0571 118.955 13.8518)" fill="#FDB62B" stroke="#3F2613" stroke-width="8"/>
<rect x="148.574" y="37.925" width="26" height="91" rx="6" transform="rotate(19.6528 148.574 37.925)" fill="#FDB62B" stroke="#3F2613" stroke-width="8"/>
<rect x="6.19054" y="46.7503" width="26" height="91" rx="6" transform="rotate(-21.5729 6.19054 46.7503)" fill="#FDB62B" stroke="#3F2613" stroke-width="8"/>
<rect x="44.3209" y="16.3928" width="26" height="91" rx="6" transform="rotate(-6.00503 44.3209 16.3928)" fill="#FDB62B" stroke="#3F2613" stroke-width="8"/>
<rect x="81.6344" y="4.23047" width="26" height="91" rx="6" transform="rotate(3.40442 81.6344 4.23047)" fill="#FDB62B" stroke="#3F2613" stroke-width="8"/>
<rect x="73.0358" y="61.9644" width="26" height="91" rx="6" transform="rotate(-3.77081 73.0358 61.9644)" fill="#FDB62B" stroke="#3F2613" stroke-width="8"/>
<rect x="115.503" y="60.6708" width="26" height="91" rx="6" transform="rotate(10.6591 115.503 60.6708)" fill="#FDB62B" stroke="#3F2613" stroke-width="8"/>
<rect x="33.0918" y="66.682" width="26" height="91" rx="6" transform="rotate(-11.9328 33.0918 66.682)" fill="#FDB62B" stroke="#3F2613" stroke-width="8"/>
<path d="M21.0354 188.292L4.77655 99.6889C4.26471 96.8996 4.17119 93.8399 6.04979 91.7154C9.12556 88.2372 16.3651 85.5743 32.2376 100.436C56.1678 122.842 51.3818 132.801 91.5845 130.312C131.787 127.822 125 123.5 142.5 107C152.608 97.4696 171.511 88.984 171.99 95.4571C172.347 100.28 163.138 157.349 158.42 186.129C156.861 195.637 148.731 202.643 139.098 202.825L41.0852 204.679C31.2907 204.864 22.8035 197.928 21.0354 188.292Z" fill="#E36139" stroke="#3F2613" stroke-width="8"/>
<path d="M219.512 150.673C218.4 149.599 216.912 148.969 215.371 149.082C202.677 150.013 195.944 158.596 192.855 161.036C189.696 163.531 184.409 174.131 184.022 179.538C183.994 179.937 184.039 180.336 184.122 180.727C185.69 188.13 188.033 192.794 194.554 196.471C195.159 196.812 195.832 197.019 196.52 197.11C204.304 198.135 209.042 198.5 217.78 196.971C222.676 196.052 225.543 195.363 228.975 193.261C229.82 192.744 230.478 191.974 230.948 191.102C237.15 179.576 239.981 180.205 241.625 174.905C241.907 173.994 241.882 173.016 241.636 172.096C239.97 165.873 238.721 164.474 231.348 161.48C230.622 161.185 229.952 160.756 229.388 160.212L219.512 150.673Z" fill="#ED9D1F" stroke="#3F2613" stroke-width="6"/>
<path d="M153.78 160.001C135.778 159.919 122.317 169.347 118.177 172.599C114.161 175.753 107.418 189.233 107.019 195.972C106.995 196.374 107.04 196.777 107.123 197.171C109.122 206.641 112.105 212.556 120.568 217.217C121.172 217.551 121.84 217.756 122.524 217.846C132.518 219.16 138.506 219.646 149.64 217.709C155.978 216.526 159.622 215.645 164.105 212.846C164.946 212.32 165.611 211.554 166.079 210.679C174.379 195.17 181.195 189.639 183.621 181.729C183.902 180.813 183.876 179.832 183.64 178.903C181.466 170.352 180.271 166.431 170.208 162.313C169.75 162.125 169.262 162.001 168.772 161.937L153.78 160.001Z" fill="#ED9D1F" stroke="#3F2613" stroke-width="6"/>
<path d="M108.78 175.001C90.7784 174.919 85.1398 192.069 81 195.321C76.9883 198.472 62.9094 204.675 62.0419 210.973C61.987 211.371 62.0403 211.777 62.1233 212.171C64.122 221.641 67.1052 227.556 75.5676 232.217C76.1725 232.551 76.8398 232.756 77.5244 232.846C87.5177 234.16 93.5064 234.646 104.64 232.709C110.978 231.526 114.622 230.645 119.105 227.846C119.946 227.32 120.611 226.554 121.079 225.679C129.379 210.17 136.195 204.639 138.621 196.729C138.902 195.813 138.876 194.832 138.64 193.903C136.466 185.352 135.271 181.431 125.208 177.313C124.75 177.125 124.262 177.001 123.772 176.937L108.78 175.001Z" fill="#ED9D1F" stroke="#3F2613" stroke-width="6"/>
<path d="M188.78 190.001C170.778 189.919 157.317 199.347 153.177 202.599C149.161 205.753 142.418 219.233 142.019 225.972C141.995 226.374 142.039 226.781 142.129 227.173C144.239 236.427 149.924 237.218 158.569 241.527C159.187 241.835 159.852 242.048 160.537 242.134C169.746 243.284 170.004 242.274 183.063 247.119C184.092 247.501 185.209 247.601 186.289 247.409C192.213 246.353 198.586 245.379 203.225 242.791C204.091 242.308 204.755 241.534 205.209 240.652C213.081 225.362 212.576 222.95 214.183 215.427C214.383 214.49 214.365 213.515 214.176 212.576C212.391 203.693 215.1 196.582 205.207 192.32C204.753 192.124 204.262 192.001 203.772 191.937L188.78 190.001Z" fill="#ED9D1F" stroke="#3F2613" stroke-width="6"/>
<path d="M94.1756 217.88L105.847 218.566" stroke="#E0911A" stroke-width="10" stroke-linecap="round"/>
<path d="M111.34 202.775L116.146 196.596" stroke="#E0911A" stroke-width="10" stroke-linecap="round"/>
<path d="M186.862 223.372H195.787" stroke="#E0911A" stroke-width="10" stroke-linecap="round"/>
<path d="M171.071 213.074L166.265 213.76" stroke="#E0911A" stroke-width="10" stroke-linecap="round"/>
<path d="M195.101 209.641L197.16 204.148" stroke="#E0911A" stroke-width="10" stroke-linecap="round"/>
<path d="M155.28 183.551L152.534 181.492" stroke="#E0911A" stroke-width="10" stroke-linecap="round"/>
<path d="M166.951 184.925L168.325 181.492" stroke="#E0911A" stroke-width="10" stroke-linecap="round"/>
<path d="M214.324 183.552L218.444 184.925" stroke="#E0911A" stroke-width="10" stroke-linecap="round"/>
<path d="M217.757 167.761L221.19 168.447" stroke="#C97D09" stroke-width="10" stroke-linecap="round"/>
<path d="M155.482 115.21C152.229 127.925 148.976 140.641 147.301 142.755C145.625 144.87 145.625 135.999 145.921 130.69C146.216 125.38 146.808 123.902 147.417 121.482" stroke="#DA5734" stroke-width="10" stroke-linecap="round"/>
<path d="M159.066 105.353C156.405 120.174 148.636 140.623 146.378 148.768C145.605 151.556 145.338 153.992 144.738 153.437C141.601 150.534 142.937 143.902 142.789 141.953C142.685 140.58 142.041 146.259 142.041 147.612C142.041 145.712 142.336 142.997 143.08 140.027C143.528 137.943 144.119 134.69 144.729 131.339" stroke="#DA5734" stroke-width="10" stroke-linecap="round"/>
</svg>

